<?xml version="1.0" standalone="no"?><!-- Generator: Gravit.io --><svg xmlns="http://www.w3.org/2000/svg" xmlns:xlink="http://www.w3.org/1999/xlink" style="isolation:isolate" viewBox="0 0 64 64" width="64" height="64"><path d=" M 31.601 21.502 Q 30.307 14.529 27 12.3 L 29.3 10 Q 33.038 16.973 31.601 21.502 Z " fill="rgb(93,93,93)"/><path d=" M 49.988 41.562 C 46.5 48.375 39.749 53 32 53 C 20.686 53 11.5 43.142 11.5 31 C 11.5 18.858 19.25 14.25 32 19 C 40.059 14.523 47.091 16.387 50.433 22.268 L 50.433 22.268 C 50.434 22.271 50.436 22.274 50.437 22.276 C 50.439 22.273 50.439 22.273 50.439 22.272 Q 50.437 22.269 50.436 22.266 Q 50.434 22.267 50.433 22.268 Q 45 26.812 45 33.969 Q 45 40.546 49.975 41.57 Q 49.977 41.57 49.979 41.57 L 49.979 41.57 Q 49.965 41.534 49.988 41.562 Z " fill="rgb(152,0,0)"/></svg>