<svg version="1.1" id="arrow" xmlns="http://www.w3.org/2000/svg" xmlns:xlink="http://www.w3.org/1999/xlink" x="0px" y="0px" width="64px" height="62px" viewBox="0 0 219.678 219.677" enable-background="new 0 0 219.678 219.677" xml:space="preserve" fill="">
	<g>
		<path d="M109.741,0C49.154,0.048,0.105,49.083,0,109.71c-0.105,60.786,49.094,109.986,109.965,109.967 c60.604-0.019,109.686-49.089,109.713-109.688C219.706,49.1,170.58-0.049,109.741,0z M162.55,116.869 c-21.148,21.26-42.352,42.466-63.616,63.609c-4.498,4.473-9.45,4.306-14.086-0.162c-3.838-3.698-7.587-7.491-11.309-11.308 c-5.052-5.181-5.1-9.595-0.056-14.717c7.13-7.241,33.789-33.969,35.886-36.198c0,0,4.842-5.052,4.807-8.256 c-0.035-3.273-5.193-8.215-5.193-8.215c-1.404-1.699-27.767-28.371-35.034-35.712c-5.386-5.439-5.405-10.132-0.115-15.529 c3.731-3.807,7.449-7.633,11.325-11.291c4.397-4.15,9.425-4.185,13.73,0.098c21.258,21.15,42.461,42.356,63.615,63.609 C167.081,107.396,167.116,112.28,162.55,116.869z"/>
	</g>
</svg>