<svg width="64" height="64" viewBox="0 0 64 64" fill="none" xmlns="http://www.w3.org/2000/svg">
<rect width="2.59091" height="3.99999" rx="1.29545" transform="translate(11.7727 42)" fill="#3B3B3B"/>
<rect width="2.59091" height="4.99999" rx="1.29545" transform="translate(7.88636 41)" fill="#3B3B3B"/>
<rect width="2.59091" height="4.99999" rx="1.29545" transform="translate(4 41)" fill="#3B3B3B"/>
<rect width="2.59091" height="4.99999" rx="1.29545" transform="translate(15.6591 41)" fill="#3B3B3B"/>
<rect width="2.59091" height="4.99999" rx="1.29545" transform="translate(19.5455 41)" fill="#3B3B3B"/>
<rect width="2.59091" height="4.99999" rx="1.29545" transform="translate(23.4318 41)" fill="#3B3B3B"/>
<rect width="2.59091" height="4.99999" rx="1.29545" transform="translate(27.3182 41)" fill="#3B3B3B"/>
<rect width="2.59091" height="4.99999" rx="1.29545" transform="translate(31.2045 41)" fill="#3B3B3B"/>
<rect width="2.59091" height="4.99999" rx="1.29545" transform="translate(35.0909 41)" fill="#3B3B3B"/>
<rect width="2.59091" height="4.99999" rx="1.29545" transform="translate(38.9773 41)" fill="#3B3B3B"/>
<rect width="2.59091" height="4.99999" rx="1.29545" transform="translate(42.8636 41)" fill="#3B3B3B"/>
<rect width="2.59091" height="4.99999" rx="1.29545" transform="translate(46.75 41)" fill="#3B3B3B"/>
<rect width="2.59091" height="4.99999" rx="1.29545" transform="translate(50.6364 41)" fill="#3B3B3B"/>
<rect width="2.59091" height="4.99999" rx="1.29545" transform="translate(54.5227 41)" fill="#3B3B3B"/>
<rect width="2.59091" height="4.99999" rx="1.29545" transform="translate(58.4091 41)" fill="#3B3B3B"/>
<path d="M55.9248 4.50609C33.9812 -3.28483 13.1602 0.598501 2.91722 4.4501C1.10868 5.13015 0 6.90576 0 8.83793C0 11.5949 2.23499 13.8299 4.992 13.8299H54.1283C56.8189 13.8299 59 11.6488 59 8.95826C59 6.97272 57.7959 5.17042 55.9248 4.50609Z" transform="translate(3 28)" fill="#6D5543" stroke="black" stroke-width="3"/>
<rect width="37.3451" height="2.58503" rx="1.29252" transform="translate(13.8923 35.3673)" fill="black"/>
</svg>
