<?xml version="1.0" standalone="no"?><!-- Generator: Gravit.io --><svg xmlns="http://www.w3.org/2000/svg" xmlns:xlink="http://www.w3.org/1999/xlink" style="isolation:isolate" viewBox="0 0 64 64" width="64" height="64"><path d=" M 19.188 47.438 C 18.717 47.16 17.6 48.051 17.094 47.75 C 16.57 47.439 16.588 46.044 16.156 45.781 C 15.45 45.352 14.199 45.902 14.204 45.868 C 23.388 26.844 29.924 17.992 33.813 19.313 Q 41.313 20.438 44.063 28.938 C 45.628 33.775 37.658 40.617 20.153 49.463 C 20.132 49.448 20.177 48.02 19.188 47.438 Z " fill="rgb(217,142,29)" vector-effect="non-scaling-stroke" stroke-width="1" stroke="rgb(0,0,0)" stroke-linejoin="miter" stroke-linecap="square" stroke-miterlimit="3"/><path d=" M 39.438 21.688 Q 44.813 16.313 41.688 9.688 Q 44.563 9.938 46.313 16.188 Q 51.813 14.188 51.938 8.438 Q 54.063 20.313 47.938 21.688 Q 53.063 24.063 53.438 21.938 Q 51.313 27.813 42.188 24.813 L 39.438 21.688 Z " fill="rgb(41,121,25)" vector-effect="non-scaling-stroke" stroke-width="1" stroke="rgb(0,0,0)" stroke-linejoin="miter" stroke-linecap="square" stroke-miterlimit="3"/><path d=" M 15.188 44.188 Q 19.063 44.188 20.063 46.813" fill="rgb(179,117,24)" vector-effect="non-scaling-stroke" stroke-width="1" stroke="rgb(0,0,0)" stroke-linejoin="miter" stroke-linecap="square" stroke-miterlimit="3"/><path d=" M 34.313 41.313 Q 33.063 37.938 27.563 36.688" fill="rgb(179,117,24)" vector-effect="non-scaling-stroke" stroke-width="1" stroke="rgb(0,0,0)" stroke-linejoin="miter" stroke-linecap="square" stroke-miterlimit="3"/></svg>