<svg version="1.1" id="clapIcon" xmlns="http://www.w3.org/2000/svg" xmlns:xlink="http://www.w3.org/1999/xlink" x="0px" y="0px"
	 width="480.001px" height="478.105px" viewBox="-0.001 80.948 480.001 478.105"
	 style="enable-background:new -0.001 80.948 480.001 478.105;" xml:space="preserve">
<g>
	<path d="M458.265,133.027c4.368-3.089,5.403-9.138,2.313-13.506c-3.092-4.369-9.136-5.405-13.506-2.313l-24.199,17.122
		c-4.368,3.089-5.403,9.137-2.313,13.506c1.888,2.668,4.881,4.094,7.917,4.094c1.935,0,3.889-0.578,5.589-1.783L458.265,133.027z"/>
	<path d="M394.153,127.459c1.123,0.423,2.275,0.623,3.408,0.623c3.921,0,7.611-2.396,9.071-6.284l10.433-27.748
		c1.883-5.008-0.651-10.596-5.661-12.479c-5.008-1.885-10.597,0.652-12.48,5.661l-10.433,27.748
		C386.61,119.988,389.144,125.576,394.153,127.459z"/>
	<path d="M470.313,169.81c-0.066,0-0.133,0-0.2,0l-29.637,0.249c-5.35,0.108-9.599,4.207-9.49,9.558
		c0.106,5.282,4.423,9.573,9.685,9.573c0.066,0,0.133,0,0.2,0l29.636-0.505c5.351-0.11,9.6-4.412,9.491-9.763
		C479.892,173.639,475.575,169.81,470.313,169.81z"/>
</g>
<path d="M410.522,317.648c-4.963-3.929-10.838-6.604-17.049-7.86c0.41-0.743,0.793-1.499,1.154-2.266l3.89-3.889
	c14.977-14.979,16.55-38.556,3.656-54.846c-6.087-7.689-14.537-12.799-23.921-14.706c0.67-1.234,1.265-2.495,1.804-3.775
	c10.2-14.775,10.033-34.633-1.263-48.906c-6.089-7.693-14.541-12.819-23.931-14.723c7.752-14.254,6.762-32.019-3.594-45.098
	c-7.829-9.892-19.555-15.566-32.175-15.566c-10.104,0-19.638,3.611-27.118,10.223c-1.132-6.426-3.816-12.632-8.094-18.038
	c-7.831-9.892-19.558-15.565-32.177-15.566l0,0c-10.966,0-21.259,4.255-28.984,11.979l-98.254,98.254l-0.375-13.114
	c-0.173-22.334-18.398-40.453-40.773-40.453c-21.97,0-39.937,17.466-40.744,39.241l-19.615,142.61l-16.122,18.74
	c-9.662,11.236-9.015,28.231,1.478,38.698l23.961,23.921c-7.387,11.112-6.093,26.269,3.563,35.9L148.35,550.74
	c5.376,5.363,12.513,8.313,20.1,8.313c6.229,0,12.383-2.092,17.327-5.887l23.488-18.036c22.595-5.337,47.506-17.462,74.085-36.062
	c23.209-16.243,48.388-37.887,74.832-64.334l55.928-55.927c8.248-8.248,12.589-19.684,11.91-31.375
	C425.342,335.763,419.694,324.907,410.522,317.648z M303.813,131.693c4.204-4.202,9.741-6.303,15.281-6.303
	c6.322,0,12.646,2.737,16.981,8.213c6.873,8.684,5.668,21.285-2.163,29.115l-9.976,9.974c-1.537,1.025-3.034,2.122-4.437,3.364
	c-1.132-6.427-3.817-12.634-8.096-18.038c-5.26-6.644-12.279-11.374-20.146-13.771L303.813,131.693z M236.425,108.313
	c4.202-4.202,9.741-6.303,15.281-6.303c6.324,0.001,12.646,2.739,16.981,8.215c6.873,8.684,5.668,21.284-2.162,29.113
	L151.994,252.686l-0.376-13.112c-0.099-12.637-5.975-23.921-15.109-31.338L236.425,108.313z M22.002,364.864
	c-3.363-3.356-3.568-8.737-0.47-12.339l19.833-23.057c0.01-0.011,0.018-0.027,0.019-0.041l20.542-149.357
	c0-11.767,9.627-21.393,21.394-21.393s21.395,9.626,21.395,21.393l0.557,19.436c-19.36,2.658-34.435,18.949-35.174,38.851
	L50.485,380.971l-5.706,6.634L22.002,364.864z M400.405,365.104l-55.927,55.928c-47.766,47.766-97.695,86.106-141.556,95.665
	c-1.332,0.292-2.585,0.853-3.667,1.685l-25.282,19.415c-1.638,1.258-3.583,1.877-5.521,1.877c-2.331,0-4.651-0.896-6.408-2.65
	L49.527,424.686c-3.364-3.354-3.569-8.735-0.47-12.338l19.832-23.056c0.012-0.013,0.018-0.027,0.021-0.042l20.541-149.356
	c0-11.767,9.628-21.395,21.395-21.395s21.393,9.628,21.393,21.395l1.011,35.245c0.168,5.856,4.985,9.669,9.998,9.669
	c2.445,0,4.938-0.909,6.959-2.928l113.744-113.744c4.203-4.204,9.739-6.303,15.28-6.303c6.323,0,12.646,2.737,16.981,8.214
	c6.873,8.684,5.666,21.285-2.164,29.114l-78.355,78.355c-4.068,4.07-4.068,10.664,0,14.73l0,0c2.059,2.059,4.758,3.089,7.457,3.089
	s5.399-1.03,7.456-3.089l100.731-100.73c4.202-4.204,9.74-6.303,15.281-6.303c6.322,0.002,12.646,2.739,16.981,8.215
	c6.873,8.682,5.667,21.284-2.164,29.113L261.178,322.799c-4.123,4.125-4.123,10.809,0,14.933c2.031,2.032,4.693,3.048,7.357,3.048
	c2.662,0,5.324-1.016,7.356-3.048l78.828-78.826c4.203-4.204,9.741-6.303,15.28-6.303c6.323,0,12.647,2.737,16.981,8.215
	c6.873,8.682,5.667,21.284-2.164,29.113l-78.081,78.083c-4.219,4.217-4.219,11.058,0,15.273l0.125,0.129
	c1.95,1.949,4.505,2.922,7.058,2.922c2.555,0,5.11-0.973,7.058-2.922l48.407-48.407c4.361-4.362,10.201-6.669,16.021-6.669
	c4.63,0,9.247,1.461,13.093,4.505C408.769,340.975,409.405,356.105,400.405,365.104z"/>
</svg>
