<?xml version="1.0" encoding="utf-8"?>
<!-- Generator: Adobe Illustrator 16.0.0, SVG Export Plug-In . SVG Version: 6.00 Build 0)  -->
<!DOCTYPE svg PUBLIC "-//W3C//DTD SVG 1.1//EN" "http://www.w3.org/Graphics/SVG/1.1/DTD/svg11.dtd">
<svg version="1.1" id="Layer_1" xmlns="http://www.w3.org/2000/svg" xmlns:xlink="http://www.w3.org/1999/xlink" x="0px" y="0px"
	 width="547px" height="388px" viewBox="0 0 547 388" enable-background="new 0 0 547 388" xml:space="preserve">
<path id="AXMBAONX" d="M532.417,217.754c-12.344-47.583-30.41-93.009-52.116-137.042c-5.421-10.996-10.307-22.204-13.542-34.069
	c-0.288-1.056-0.743-2.068-1.008-3.129c-1.795-7.183-5.903-11.68-13.232-14.205c-20.718-7.135-41.214-14.911-61.794-22.442
	c-6.582-2.409-13.432-2.55-20.306-2.379c-0.929,0.023-1.913,0.528-2.752,1.015c-7.195,4.172-14.332,8.447-21.567,12.548
	c-1.352,0.766-3.057,1.222-4.613,1.264c-10.242,0.278-20.489,0.405-30.734,0.577l-73.668-0.031c-1.118,0-2.084,0-3.049,0
	c-7.594,0-15.189,0.051-22.782-0.046c-1.392-0.018-2.891-0.405-4.146-1.019c-7.222-3.529-14.3-7.366-21.604-10.71
	c-3.941-1.804-8.236-2.834-12.372-4.214c-1.464,0-2.928,0-4.392,0c-25.09,8.93-50.174,17.874-75.275,26.771
	c-3.328,1.179-5.638,3.409-7.037,6.508c-1.424,3.153-2.815,6.367-3.751,9.687c-2.986,10.592-7.203,20.675-12.053,30.522
	c-21.27,43.184-38.948,87.762-51.971,134.141c-5.416,19.288-9.594,38.829-11.723,58.774c-0.463,4.337-0.827,8.685-1.237,13.026
	c0,6.771,0,13.542,0,20.313c0.549,4.696,1.028,9.402,1.659,14.087c2.816,20.875,10.958,39.086,26.667,53.581
	c8.043,7.422,17.066,11.656,28.198,9.16c2.585-0.58,5.339-1.659,7.357-3.313c17.333-14.194,34.495-28.6,51.75-42.891
	c13.169-10.907,26.361-21.788,39.618-32.588c6.304-5.136,13.69-7.681,21.778-7.895c16.454-0.435,32.913-0.992,49.37-0.996
	c41.345-0.012,82.689,0.228,124.033,0.451c4.651,0.025,9.306,0.54,13.949,0.932c6.947,0.587,13.199,3.205,18.531,7.541
	c15.182,12.346,30.215,24.873,45.261,37.384c13.221,10.992,26.378,22.06,39.565,33.093c5.343,4.47,10.689,8.937,18.11,9.408
	c1.464,0,2.928,0,4.392,0c19.405-5.178,30.229-19.529,38.376-36.442c5.742-11.92,7.91-24.788,8.894-37.938
	C545.486,276.647,540.021,247.064,532.417,217.754z M371.056,96.556c9.497,0.022,16.763,7.646,16.769,17.593
	c0.005,10.004-7.324,17.388-17.256,17.383c-9.898-0.004-17.825-7.779-17.768-17.424C352.861,104.12,360.752,96.532,371.056,96.556z
	 M137.633,157.951c-24.707,1.945-44.943-22.067-44.467-43.868c0.545-24.985,21.03-43.92,43.68-44.232
	c27.554-0.379,45.698,23.578,45.671,44.283C182.486,136.938,161.821,159.843,137.633,157.951z M258.817,217.511
	c-10.216,0-20.396,0-30.851,0c0,10.111,0,20.033,0,30.113c-5.01,0-18.333,0-23.277,0c0-9.958,0-19.818,0-29.97
	c-10.435,0-20.667,0-31.024,0c0-5.281,0-18.859,0-24.142c10.247,0,20.478,0,30.998,0c0-10.572,0-20.691,0-30.988
	c4.855,0,18.181,0,23.421,0c0,10.07,0,20.149,0,30.636c10.52,0,20.543,0,30.734,0C258.817,198.623,258.817,212.263,258.817,217.511z
	 M343.942,247.659c-24.798,0.034-45.094-19.9-45.093-44.292c0.002-23.549,20.25-44.362,43.283-44.49
	c26.05-0.146,45.754,18.981,45.771,44.43C387.921,227.681,368.151,247.626,343.942,247.659z M406.54,167.436
	c-9.57,0.021-18.162-8.273-18.214-17.582c-0.05-9.039,8.619-18.073,17.264-17.992c10.271,0.097,18.334,8.148,18.287,18.258
	C423.834,159.5,415.907,167.415,406.54,167.436z M406.487,96.08c-9.675,0.058-18.073-8.278-18.074-17.94
	c-0.001-9.018,8.454-17.497,17.247-17.693c10.169-0.227,18.251,9.884,18.22,17.99C423.843,87.837,415.908,96.023,406.487,96.08z
	 M441.742,131.252c-10.226,1.101-17.656-9.166-17.403-17.142c0.313-9.898,7.819-17.22,17.725-17.526
	c9.803-0.303,17.564,9.045,17.621,17.711C459.731,121.583,452.968,132.475,441.742,131.252z"/>
</svg>
