<?xml version="1.0" encoding="utf-8"?>
<!-- Generator: Adobe Illustrator 16.0.0, SVG Export Plug-In . SVG Version: 6.00 Build 0)  -->
<!DOCTYPE svg PUBLIC "-//W3C//DTD SVG 1.1//EN" "http://www.w3.org/Graphics/SVG/1.1/DTD/svg11.dtd">
<svg height="512" width="512" version="1.1" id="Layer_1" xmlns="http://www.w3.org/2000/svg" xmlns:xlink="http://www.w3.org/1999/xlink" x="0px" y="0px"
	   viewBox="0 0 512 512" enable-background="new 0 0 512 512" xml:space="preserve">
<g id="hay_2_">
	<path fill="#FECD57" d="M237.458,469.244l-3.124,0.219c-0.031,0-2.796,0.156-6.295,0.156c-7.326,0-10.185-0.719-10.825-0.906
		c-3.562-2.188-8.857-3.999-14.449-5.904c-3.077-1.062-7.654-2.625-9.294-3.469c-0.406-0.39-0.922-0.89-1.531-1.468
		c-11.418-10.903-19.291-17.495-25.773-18.994c-4.53-1.046-24.071-4.937-32.068-4.937c-3.03-0.858-11.637-6.872-15.027-10.246
		c-3.655-3.608-9.122-4.998-20.166-7.592c-4.53-1.062-12.028-2.812-14.199-3.967c-2.093-1.688-4.546-3.25-6.92-4.765
		c-1.828-1.171-4.686-2.983-6.061-4.171c-1.172-3.873-4.405-7.811-10.7-9.263c-2.312-0.546-4.982-0.765-8.888-0.765
		c-1.234,0-2.499,0.031-3.749,0.047c-1.109,0.016-2.187,0.047-3.218,0.047c-1.718,0-2.546-0.062-2.89-0.109
		c-1.171-0.453-2.733-1.016-4.639-1.688c-4.077-1.484-13.371-4.811-16.261-6.342c-2.233-2.078-5.576-4.077-8.966-5.857
		c1.515-6.967,2.577-14.059,1.921-18.135c-0.328-1.984-0.875-4.327-1.468-6.795c-0.906-3.781-2.14-8.967-2.14-11.716
		c0-1.218,0.5-3.812,0.937-6.092c1.125-5.779,2.515-12.965,1.031-20.056c-0.438-2.781,1.14-13.215,2.093-19.432
		c1.671-11.091,2.593-17.589,1.718-22.15c-0.593-3.162-1.687-6.553-2.858-10.137c-1.234-3.812-2.921-9.029-2.921-11.427
		c0-5.069,2.671-19.494,3.687-24.93l0.328-1.812c0.922-5.022-0.343-11.723-2.515-22.165c-0.562-2.656-1.312-6.225-1.468-7.646
		c0.297-1.968,1.765-7.49,2.749-11.215c2.999-11.231,3.999-15.488,3.546-19.088c-0.516-4.163-2.718-7.115-4.327-9.271
		c-1.593-2.124-2-2.804-2-3.842v-18.573c6.545-2.015,15.464-4.842,19.619-6.576c2.077-0.789,10.043-1.515,14.324-1.913
		c9.247-0.852,13.48-1.305,16.838-3.218c2.437-1.383,5.514-4.062,11.918-9.825c2.358-2.117,5.811-5.209,7.248-6.334
		c1.5-0.539,5.202-1.46,7.716-2.085c9.669-2.405,14.902-3.827,18.307-7.193c0.718-0.633,3.655-2.89,15.636-10.341l0.75-0.469
		c2.624-1.39,15.276-5.842,22.103-8.24c1.5-0.523,2.921-1.023,4.249-1.492c3.765-1.328,8.373-2.132,12.418-2.843
		c7.607-1.32,14.168-2.468,17.12-8.786c0.718-1.336,2.796-3.999,4.139-5.272c7.794-1.242,26.336-6.17,32.818-8.841
		c5.998-2.476,9.466-6.295,11.762-8.817c0.375-0.398,0.828-0.898,1.156-1.226c4.592-1.515,18.213-6.475,25.804-9.247
		c8.373,5.311,23.149,14.128,31.428,15.776c3.203,0.64,6.436,1,9.279,1.312c2.265,0.25,5.529,0.609,7.123,1.046
		c5.357,6.412,18.775,15.05,26.663,15.8c1.03,0.094,4.14,0.945,6.201,1.5c4.999,1.359,10.169,2.765,14.651,2.765
		c0.219,0,0.438-0.008,0.656-0.016c4.53,0.367,24.68,6.568,28.897,9.192c12.809,10.559,21.399,16.768,25.539,18.463
		c3.062,1.258,7.748,1.96,16.448,3.187c5.045,0.719,13.465,1.906,15.667,2.726c3.421,1.539,17.011,10.918,21.478,14.003
		c2.188,1.507,3.766,2.593,4.608,3.147c1.108,0.718,3.89,2.53,36.505,13.176c-3.359,19.58-6.482,40.667-5.467,46.58
		c0.655,3.834,1.967,7.357,3.107,10.465c0.75,2.007,1.875,5.038,1.875,6.092c-0.031,1.812-1.219,9.606-2.016,14.761
		c-2.015,13.254-2.811,19.002-2.468,22.478c0.281,3.069,1.437,6.6,3.296,12.113c1.047,3.101,2.968,8.849,3.124,10.731
		c-0.078,1.586-1.358,6.639-2.202,9.996c-2.047,8.092-3.28,13.277-2.906,17.542c0.281,3.265,1.406,7.311,2.703,11.981
		c0.875,3.201,2.358,8.544,2.405,10.215c-0.016,1.344-0.843,5.936-1.452,9.311c-1.312,7.278-2.672,14.808-2.344,20.306
		c0.422,6.967,2.922,18.713,3.796,22.649v19.51c-12.902,7.326-13.776,8.638-15.011,10.48c-3.952,5.937-7.639,10.778-9.264,12.527
		c-3.717,1.359-14.916,4-18.385,4.406c-0.344-0.031-0.672-0.031-1.015-0.031c-5.077,0-8.575,2.982-13.887,7.513
		c-1.983,1.702-4.702,4.015-6.186,4.905c-2.28,1.077-11.06,2.889-15.292,3.779c-7.982,1.656-10.98,2.266-13.574,4.108
		c-1.453,1.03-15.229,11.341-20.088,15.886c-2.998,1.484-13.402,3.905-16.666,4.154c-0.172-0.016-0.344-0.016-0.516-0.016
		c-3.702,0-6.795,1.656-11.934,4.375c-2.969,1.562-9.904,5.217-12.387,5.404c-0.359,0-0.719,0-1.078,0
		c-7.545,0-20.213,2.343-26.398,8.685c-2,0.812-6.529,2.015-9.356,2.765c-5.702,1.516-9.216,2.484-11.919,3.937
		c-3.982,1.421-23.164,5.482-40.503,8.794L237.458,469.244z"/>
	<path fill="#F5BA45" d="M505.439,233.503c-0.453-4.608,4.545-30.881,4.545-36.216c0-5.326-4.029-11.934-5.139-18.369
		c-1.109-6.443,7.076-52.047,7.076-52.047s-39.629-12.77-42.8-14.831c-3.171-2.062-22.118-15.55-27.663-17.995
		c-5.561-2.445-27.992-4.218-32.318-5.998c-4.342-1.781-18.557-13.332-22.993-16.995c-4.39-3.616-29.741-11.465-35.458-11.465
		c-0.078,0-0.156,0.008-0.234,0.008c-0.141,0.008-0.297,0.008-0.453,0.008c-5.326,0-15.308-3.78-19.838-4.209
		c-4.67-0.445-16.932-8.208-19.899-12.551c-2.983-4.335-13.215-3.671-22.087-5.444C279.289,35.618,256,20.232,256,20.232
		s-26.805,9.833-31.147,11.168c-4.327,1.328-5.998,7.216-12.996,10.106c-6.998,2.89-27.991,8.107-31.646,8.333
		c-3.671,0.219-9.778,8.662-10.887,11.106c-1.109,2.445-13.621,2.632-23.446,6.108c-9.825,3.475-25.32,8.794-28.319,10.661
		c-2.999,1.875-15.667,9.669-18.322,12.332c-2.671,2.664-20.65,5.522-23.993,7.662c-3.343,2.148-15.777,14.277-18.995,16.112
		c-3.233,1.828-23.743,1.945-29.991,4.554c-6.248,2.601-26.179,8.497-26.179,8.497s0,18.822,0,26.492
		c0,7.662,5.951,10.879,6.404,14.433c0.438,3.561-6.404,24.555-6.404,28.882c0,4.334,5.186,22.509,4.186,27.991
		c-1.015,5.491-4.186,21.993-4.186,28.663c0,6.662,4.733,17.104,5.951,23.548c1.234,6.451-5.436,33.755-3.765,41.752
		c1.656,7.998-2.187,17.995-2.187,23.993c0,5.999,2.952,15.448,3.733,20.229c0.781,4.765-3.733,22.259-3.733,22.259
		s12.715,5.904,14.292,8.061c1.562,2.17,19.65,8.216,24.539,10.121c1.343,0.5,3.64,0.625,6.264,0.625
		c2.203,0,4.655-0.094,6.967-0.094c4.936,0,9.263,0.391,9.435,2.78c0.328,4.687,11.325,9.653,16.667,13.996
		c5.326,4.343,29.834,7.231,33.318,10.685c3.452,3.404,16.058,13.309,22.103,13.309c0.047,0,0.078,0,0.109,0
		c0.109,0,0.203,0,0.312,0c6.311,0,24.008,3.373,29.678,4.686c5.78,1.312,19.666,15.308,22.946,18.307
		c3.265,2.999,19.931,6.998,25.148,10.341c3.077,1.968,10.544,2.374,16.183,2.374c3.937,0,6.982-0.219,6.982-0.219L256,491.768
		c0,0,43.283-8.185,47.173-10.496c3.89-2.344,21.321-5.123,23.649-8.342c2.249-3.092,11.621-5.904,19.15-5.904
		c0.297,0,0.562,0,0.844,0.016c0.094,0.016,0.172,0.016,0.25,0.016c7.622,0,21.523-9.793,24.305-9.793c0.031,0,0.078,0,0.109,0.016
		c0.094,0,0.203,0,0.344,0c3.514,0,20.446-3.469,23.648-6.686c3.327-3.312,17.433-13.996,19.322-15.309
		c1.891-1.344,22.853-4.342,27.992-7.342c4.967-2.904,12.668-11.027,14.792-11.027c0.078,0,0.14,0,0.202,0.031
		c0.109,0.031,0.297,0.062,0.531,0.062c3.656,0,21.479-4.186,24.462-6.061c3.187-2,11.45-14.34,12.34-15.651
		c0.875-1.344,16.808-10.185,16.808-10.185v-26.93c0,0-3.374-14.776-3.812-22.102c-0.453-7.326,3.812-23.666,3.812-28.992
		s-4.701-17.994-5.154-23.102c-0.438-5.108,5.154-21.104,5.154-26.656C511.922,251.771,505.877,238.111,505.439,233.503z
		 M490.584,372.742c-9.574,5.686-11.168,7.623-13.215,10.715c-2.467,3.719-4.904,7.061-6.561,9.186
		c-3.764,1.062-9.793,2.468-12.746,2.951c-0.156-0.016-0.312-0.016-0.483-0.016c-8.997,0-14.729,4.905-20.806,10.092
		c-1.188,1.015-3.047,2.592-4.188,3.451c-2.811,0.875-9.277,2.219-12.543,2.891c-9.027,1.874-13.152,2.732-17.541,5.842
		c-0.141,0.094-12.871,9.465-19.635,15.386c-2.952,0.999-8.778,2.343-11.512,2.702c-6.326,0-10.997,2.469-16.901,5.592
		c-2.171,1.141-6.451,3.405-8.653,4.171c-2.922,0.016-20.65,0.516-31.865,10.013c-1.875,0.594-4.608,1.312-6.451,1.797
		c-5.217,1.39-9.498,2.514-13.23,4.342c-4.546,1.359-19.947,4.623-34.662,7.498l-14.198-7.889l-5.467-3.062l-6.264,0.406
		c-0.031,0-2.5,0.156-5.624,0.156c-3.733,0-5.936-0.219-7.014-0.359c-4.264-2.265-9.403-4.046-14.808-5.889
		c-2.078-0.719-4.983-1.702-6.748-2.405c-0.062-0.047-0.109-0.094-0.172-0.156c-13.34-12.746-21.759-19.588-30.741-21.666
		c-0.203-0.047-20.541-4.529-32.068-5.139c-2.874-1.562-8.138-5.467-9.919-7.217c-5.951-5.904-14.042-7.795-25.242-10.418
		c-3.374-0.797-8.778-2.047-11.262-2.922c-2.14-1.593-4.374-3.014-6.545-4.404c-0.843-0.547-1.921-1.234-2.874-1.875
		c-3.171-6.779-10.731-13.996-28.507-13.996c-1.359,0-2.671,0.016-3.952,0.031c-1.093,0.031-2.124,0.047-3.015,0.047
		c-0.281,0-0.515-0.016-0.718-0.016c-0.922-0.343-2-0.718-3.202-1.155c-3.077-1.093-10.685-3.843-14.027-5.326
		c-0.922-0.766-1.906-1.484-2.937-2.202c1.453-9.092,0.859-12.746,0.578-14.465c-0.391-2.375-0.984-4.904-1.625-7.576
		c-0.609-2.546-1.718-7.217-1.843-9.091c0.094-0.858,0.469-2.78,0.75-4.202c1.187-6.17,2.796-14.526,1.156-23.383
		c-0.016-3.108,1.296-11.793,2.031-16.542c1.906-12.59,2.843-19.447,1.656-25.742c-0.719-3.804-1.984-7.677-3.187-11.427
		c-0.828-2.529-2.171-6.708-2.406-8.396c0.062-2.108,0.734-7.794,3.499-22.727c0.125-0.695,0.25-1.32,0.344-1.835
		c1.265-6.936-0.125-14.55-2.578-26.266c-0.343-1.679-0.796-3.78-1.062-5.272c0.516-2.257,1.5-5.998,2.218-8.669
		c3.171-11.903,4.545-17.409,3.827-23.149c-0.859-6.81-4.295-11.543-6.248-14.16v-8.373c4.686-1.507,9.356-3.085,12.402-4.303
		c2.265-0.523,8.451-1.085,11.84-1.398c9.747-0.898,15.636-1.437,21.15-4.569c3.53-2.007,7.154-5.209,13.777-11.161
		c1.593-1.437,3.749-3.382,5.28-4.694c1.5-0.414,3.577-0.93,5.124-1.312c9.95-2.476,17.229-4.288,22.821-9.56
		c0.969-0.758,4.124-3.015,14.184-9.271l0.234-0.148c3.265-1.484,14.417-5.404,20.525-7.552c1.484-0.523,2.921-1.023,4.249-1.492
		c2.937-1.039,7.061-1.757,10.715-2.397c8.138-1.422,19.229-3.358,24.649-14.176c0.109-0.171,0.25-0.375,0.406-0.585
		c9.997-2.023,25.117-6.256,31.24-8.787c7.482-3.085,12.137-7.732,14.855-10.684c4.702-1.632,12.246-4.35,18.619-6.678
		c1.406,0.859,2.921,1.765,4.483,2.687c15.042,8.818,21.821,10.919,26.039,11.762c3.655,0.734,7.139,1.117,10.216,1.453
		c0.875,0.102,1.983,0.219,2.983,0.352c7.841,7.583,21.024,15.417,30.616,16.479c0.905,0.172,3.201,0.789,4.748,1.21
		c5.404,1.468,11.543,3.132,17.432,3.132c4.89,0.796,19.15,5.303,23.665,7.458c19.822,16.284,24.914,18.377,27.382,19.385
		c4.265,1.75,9.186,2.492,19.025,3.882c4.016,0.57,10.528,1.492,13.199,2.132c2.719,1.507,9.232,5.811,19.369,12.816
		c2.547,1.757,3.921,2.703,4.858,3.312c2.077,1.352,4.577,2.976,30.319,11.52c-0.297,1.859-0.609,3.788-0.906,5.749
		c-4.03,25.773-3.78,31.264-3.078,35.356c0.828,4.803,2.391,8.99,3.625,12.348c0.375,0.992,0.827,2.249,1.108,3.108
		c-0.312,2.765-1.187,8.466-1.78,12.441c-2.266,14.785-3.016,20.384-2.562,25.109c0.422,4.437,1.922,8.873,3.812,14.488
		c0.733,2.179,1.857,5.561,2.389,7.576c-0.375,1.882-1.155,4.959-1.702,7.154c-2.327,9.207-3.687,15.222-3.187,21.063
		c0.375,4.249,1.609,8.716,3.046,13.901c0.609,2.25,1.593,5.796,1.952,7.623c-0.219,1.672-0.812,4.904-1.218,7.154
		c-1.687,9.419-2.874,16.573-2.483,22.868c0.422,7.122,2.655,18.01,3.764,23.149V372.742z"/>
	<g>
		<path fill="#F5BA45" d="M266.652,486.426h-21.321V444.83c0-1.953-0.546-3.297-1.671-5.858c-1.484-3.437-3.515-8.122-2.999-14.558
			c0.438-5.248,2.109-9.904,3.452-13.652c0.391-1.094,0.89-2.5,1.14-3.374c-0.281-0.983-0.781-2.515-1.171-3.718
			c-1.734-5.311-3.718-11.309-3.437-16.713c0.172-3.344,3.687-25.961,8.607-36.1c1.562-3.186,4.077-9.48,4.342-11.699
			c0.531-4.514,0.188-8.028-0.203-12.121c-0.219-2.218-0.438-4.498-0.515-6.998c-0.562-1.593-2.187-5.092-3.202-7.248
			c-3.078-6.592-4.515-9.684-4.327-13.309c0-0.78-0.078-3.576-0.156-6.061c-0.64-21.852-0.375-26.343,0.781-29.537
			c4.624-12.629-0.031-26.797-0.078-26.945l20.181-6.919c0.281,0.843,7.014,20.736,0.234,40.347
			c-0.344,3.732,0.047,17.213,0.203,22.431c0.078,2.905,0.125,4.655,0.141,5.811c0.547,1.296,1.594,3.562,2.344,5.155
			c3.373,7.216,5.123,11.152,5.186,14.963c0.016,2,0.219,4.062,0.438,6.248c0.453,4.641,0.953,9.904,0.156,16.715
			c-0.844,7.061-5.779,17.338-6.342,18.494c-2.905,5.967-6.201,24.273-6.482,27.897c0,1.624,1.609,6.576,2.39,8.95
			c1.016,3.078,1.89,5.764,2.218,8.139c0.609,4.467-0.844,8.497-2.374,12.777c-1.015,2.843-2.062,5.779-2.265,8.2
			c-0.078,0.984,0.188,1.749,1.297,4.296c1.452,3.342,3.436,7.904,3.436,14.387V486.426z"/>
	</g>
	<g>
		<path fill="#F5BA45" d="M258.093,243.953l-4.202-20.9c13.699-2.765,28.289-6.881,31.333-8.833c1.844-1.46,4.188-3.741,6.654-6.154
			c5.312-5.163,10.794-10.505,16.527-12.965c8.231-3.53,20.024-3.53,28.646-3.53c0.562,0,0.766-0.062,0.766-0.062
			c0.359-0.156,1.516-1.218,2.281-1.921c1.624-1.492,3.623-3.343,6.436-5.17c6.514-4.241,15.369-8.771,21.524-11.004
			c4.499-1.64,9.606-1.179,15.011-0.695c2.359,0.21,6.248,0.562,7.701,0.32c1.952-0.843,4.607-1.648,8.185-2.741
			c4.64-1.414,10.403-3.171,15.464-5.288c7.014-2.921,8.482-4.803,8.529-4.889c5.967-8.505,11.84-15.683,23.039-17.104
			c1.5-0.953,4.39-3.85,6.17-5.631c4.64-4.663,8.654-8.685,14.137-9.638l28.226-4.897l3.64,21.017l-26.805,4.647
			c-1.062,0.89-2.842,2.671-4.092,3.928c-5.139,5.155-10.981,11.004-18.322,11.7c-1.656,0.156-2.969,0.289-8.529,8.216
			c-6.232,8.919-20.229,13.769-35.239,18.338c-2.312,0.703-5.186,1.578-5.982,1.929c-5.437,2.46-11.841,1.89-18.026,1.335
			c-2.014-0.188-4.998-0.453-6.232-0.351c-4.107,1.554-11.309,5.131-16.744,8.677c-1.328,0.859-2.406,1.843-3.64,2.983
			c-3.296,3.038-8.278,7.63-17.495,7.63c-5.607,0-16.041,0-20.243,1.804c-2.093,0.898-7.076,5.749-10.044,8.638
			c-2.937,2.858-5.701,5.553-8.451,7.716C291.161,236.674,270.043,241.548,258.093,243.953z"/>
	</g>
	<g>
		<path fill="#F5BA45" d="M253.5,243.875c-10.934-2.624-28.522-6.748-32.1-7.357c-4.28-0.727-10.543-3.39-15.933-6.779
			c-7.982-5.014-12.324-10.614-12.918-16.667c-0.765-0.765-2.14-1.734-3.28-2.312c-4.467,1.093-9.981,0.875-14.308,0.391
			c-8.716-0.969-14.714-3.366-18.229-7.311c-3.155-1.273-11.934-2.616-15.824-3.21c-3.811-0.585-6.826-1.046-9.06-1.632
			c-6.482-1.71-13.168-8.763-18.463-15.823c-8.185,0.531-21.556,0.727-29.616-2.655c-8.419-3.53-14.979-11.879-18.65-17.487
			c-7.342-0.867-20.509-2.546-27.96-4.288C25.305,155.98,9.388,143.062,6.311,140.5l13.652-16.378
			c5.873,4.881,16.932,12.66,22.04,13.855c9.232,2.156,30.475,4.421,30.694,4.444l5.655,0.601l2.655,5.03
			c2.343,4.405,7.498,11.325,11.012,12.801c3.843,1.609,16.198,1.593,25.352,0.57l6.436-0.719l3.608,5.389
			c3.499,5.194,8.31,10.895,10.465,12.418c1.406,0.289,3.952,0.68,6.248,1.031c13.949,2.132,23.118,3.905,27.96,9.388
			c2.624,0.969,9.013,1.547,11.747,1.195c5.873-2.562,12.418-0.031,17.026,2.679c3.655,2.156,11.762,7.857,12.824,16.589
			c2.312,2.202,8.701,5.576,11.325,6.107c5.389,0.914,30.616,6.951,33.474,7.63L253.5,243.875z"/>
	</g>
	<path fill="#424953" d="M117.558,77.715c-1.218,0.766-4.045,2.507-7.138,4.491l259.795,108.194v267.13
		c0.484-0.156,0.875-0.266,1.156-0.266c0.031,0,0.078,0,0.109,0.016c0.094,0,0.203,0,0.344,0c2.732,0,13.512-2.094,19.729-4.515
		V176.177L137.005,70.178C128.57,73.154,119.745,76.356,117.558,77.715z"/>
	<g>
		<path fill="#F5BA45" d="M53.39,204.012c-5.889,0-10.668,4.772-10.668,10.661c0,5.889,4.78,10.669,10.668,10.669
			c5.889,0,10.669-4.78,10.669-10.669C64.059,208.784,59.279,204.012,53.39,204.012z"/>
		<path fill="#F5BA45" d="M96.049,289.33c-5.905,0-10.669,4.764-10.669,10.652s4.764,10.653,10.669,10.653
			c5.873,0,10.653-4.765,10.653-10.653S101.922,289.33,96.049,289.33z"/>
		<path fill="#F5BA45" d="M181.351,331.973c-5.889,0-10.668,4.78-10.668,10.653c0,5.905,4.78,10.685,10.668,10.685
			c5.889,0,10.669-4.779,10.669-10.685C192.02,336.753,187.24,331.973,181.351,331.973z"/>
		<path fill="#F5BA45" d="M138.692,374.616c-5.889,0-10.653,4.78-10.653,10.685c0,5.873,4.764,10.652,10.653,10.652
			s10.668-4.779,10.668-10.652C149.36,379.396,144.581,374.616,138.692,374.616z"/>
		<path fill="#F5BA45" d="M202.672,374.616c-5.889,0-10.653,4.78-10.653,10.685c0,5.873,4.764,10.652,10.653,10.652
			s10.668-4.779,10.668-10.652C213.341,379.396,208.561,374.616,202.672,374.616z"/>
		<path fill="#F5BA45" d="M53.39,331.973c-5.889,0-10.668,4.78-10.668,10.653c0,5.905,4.78,10.685,10.668,10.685
			c5.889,0,10.669-4.779,10.669-10.685C64.059,336.753,59.279,331.973,53.39,331.973z"/>
		<path fill="#F5BA45" d="M138.692,246.663c-5.889,0-10.653,4.78-10.653,10.669c0,5.889,4.764,10.66,10.653,10.66
			s10.668-4.771,10.668-10.66C149.36,251.443,144.581,246.663,138.692,246.663z"/>
		<path fill="#F5BA45" d="M458.594,236.002c5.889,0,10.669-4.772,10.669-10.661c0-5.889-4.78-10.669-10.669-10.669
			s-10.652,4.78-10.652,10.669C447.941,231.23,452.705,236.002,458.594,236.002z"/>
		<path fill="#F5BA45" d="M415.951,299.982c-5.904,0-10.669,4.78-10.669,10.653c0,5.905,4.765,10.685,10.669,10.685
			c5.873,0,10.652-4.779,10.652-10.685C426.604,304.763,421.824,299.982,415.951,299.982z"/>
		<path fill="#F5BA45" d="M330.633,342.626c-5.889,0-10.652,4.78-10.652,10.685c0,5.873,4.764,10.652,10.652,10.652
			s10.669-4.779,10.669-10.652C341.302,347.406,336.521,342.626,330.633,342.626z"/>
		<path fill="#F5BA45" d="M309.312,278.646c5.89,0,10.669-4.765,10.669-10.653s-4.779-10.66-10.669-10.66
			c-5.889,0-10.669,4.771-10.669,10.66S303.423,278.646,309.312,278.646z"/>
		<path fill="#F5BA45" d="M309.312,108.042c5.89,0,10.669-4.772,10.669-10.661c0-5.889-4.779-10.669-10.669-10.669
			c-5.889,0-10.669,4.78-10.669,10.669C298.643,103.27,303.423,108.042,309.312,108.042z"/>
		<path fill="#F5BA45" d="M245.331,172.249c-5.889,0-10.668,4.772-10.668,10.661c0,5.889,4.78,10.661,10.668,10.661
			c5.889,0,10.669-4.772,10.669-10.661C256,177.021,251.22,172.249,245.331,172.249z"/>
		<path fill="#F5BA45" d="M245.331,86.712c-5.889,0-10.668,4.78-10.668,10.669c0,5.889,4.78,10.661,10.668,10.661
			c5.889,0,10.669-4.772,10.669-10.661C256,91.492,251.22,86.712,245.331,86.712z"/>
		<path fill="#F5BA45" d="M181.351,150.692c5.889,0,10.669-4.772,10.669-10.661s-4.78-10.661-10.669-10.661
			c-5.889,0-10.668,4.772-10.668,10.661S175.462,150.692,181.351,150.692z"/>
		<path fill="#F5BA45" d="M117.37,129.371c-5.889,0-10.668,4.772-10.668,10.661s4.78,10.661,10.668,10.661
			c5.889,0,10.669-4.772,10.669-10.661S123.259,129.371,117.37,129.371z"/>
		<path fill="#F5BA45" d="M373.292,129.371c-5.889,0-10.669,4.772-10.669,10.661s4.78,10.661,10.669,10.661
			c5.89,0,10.669-4.772,10.669-10.661S379.182,129.371,373.292,129.371z"/>
		<path fill="#F5BA45" d="M309.312,385.301c-5.889,0-10.669,4.764-10.669,10.652s4.78,10.653,10.669,10.653
			c5.89,0,10.669-4.765,10.669-10.653S315.201,385.301,309.312,385.301z"/>
		<path fill="#F5BA45" d="M458.594,342.626c-5.889,0-10.652,4.78-10.652,10.685c0,5.873,4.764,10.652,10.652,10.652
			s10.669-4.779,10.669-10.652C469.263,347.406,464.482,342.626,458.594,342.626z"/>
	</g>
</g>
</svg>
