<?xml version="1.0" encoding="UTF-8" standalone="no"?>
<!DOCTYPE svg PUBLIC "-//W3C//DTD SVG 1.1//EN" "http://www.w3.org/Graphics/SVG/1.1/DTD/svg11.dtd">
<svg version="1.1" xmlns="http://www.w3.org/2000/svg" xmlns:xlink="http://www.w3.org/1999/xlink" preserveAspectRatio="xMidYMid meet" viewBox="0 0 64 64" width="64" height="64"><defs><path d="M29.29 58.68C29.29 58.68 28.94 58.7 28.5 58.7C27.59 58.7 27.23 58.61 27.15 58.59C26.71 58.32 26.04 58.09 25.35 57.85C24.96 57.72 24.39 57.52 24.18 57.42C24.13 57.37 24.07 57.31 23.99 57.23C22.57 55.87 21.58 55.05 20.77 54.86C20.2 54.73 17.76 54.24 16.76 54.24C16.38 54.14 15.31 53.38 14.88 52.96C14.43 52.51 13.74 52.34 12.36 52.01C11.8 51.88 10.86 51.66 10.59 51.52C10.33 51.31 10.02 51.11 9.72 50.92C9.49 50.78 9.14 50.55 8.97 50.4C8.82 49.92 8.42 49.42 7.63 49.24C7.34 49.17 7.01 49.15 6.52 49.15C6.36 49.15 6.2 49.15 6.05 49.15C5.91 49.15 5.78 49.16 5.65 49.16C5.43 49.16 5.33 49.15 5.29 49.14C5.14 49.09 4.94 49.02 4.71 48.93C4.2 48.75 3.03 48.33 2.67 48.14C2.39 47.88 1.98 47.63 1.55 47.41C1.74 46.54 1.87 45.65 1.79 45.14C1.75 44.89 1.68 44.6 1.61 44.29C1.5 43.82 1.34 43.17 1.34 42.83C1.34 42.68 1.4 42.35 1.46 42.07C1.6 41.34 1.77 40.45 1.59 39.56C1.53 39.21 1.73 37.91 1.85 37.13C2.06 35.74 2.17 34.93 2.06 34.36C1.99 33.97 1.85 33.54 1.71 33.09C1.55 32.62 1.34 31.97 1.34 31.67C1.34 31.03 1.67 29.23 1.8 28.55C1.81 28.53 1.84 28.35 1.84 28.32C1.96 27.7 1.8 26.86 1.53 25.55C1.46 25.22 1.36 24.77 1.34 24.6C1.38 24.35 1.57 23.66 1.69 23.2C2.06 21.79 2.19 21.26 2.13 20.81C2.07 20.29 1.79 19.92 1.59 19.65C1.39 19.38 1.34 19.3 1.34 19.17C1.34 18.94 1.34 17.08 1.34 16.85C2.16 16.6 3.27 16.24 3.79 16.03C4.05 15.93 5.05 15.84 5.58 15.79C6.74 15.68 7.27 15.62 7.69 15.39C7.99 15.21 8.38 14.88 9.18 14.16C9.47 13.89 9.9 13.51 10.08 13.37C10.27 13.3 10.73 13.18 11.05 13.1C12.26 12.8 12.91 12.63 13.34 12.21C13.43 12.13 13.79 11.84 15.29 10.91C15.3 10.91 15.38 10.86 15.39 10.85C15.71 10.68 17.29 10.12 18.15 9.82C18.34 9.76 18.51 9.7 18.68 9.64C19.15 9.47 19.73 9.37 20.23 9.28C21.18 9.12 22 8.97 22.37 8.18C22.46 8.02 22.72 7.68 22.89 7.53C23.86 7.37 26.18 6.75 26.99 6.42C27.74 6.11 28.17 5.63 28.46 5.32C28.51 5.27 28.57 5.21 28.61 5.16C29.18 4.98 30.88 4.36 31.83 4.01C32.88 4.67 34.73 5.77 35.76 5.98C36.16 6.06 36.56 6.11 36.92 6.14C37.2 6.18 37.61 6.22 37.81 6.28C38.48 7.08 40.16 8.16 41.14 8.25C41.27 8.26 41.66 8.37 41.92 8.44C42.54 8.61 43.19 8.78 43.75 8.78C43.78 8.78 43.8 8.78 43.83 8.78C44.4 8.83 46.92 9.6 47.44 9.93C49.05 11.25 50.12 12.03 50.64 12.24C51.02 12.4 51.6 12.48 52.69 12.64C53.32 12.73 54.38 12.88 54.65 12.98C55.08 13.17 56.78 14.34 57.34 14.73C57.61 14.92 57.81 15.05 57.91 15.12C58.05 15.21 58.4 15.44 62.47 16.77C62.05 19.22 60.41 20.52 60.54 21.26C60.62 21.74 58.45 23.01 58.6 23.4C58.69 23.65 56.66 24.47 56.66 24.6C56.66 24.82 54.51 25.86 54.41 26.51C54.16 28.16 54.37 30.4 54.41 30.83C54.45 31.22 55.23 34.97 55.46 35.66C55.59 36.05 55.53 40.28 55.69 40.86C55.8 41.26 56.66 43.68 56.66 43.89C56.66 44.06 59.22 46.05 59.14 46.47C58.98 47.38 60.5 47.07 60.54 47.76C60.59 48.63 61.46 47.65 61.57 48.14C61.57 48.38 62.66 47.12 62.66 47.36C61.04 48.28 60.93 48.44 60.78 48.67C60.29 49.41 59.82 50.02 59.62 50.24C59.16 50.41 57.76 50.74 57.32 50.79C57.28 50.78 57.24 50.78 57.2 50.78C56.56 50.78 56.12 51.16 55.46 51.72C55.21 51.93 54.87 52.22 54.69 52.33C54.4 52.47 53.3 52.7 52.78 52.81C51.78 53.01 51.4 53.09 51.08 53.32C50.9 53.45 49.18 54.74 48.57 55.31C48.19 55.49 46.89 55.79 46.48 55.83C46.46 55.82 46.44 55.82 46.42 55.82C45.96 55.82 45.57 56.03 44.93 56.37C44.56 56.57 43.69 57.02 43.38 57.05C43.34 57.05 43.29 57.05 43.25 57.05C42.3 57.05 40.72 57.34 39.95 58.13C39.7 58.23 39.13 58.38 38.78 58.48C38.06 58.67 37.62 58.79 37.29 58.97C36.79 59.15 34.39 59.65 32.22 60.07C32.05 59.97 31.21 59.5 29.68 58.66C29.45 58.67 29.32 58.68 29.29 58.68Z" id="aJjPeMz8N"></path><path d="M32.05 2.56L32.08 2.58L32.13 2.61L32.18 2.65L32.24 2.69L32.31 2.73L32.39 2.78L32.47 2.83L32.56 2.89L32.66 2.95L32.76 3.01L32.87 3.08L32.98 3.15L33.1 3.22L33.22 3.29L33.34 3.37L33.47 3.44L33.59 3.52L33.73 3.59L33.86 3.67L33.99 3.75L34.13 3.82L34.26 3.9L34.4 3.97L34.53 4.04L34.66 4.11L34.8 4.18L34.93 4.25L35.05 4.31L35.18 4.37L35.3 4.42L35.42 4.47L35.53 4.52L35.64 4.56L35.74 4.6L35.84 4.63L35.94 4.66L36.02 4.67L36.11 4.69L36.19 4.71L36.27 4.72L36.36 4.73L36.44 4.75L36.53 4.76L36.61 4.77L36.7 4.78L36.78 4.79L36.87 4.8L36.95 4.81L37.04 4.82L37.12 4.83L37.2 4.84L37.28 4.84L37.37 4.85L37.45 4.86L37.52 4.87L37.6 4.88L37.68 4.9L37.75 4.91L37.83 4.92L37.9 4.93L37.97 4.95L38.04 4.96L38.1 4.98L38.17 4.99L38.23 5.01L38.29 5.03L38.35 5.05L38.41 5.07L38.46 5.1L38.51 5.12L38.56 5.15L38.6 5.18L38.65 5.21L38.68 5.24L38.72 5.28L38.75 5.32L38.78 5.36L38.81 5.4L38.85 5.44L38.89 5.48L38.93 5.53L38.97 5.58L39.02 5.62L39.07 5.67L39.13 5.72L39.19 5.77L39.25 5.82L39.31 5.87L39.37 5.92L39.44 5.97L39.51 6.02L39.58 6.08L39.65 6.13L39.72 6.18L39.8 6.23L39.87 6.27L39.95 6.32L40.02 6.37L40.1 6.42L40.17 6.46L40.25 6.5L40.32 6.55L40.4 6.59L40.47 6.63L40.55 6.66L40.62 6.7L40.69 6.73L40.76 6.76L40.82 6.79L40.89 6.82L40.95 6.84L41.01 6.86L41.07 6.88L41.12 6.9L41.18 6.91L41.22 6.92L41.27 6.92L41.31 6.93L41.36 6.94L41.41 6.94L41.46 6.95L41.51 6.96L41.57 6.97L41.62 6.99L41.68 7L41.74 7.01L41.8 7.03L41.87 7.04L41.93 7.06L42 7.08L42.06 7.1L42.13 7.11L42.2 7.13L42.33 7.17L42.4 7.19L42.47 7.21L42.54 7.23L42.61 7.24L42.68 7.26L42.75 7.28L42.82 7.3L42.89 7.31L42.96 7.33L43.03 7.35L43.1 7.36L43.16 7.38L43.23 7.39L43.29 7.4L43.35 7.41L43.42 7.42L43.48 7.43L43.53 7.44L43.59 7.44L43.65 7.45L43.7 7.45L43.75 7.45L43.79 7.45L43.81 7.45L43.84 7.45L43.89 7.45L43.96 7.46L44.04 7.46L44.12 7.48L44.21 7.49L44.31 7.51L44.41 7.53L44.52 7.55L44.63 7.58L44.75 7.61L44.88 7.64L45 7.67L45.14 7.71L45.27 7.74L45.41 7.78L45.55 7.82L45.69 7.86L45.83 7.91L45.97 7.95L46.11 8L46.26 8.04L46.4 8.09L46.54 8.13L46.68 8.18L46.81 8.23L46.95 8.28L47.08 8.32L47.2 8.37L47.33 8.42L47.44 8.47L47.56 8.51L47.67 8.56L47.77 8.6L47.86 8.65L47.95 8.69L48.03 8.73L48.1 8.77L48.17 8.81L48.22 8.85L48.27 8.88L48.31 8.92L48.36 8.96L48.41 9L48.47 9.05L48.53 9.1L48.59 9.15L48.66 9.2L48.73 9.26L48.8 9.32L48.88 9.38L48.95 9.44L49.03 9.5L49.11 9.56L49.19 9.63L49.28 9.7L49.36 9.76L49.45 9.83L49.54 9.9L49.62 9.96L49.71 10.03L49.8 10.1L49.88 10.16L49.97 10.23L50.06 10.29L50.14 10.36L50.22 10.42L50.31 10.48L50.39 10.54L50.47 10.59L50.54 10.64L50.62 10.7L50.69 10.74L50.76 10.79L50.82 10.83L50.89 10.87L50.95 10.9L51 10.94L51.05 10.96L51.1 10.99L51.14 11.01L51.19 11.02L51.24 11.04L51.3 11.06L51.37 11.07L51.44 11.09L51.52 11.11L51.61 11.12L51.7 11.14L51.8 11.16L51.9 11.17L52.01 11.19L52.12 11.21L52.24 11.23L52.35 11.24L52.48 11.26L52.6 11.28L52.72 11.3L52.85 11.31L52.98 11.33L53.1 11.35L53.23 11.37L53.36 11.39L53.49 11.4L53.62 11.42L53.74 11.44L53.86 11.46L53.99 11.48L54.11 11.5L54.22 11.52L54.33 11.54L54.44 11.56L54.55 11.58L54.65 11.6L54.74 11.62L54.83 11.64L54.91 11.67L54.99 11.69L55.06 11.71L55.13 11.73L55.18 11.76L55.24 11.78L55.3 11.81L55.36 11.85L55.44 11.89L55.51 11.93L55.59 11.98L55.68 12.03L55.77 12.08L55.86 12.14L55.96 12.2L56.06 12.26L56.16 12.33L56.26 12.39L56.37 12.46L56.48 12.53L56.58 12.61L56.69 12.68L56.8 12.75L56.91 12.82L57.02 12.9L57.13 12.97L57.24 13.05L57.35 13.12L57.45 13.19L57.55 13.26L57.66 13.33L57.75 13.4L57.85 13.46L57.94 13.53L58.03 13.59L58.11 13.65L58.19 13.7L58.27 13.75L58.34 13.8L58.41 13.85L58.47 13.89L58.52 13.92L58.57 13.96L58.61 13.98L58.64 14L58.68 14.03L58.74 14.06L58.82 14.1L58.92 14.15L59.03 14.2L59.16 14.26L59.3 14.32L59.46 14.39L59.63 14.47L59.81 14.55L60 14.63L60.2 14.72L60.41 14.81L60.63 14.9L60.85 14.99L61.08 15.09L61.31 15.19L61.54 15.29L61.77 15.39L62.01 15.49L62.24 15.59L62.47 15.68L62.7 15.78L62.92 15.87L63.14 15.97L63.36 16.06L63.56 16.14L63.76 16.23L63.95 16.3L64.12 16.38L64.29 16.45L64.44 16.51L64.58 16.57L64.71 16.62L64.81 16.67L64.9 16.7L65.03 16.76L65.07 16.78L65.05 16.78L65.03 16.78L65.01 16.78L64.98 16.78L64.95 16.78L64.91 16.78L64.87 16.78L64.83 16.79L64.78 16.79L64.73 16.8L64.68 16.8L64.62 16.81L64.56 16.82L64.5 16.83L64.44 16.84L64.38 16.85L64.31 16.87L64.25 16.88L64.18 16.9L64.12 16.92L64.05 16.95L63.98 16.97L63.91 17L63.85 17.03L63.78 17.06L63.72 17.09L63.65 17.13L63.59 17.17L63.53 17.21L63.47 17.26L63.41 17.31L63.36 17.36L63.3 17.41L63.25 17.47L63.21 17.53L63.17 17.6L63.13 17.67L63.09 17.74L63.06 17.81L63.02 17.89L62.99 17.97L62.96 18.04L62.92 18.12L62.89 18.2L62.86 18.28L62.83 18.35L62.79 18.43L62.76 18.51L62.73 18.58L62.7 18.66L62.67 18.73L62.64 18.81L62.61 18.88L62.59 18.95L62.56 19.03L62.53 19.1L62.51 19.17L62.48 19.24L62.46 19.31L62.44 19.37L62.42 19.44L62.4 19.5L62.38 19.57L62.36 19.63L62.35 19.69L62.33 19.74L62.32 19.8L62.31 19.85L62.29 19.91L62.29 19.96L62.28 20.01L62.27 20.05L62.27 20.1L62.26 20.14L62.26 20.18L62.26 20.22L62.27 20.25L62.27 20.28L62.27 20.34L62.26 20.41L62.23 20.48L62.19 20.55L62.13 20.63L62.07 20.71L61.99 20.79L61.9 20.88L61.8 20.97L61.69 21.06L61.57 21.15L61.44 21.24L61.31 21.34L61.17 21.43L61.03 21.53L60.88 21.63L60.73 21.73L60.58 21.82L60.43 21.92L60.27 22.02L60.11 22.12L59.96 22.22L59.8 22.32L59.65 22.42L59.5 22.51L59.35 22.61L59.21 22.7L59.08 22.79L58.95 22.88L58.83 22.97L58.71 23.05L58.6 23.13L58.51 23.21L58.42 23.29L58.35 23.36L58.28 23.43L58.23 23.49L58.2 23.55L58.17 23.61L58.16 23.66L58.16 23.69L58.16 23.72L58.15 23.75L58.13 23.78L58.11 23.82L58.09 23.86L58.07 23.9L58.04 23.94L58 23.99L57.97 24.03L57.93 24.08L57.89 24.13L57.85 24.18L57.8 24.24L57.75 24.29L57.7 24.35L57.65 24.41L57.6 24.47L57.54 24.53L57.48 24.59L57.43 24.65L57.37 24.72L57.3 24.78L57.24 24.85L57.18 24.92L57.12 24.98L57.05 25.05L56.99 25.12L56.93 25.19L56.86 25.26L56.8 25.34L56.73 25.41L56.67 25.48L56.61 25.55L56.55 25.63L56.49 25.7L56.43 25.77L56.37 25.85L56.31 25.92L56.25 25.99L56.2 26.06L56.15 26.13L56.11 26.2L56.06 26.27L56.02 26.33L55.97 26.4L55.93 26.47L55.89 26.54L55.86 26.6L55.82 26.67L55.78 26.73L55.75 26.8L55.72 26.86L55.69 26.92L55.66 26.98L55.63 27.05L55.6 27.11L55.58 27.16L55.56 27.22L55.53 27.28L55.51 27.33L55.49 27.39L55.47 27.44L55.46 27.49L55.44 27.54L55.43 27.59L55.41 27.64L55.4 27.68L55.39 27.73L55.38 27.77L55.37 27.81L55.37 27.85L55.36 27.88L55.35 27.92L55.35 27.95L55.35 27.98L55.35 28.01L55.35 28.04L55.35 28.06L55.35 28.08L55.35 28.11L55.35 28.14L55.35 28.17L55.34 28.2L55.34 28.23L55.33 28.27L55.33 28.31L55.32 28.35L55.31 28.39L55.3 28.43L55.29 28.48L55.28 28.53L55.26 28.58L55.25 28.63L55.24 28.68L55.22 28.73L55.21 28.79L55.19 28.85L55.18 28.9L55.16 28.96L55.15 29.03L55.13 29.09L55.12 29.15L55.1 29.21L55.09 29.28L55.07 29.34L55.06 29.41L55.05 29.48L55.03 29.54L55.02 29.61L55.01 29.68L55 29.75L54.99 29.82L54.98 29.89L54.97 29.96L54.96 30.03L54.96 30.1L54.95 30.17L54.95 30.24L54.95 30.31L54.95 30.37L54.95 30.43L54.96 30.49L54.96 30.55L54.97 30.6L54.97 30.66L54.98 30.72L54.99 30.78L55 30.83L55.01 30.89L55.02 30.94L55.03 31L55.05 31.05L55.06 31.11L55.07 31.16L55.09 31.21L55.1 31.26L55.12 31.31L55.13 31.36L55.15 31.41L55.16 31.46L55.18 31.51L55.19 31.56L55.21 31.6L55.22 31.65L55.23 31.69L55.25 31.73L55.26 31.77L55.27 31.81L55.29 31.85L55.3 31.89L55.31 31.93L55.32 31.96L55.32 32L55.33 32.03L55.34 32.06L55.34 32.09L55.35 32.12L55.35 32.14L55.35 32.17L55.35 32.19L55.35 32.22L55.34 32.25L55.34 32.28L55.34 32.32L55.33 32.35L55.32 32.39L55.32 32.44L55.31 32.48L55.3 32.53L55.29 32.57L55.29 32.62L55.28 32.67L55.27 32.73L55.26 32.78L55.25 32.83L55.24 32.89L55.23 32.95L55.22 33.01L55.21 33.07L55.2 33.13L55.2 33.19L55.19 33.25L55.18 33.31L55.17 33.37L55.17 33.44L55.16 33.5L55.16 33.56L55.15 33.62L55.15 33.69L55.15 33.75L55.15 33.81L55.15 33.88L55.15 33.94L55.15 34L55.15 34.06L55.16 34.12L55.16 34.18L55.17 34.24L55.18 34.3L55.2 34.36L55.21 34.43L55.23 34.49L55.24 34.56L55.26 34.62L55.28 34.68L55.3 34.74L55.33 34.8L55.35 34.86L55.37 34.92L55.4 34.98L55.42 35.03L55.45 35.09L55.48 35.14L55.5 35.19L55.53 35.24L55.56 35.3L55.58 35.34L55.61 35.39L55.64 35.44L55.66 35.49L55.69 35.53L55.72 35.58L55.74 35.62L55.77 35.66L55.79 35.7L55.81 35.74L55.84 35.78L55.86 35.82L55.88 35.85L55.9 35.89L55.91 35.92L55.93 35.96L55.94 35.99L55.96 36.02L55.97 36.05L55.98 36.08L55.98 36.11L55.99 36.14L55.99 36.17L55.99 36.19L56 36.22L56 36.25L55.99 36.28L55.99 36.31L55.99 36.34L55.99 36.38L55.99 36.42L55.98 36.46L55.98 36.5L55.98 36.54L55.97 36.59L55.97 36.63L55.96 36.68L55.96 36.73L55.95 36.78L55.95 36.83L55.95 36.88L55.94 36.94L55.94 36.99L55.93 37.05L55.93 37.1L55.93 37.16L55.92 37.22L55.92 37.28L55.92 37.34L55.92 37.4L55.92 37.47L55.92 37.53L55.92 37.59L55.92 37.66L55.93 37.72L55.93 37.79L55.94 37.85L55.94 37.92L55.95 37.99L55.96 38.05L55.97 38.12L55.98 38.19L55.99 38.25L56.01 38.32L56.02 38.39L56.04 38.46L56.06 38.53L56.08 38.6L56.1 38.67L56.12 38.74L56.14 38.81L56.16 38.88L56.19 38.94L56.21 39.01L56.24 39.08L56.26 39.14L56.28 39.21L56.31 39.27L56.34 39.34L56.36 39.4L56.39 39.46L56.41 39.52L56.44 39.58L56.46 39.64L56.48 39.7L56.51 39.76L56.53 39.81L56.55 39.86L56.57 39.92L56.59 39.97L56.61 40.02L56.63 40.06L56.65 40.11L56.67 40.16L56.68 40.2L56.69 40.24L56.71 40.28L56.72 40.31L56.72 40.35L56.73 40.38L56.74 40.41L56.74 40.44L56.74 40.47L56.74 40.52L56.74 40.57L56.74 40.66L56.74 40.71L56.74 40.75L56.74 40.8L56.74 40.84L56.74 40.88L56.74 40.93L56.74 40.98L56.75 41.02L56.75 41.07L56.75 41.12L56.76 41.17L56.76 41.22L56.77 41.28L56.78 41.33L56.78 41.39L56.79 41.45L56.8 41.51L56.82 41.58L56.83 41.65L56.84 41.72L56.86 41.8L56.88 41.88L56.9 41.96L56.92 42.05L56.94 42.14L56.96 42.24L56.99 42.34L57.02 42.44L57.05 42.56L57.08 42.67L57.12 42.79L57.15 42.92L57.19 43.06L57.23 43.2L57.28 43.34L57.33 43.49L57.34 43.55L57.36 43.61L57.38 43.67L57.41 43.73L57.43 43.79L57.45 43.85L57.48 43.9L57.5 43.96L57.53 44.02L57.55 44.07L57.58 44.13L57.61 44.18L57.64 44.24L57.67 44.29L57.7 44.34L57.73 44.4L57.76 44.45L57.79 44.5L57.83 44.55L57.86 44.6L57.89 44.65L57.93 44.7L57.96 44.75L58 44.8L58.03 44.85L58.07 44.9L58.1 44.94L58.14 44.99L58.18 45.03L58.22 45.08L58.25 45.13L58.29 45.17L58.33 45.21L58.37 45.26L58.41 45.3L58.45 45.34L58.48 45.38L58.52 45.43L58.56 45.47L58.6 45.51L58.67 45.57L58.73 45.63L58.79 45.69L58.86 45.75L58.92 45.81L58.98 45.86L59.05 45.92L59.11 45.97L59.17 46.02L59.23 46.07L59.29 46.12L59.35 46.17L59.41 46.21L59.47 46.25L59.52 46.3L59.58 46.34L59.64 46.38L59.69 46.41L59.74 46.45L59.79 46.48L59.84 46.52L59.89 46.55L59.93 46.58L59.98 46.61L60.02 46.63L60.06 46.66L60.09 46.68L60.13 46.7L60.16 46.72L60.19 46.74L60.22 46.76L60.25 46.77L60.27 46.78L60.29 46.8L60.31 46.81L60.32 46.81L60.33 46.82L60.34 46.82L60.35 46.83L60.35 46.85L60.37 46.88L60.41 46.91L60.45 46.94L60.5 46.97L60.57 47L60.64 47.03L60.73 47.06L60.82 47.09L60.92 47.13L61.02 47.16L61.13 47.2L61.25 47.23L61.37 47.27L61.5 47.3L61.63 47.34L61.76 47.37L61.9 47.41L62.03 47.45L62.3 47.52L62.44 47.56L62.58 47.59L62.71 47.63L62.84 47.66L62.96 47.7L63.09 47.74L63.2 47.77L63.32 47.81L63.42 47.84L63.52 47.87L63.61 47.91L63.69 47.94L63.77 47.97L63.83 48L63.89 48.03L63.93 48.06L63.96 48.09L63.98 48.11L63.99 48.14L63.93 48.17L63.9 48.19L63.87 48.21L63.83 48.23L63.78 48.26L63.73 48.28L63.68 48.31L63.62 48.35L63.56 48.38L63.49 48.42L63.42 48.46L63.35 48.5L63.28 48.54L63.21 48.58L63.13 48.62L63.06 48.67L62.98 48.71L62.9 48.76L62.83 48.8L62.75 48.85L62.68 48.89L62.6 48.94L62.53 48.98L62.46 49.02L62.39 49.06L62.33 49.1L62.26 49.14L62.2 49.18L62.15 49.22L62.1 49.25L62.05 49.28L62.01 49.31L61.97 49.34L61.94 49.36L61.92 49.38L61.9 49.4L61.89 49.41L61.85 49.47L61.83 49.5L61.81 49.53L61.78 49.57L61.75 49.61L61.72 49.65L61.69 49.7L61.66 49.75L61.62 49.8L61.58 49.86L61.54 49.92L61.5 49.98L61.46 50.04L61.41 50.1L61.37 50.16L61.32 50.23L61.27 50.29L61.23 50.36L61.18 50.42L61.13 50.49L61.08 50.55L61.03 50.62L60.98 50.68L60.93 50.75L60.88 50.81L60.83 50.87L60.79 50.92L60.74 50.98L60.69 51.03L60.65 51.08L60.61 51.13L60.56 51.18L60.52 51.22L60.48 51.26L60.45 51.29L60.41 51.32L60.38 51.35L60.35 51.37L60.32 51.39L60.28 51.41L60.23 51.43L60.18 51.45L60.13 51.47L60.07 51.49L60 51.51L59.93 51.54L59.85 51.56L59.78 51.59L59.69 51.61L59.61 51.64L59.52 51.66L59.43 51.69L59.34 51.71L59.24 51.74L59.14 51.76L59.05 51.79L58.95 51.81L58.85 51.84L58.75 51.86L58.65 51.88L58.55 51.91L58.46 51.93L58.36 51.95L58.26 51.97L58.17 51.99L58.08 52.01L57.99 52.02L57.91 52.04L57.83 52.06L57.75 52.07L57.67 52.08L57.6 52.09L57.54 52.1L57.48 52.11L57.42 52.12L57.37 52.12L57.33 52.13L57.29 52.13L57.28 52.13L57.27 52.13L57.26 52.12L57.26 52.12L57.24 52.12L57.24 52.12L57.23 52.12L57.22 52.12L57.22 52.12L57.22 52.12L57.21 52.12L57.2 52.11L57.18 52.12L57.15 52.12L57.13 52.13L57.1 52.14L57.07 52.16L57.03 52.18L57 52.2L56.96 52.22L56.92 52.25L56.88 52.28L56.84 52.31L56.8 52.34L56.75 52.38L56.71 52.42L56.66 52.46L56.61 52.5L56.56 52.54L56.51 52.58L56.46 52.62L56.41 52.67L56.35 52.71L56.3 52.76L56.25 52.8L56.19 52.85L56.14 52.9L56.08 52.94L56.03 52.99L55.97 53.04L55.92 53.08L55.86 53.12L55.81 53.17L55.75 53.21L55.7 53.25L55.65 53.29L55.6 53.33L55.54 53.37L55.49 53.4L55.44 53.43L55.4 53.46L55.35 53.49L55.3 53.52L55.24 53.55L55.17 53.58L55.1 53.61L55.02 53.63L54.94 53.66L54.85 53.69L54.76 53.72L54.66 53.74L54.56 53.77L54.46 53.8L54.35 53.82L54.24 53.85L54.13 53.88L54.02 53.9L53.91 53.93L53.79 53.96L53.68 53.98L53.56 54.01L53.45 54.03L53.33 54.05L53.22 54.08L53.11 54.1L53 54.12L52.89 54.15L52.79 54.17L52.69 54.19L52.59 54.21L52.49 54.23L52.41 54.25L52.32 54.27L52.24 54.29L52.17 54.3L52.1 54.32L52.04 54.34L51.99 54.35L51.94 54.37L51.9 54.38L51.87 54.4L51.85 54.41L51.83 54.43L51.8 54.44L51.77 54.47L51.74 54.49L51.69 54.52L51.65 54.56L51.6 54.59L51.55 54.63L51.49 54.68L51.43 54.72L51.37 54.77L51.3 54.82L51.23 54.87L51.16 54.92L51.09 54.98L51.02 55.04L50.94 55.09L50.86 55.15L50.79 55.21L50.71 55.27L50.63 55.33L50.55 55.4L50.47 55.46L50.4 55.52L50.32 55.58L50.24 55.64L50.17 55.7L50.09 55.76L50.02 55.82L49.95 55.87L49.89 55.93L49.82 55.98L49.76 56.03L49.7 56.08L49.65 56.13L49.6 56.17L49.55 56.22L49.51 56.26L49.47 56.29L49.43 56.32L49.4 56.35L49.36 56.38L49.32 56.42L49.27 56.45L49.21 56.48L49.15 56.51L49.08 56.54L49.02 56.57L48.94 56.6L48.87 56.62L48.78 56.65L48.7 56.68L48.62 56.71L48.53 56.74L48.44 56.77L48.35 56.79L48.25 56.82L48.16 56.84L48.07 56.87L47.97 56.89L47.88 56.92L47.78 56.94L47.69 56.96L47.59 56.98L47.5 57L47.41 57.02L47.32 57.04L47.23 57.06L47.15 57.07L47.07 57.09L46.99 57.1L46.92 57.11L46.84 57.12L46.78 57.13L46.71 57.14L46.66 57.15L46.6 57.15L46.56 57.16L46.51 57.16L46.48 57.16L46.44 57.16L46.43 57.16L46.39 57.16L46.36 57.17L46.32 57.18L46.28 57.19L46.23 57.21L46.18 57.23L46.12 57.26L46.06 57.29L46 57.32L45.93 57.35L45.86 57.38L45.79 57.42L45.72 57.46L45.64 57.5L45.56 57.55L45.48 57.59L45.39 57.63L45.31 57.68L45.22 57.72L45.13 57.77L45.04 57.82L44.95 57.86L44.86 57.91L44.76 57.95L44.67 57.99L44.58 58.04L44.49 58.08L44.39 58.12L44.3 58.16L44.21 58.19L44.12 58.22L44.03 58.25L43.94 58.28L43.86 58.31L43.77 58.33L43.69 58.35L43.61 58.36L43.53 58.37L43.46 58.38L43.38 58.38L43.36 58.38L43.35 58.38L43.33 58.38L43.32 58.38L43.31 58.38L43.29 58.38L43.25 58.38L43.18 58.38L43.1 58.38L43.03 58.38L42.96 58.39L42.88 58.39L42.81 58.4L42.74 58.41L42.66 58.42L42.59 58.43L42.51 58.44L42.44 58.45L42.37 58.46L42.29 58.48L42.22 58.49L42.15 58.51L42.08 58.53L42.01 58.54L41.94 58.56L41.87 58.58L41.8 58.6L41.74 58.62L41.67 58.64L41.61 58.67L41.55 58.69L41.49 58.71L41.43 58.74L41.37 58.76L41.32 58.79L41.26 58.81L41.21 58.84L41.16 58.86L41.12 58.89L41.08 58.92L41.04 58.95L41 58.97L40.96 59L40.93 59.03L40.9 59.06L40.88 59.09L40.85 59.12L40.83 59.15L40.8 59.18L40.76 59.21L40.71 59.24L40.66 59.26L40.61 59.29L40.55 59.32L40.48 59.35L40.41 59.38L40.34 59.41L40.26 59.44L40.18 59.46L40.09 59.49L40.01 59.52L39.92 59.55L39.83 59.57L39.73 59.6L39.64 59.63L39.54 59.65L39.45 59.68L39.35 59.7L39.26 59.73L39.16 59.76L39.06 59.78L38.97 59.81L38.88 59.83L38.78 59.86L38.69 59.88L38.61 59.9L38.52 59.93L38.44 59.95L38.36 59.98L38.29 60L38.22 60.02L38.15 60.05L38.09 60.07L38.03 60.09L37.98 60.11L37.94 60.14L37.9 60.16L37.85 60.18L37.79 60.21L37.71 60.24L37.61 60.27L37.5 60.3L37.38 60.33L37.24 60.37L37.1 60.41L36.94 60.45L36.77 60.49L36.59 60.53L36.41 60.57L36.22 60.61L36.02 60.66L35.82 60.7L35.61 60.75L35.4 60.79L35.19 60.83L34.98 60.88L34.77 60.92L34.55 60.97L34.35 61.01L34.14 61.05L33.94 61.09L33.74 61.13L33.55 61.17L33.36 61.21L33.18 61.24L33.01 61.28L32.85 61.31L32.7 61.34L32.57 61.36L32.44 61.39L32.33 61.41L32.23 61.43L32.15 61.44L32.09 61.45L32.04 61.46L32 61.47L29.38 60.01L29.34 60.01L29.31 60.01L29.3 60.02L29.27 60.02L29.23 60.02L29.21 60.02L29.19 60.02L29.17 60.02L29.15 60.02L29.13 60.02L29.1 60.03L29.08 60.03L29.05 60.03L29.02 60.03L29 60.03L28.97 60.03L28.94 60.03L28.91 60.03L28.88 60.03L28.85 60.03L28.82 60.03L28.78 60.04L28.75 60.04L28.72 60.04L28.68 60.04L28.65 60.04L28.61 60.04L28.58 60.04L28.54 60.04L28.5 60.04L28.45 60.04L28.4 60.04L28.34 60.04L28.29 60.04L28.23 60.04L28.17 60.03L28.12 60.03L28.06 60.03L28 60.03L27.95 60.03L27.89 60.02L27.83 60.02L27.77 60.02L27.71 60.01L27.66 60.01L27.6 60L27.54 60L27.49 59.99L27.43 59.99L27.37 59.98L27.32 59.98L27.26 59.97L27.21 59.96L27.16 59.95L27.11 59.94L27.05 59.93L27 59.92L26.96 59.91L26.91 59.9L26.86 59.89L26.82 59.88L26.77 59.87L26.73 59.85L26.69 59.84L26.65 59.82L26.61 59.81L26.58 59.79L26.54 59.78L26.51 59.76L26.48 59.74L26.43 59.71L26.37 59.68L26.31 59.65L26.25 59.61L26.18 59.58L26.1 59.55L26.02 59.52L25.94 59.48L25.86 59.45L25.77 59.42L25.68 59.38L25.59 59.35L25.5 59.31L25.4 59.28L25.31 59.25L25.21 59.21L25.11 59.18L25.02 59.15L24.82 59.08L24.72 59.05L24.62 59.01L24.53 58.98L24.43 58.95L24.34 58.91L24.25 58.88L24.16 58.85L24.07 58.81L23.99 58.78L23.91 58.75L23.83 58.72L23.76 58.69L23.69 58.66L23.62 58.63L23.56 58.59L23.51 58.56L23.46 58.53L23.41 58.51L23.37 58.48L23.34 58.45L23.31 58.42L23.27 58.38L23.22 58.34L23.18 58.3L23.13 58.25L23.01 58.14L22.95 58.08L22.89 58.02L22.82 57.96L22.75 57.89L22.67 57.82L22.6 57.75L22.52 57.68L22.44 57.6L22.36 57.53L22.28 57.45L22.19 57.38L22.11 57.3L22.02 57.23L21.93 57.15L21.85 57.08L21.76 57L21.67 56.93L21.59 56.86L21.5 56.79L21.42 56.72L21.33 56.66L21.25 56.59L21.17 56.53L21.09 56.48L21.01 56.43L20.93 56.38L20.86 56.33L20.78 56.29L20.72 56.25L20.65 56.22L20.59 56.2L20.53 56.18L20.47 56.16L20.41 56.15L20.35 56.13L20.29 56.12L20.22 56.1L20.14 56.09L20.06 56.07L19.98 56.05L19.89 56.04L19.8 56.02L19.7 56L19.61 55.98L19.51 55.96L19.4 55.94L19.3 55.92L19.19 55.9L19.09 55.88L18.98 55.86L18.87 55.84L18.76 55.82L18.65 55.81L18.53 55.79L18.42 55.77L18.31 55.75L18.2 55.73L18.09 55.72L17.99 55.7L17.88 55.68L17.78 55.67L17.67 55.66L17.57 55.64L17.48 55.63L17.38 55.62L17.29 55.61L17.2 55.6L17.12 55.59L17.04 55.59L16.96 55.58L16.89 55.58L16.82 55.58L16.76 55.57L16.71 55.57L16.65 55.57L16.59 55.57L16.52 55.55L16.46 55.54L16.39 55.52L16.32 55.5L16.25 55.47L16.17 55.44L16.1 55.41L16.02 55.37L15.94 55.34L15.86 55.3L15.78 55.25L15.7 55.21L15.62 55.16L15.53 55.11L15.45 55.06L15.37 55.01L15.29 54.96L15.2 54.9L15.12 54.85L15.04 54.79L14.96 54.74L14.89 54.68L14.81 54.62L14.73 54.57L14.66 54.51L14.59 54.46L14.52 54.4L14.45 54.35L14.39 54.3L14.33 54.25L14.27 54.2L14.21 54.15L14.16 54.1L14.11 54.06L14.06 54.02L14.02 53.98L13.98 53.94L13.95 53.91L13.91 53.88L13.86 53.85L13.8 53.81L13.74 53.78L13.67 53.75L13.59 53.72L13.5 53.69L13.41 53.66L13.31 53.63L13.2 53.6L13.09 53.57L12.98 53.53L12.86 53.5L12.74 53.47L12.61 53.44L12.48 53.41L12.35 53.38L12.22 53.35L12.08 53.32L11.95 53.28L11.81 53.25L11.68 53.22L11.54 53.19L11.41 53.16L11.28 53.12L11.14 53.09L11.02 53.06L10.89 53.02L10.77 52.99L10.65 52.95L10.54 52.92L10.43 52.88L10.32 52.84L10.22 52.81L10.13 52.77L10.05 52.73L9.97 52.69L9.9 52.66L9.83 52.62L9.78 52.58L9.73 52.53L9.68 52.49L9.62 52.45L9.56 52.41L9.5 52.37L9.44 52.33L9.38 52.28L9.31 52.24L9.25 52.2L9.18 52.16L9.11 52.11L9.04 52.07L8.98 52.03L8.91 51.98L8.84 51.94L8.77 51.89L8.7 51.85L8.64 51.81L8.57 51.76L8.5 51.72L8.44 51.67L8.38 51.63L8.32 51.58L8.26 51.54L8.2 51.49L8.14 51.45L8.09 51.4L8.04 51.36L7.99 51.31L7.95 51.27L7.9 51.23L7.87 51.18L7.83 51.14L7.8 51.09L7.77 51.05L7.75 51L7.73 50.96L7.71 50.91L7.7 50.87L7.7 50.83L7.69 50.8L7.69 50.78L7.68 50.76L7.68 50.74L7.67 50.73L7.65 50.71L7.64 50.69L7.63 50.67L7.61 50.66L7.59 50.65L7.57 50.63L7.55 50.62L7.53 50.61L7.5 50.6L7.48 50.58L7.45 50.57L7.42 50.56L7.39 50.56L7.36 50.55L7.33 50.54L7.3 50.53L7.26 50.53L7.23 50.52L7.19 50.51L7.16 50.51L7.12 50.5L7.08 50.5L7.04 50.5L7 50.49L6.96 50.49L6.92 50.49L6.88 50.49L6.83 50.48L6.79 50.48L6.74 50.48L6.7 50.48L6.65 50.48L6.61 50.48L6.56 50.48L6.52 50.48L6.5 50.48L6.47 50.48L6.45 50.48L6.41 50.48L6.39 50.48L6.34 50.48L6.32 50.48L6.3 50.48L6.25 50.48L6.21 50.48L6.14 50.48L6.08 50.48L6.01 50.49L5.97 50.49L5.95 50.49L5.9 50.49L5.86 50.49L5.82 50.49L5.77 50.49L5.75 50.49L5.73 50.49L5.69 50.49L5.67 50.49L5.62 50.49L5.6 50.49L5.57 50.49L5.55 50.49L5.53 50.49L5.5 50.49L5.48 50.49L5.46 50.49L5.43 50.49L5.41 50.49L5.39 50.49L5.36 50.48L5.34 50.48L5.32 50.48L5.3 50.48L5.28 50.48L5.26 50.48L5.24 50.48L5.22 50.48L5.2 50.47L5.18 50.47L5.16 50.47L5.14 50.47L5.12 50.47L5.1 50.46L5.08 50.46L5.06 50.46L5.04 50.46L5.03 50.45L5.01 50.45L4.99 50.45L4.98 50.44L4.96 50.44L4.95 50.44L4.93 50.43L4.92 50.43L4.9 50.43L4.89 50.42L4.88 50.42L4.86 50.41L4.81 50.39L4.76 50.37L4.7 50.35L4.63 50.33L4.56 50.3L4.49 50.27L4.41 50.24L4.33 50.21L4.15 50.15L4.06 50.12L3.97 50.08L3.87 50.05L3.77 50.01L3.68 49.98L3.58 49.94L3.48 49.9L3.37 49.87L3.27 49.83L3.17 49.79L3.07 49.75L2.98 49.72L2.88 49.68L2.78 49.64L2.69 49.6L2.6 49.57L2.51 49.53L2.43 49.49L2.35 49.46L2.27 49.43L2.2 49.39L2.13 49.36L2.07 49.33L2.01 49.3L1.96 49.27L1.91 49.24L1.87 49.22L1.84 49.19L1.81 49.17L1.8 49.15L1.78 49.13L1.76 49.1L1.73 49.08L1.7 49.05L1.66 49.03L1.62 49L1.58 48.97L1.53 48.94L1.49 48.91L1.43 48.88L1.38 48.84L1.32 48.81L1.27 48.78L1.21 48.74L1.14 48.71L1.08 48.68L1.02 48.64L0.96 48.61L0.89 48.57L0.83 48.54L0.77 48.51L0.7 48.48L0.64 48.45L0.58 48.42L0.52 48.39L0.47 48.36L0.41 48.33L0.36 48.31L0.31 48.28L0.26 48.26L0.22 48.24L0.18 48.22L0.14 48.2L0.11 48.18L0.08 48.17L0.05 48.16L0.04 48.15L0.01 48.14L0.02 48.1L0.03 48.08L0.03 48.04L0.04 48L0.06 47.96L0.07 47.91L0.08 47.85L0.1 47.79L0.11 47.72L0.13 47.65L0.15 47.58L0.16 47.5L0.18 47.42L0.2 47.33L0.22 47.24L0.24 47.15L0.26 47.06L0.28 46.97L0.3 46.88L0.32 46.78L0.34 46.69L0.35 46.59L0.37 46.5L0.39 46.4L0.4 46.31L0.42 46.22L0.43 46.13L0.44 46.04L0.46 45.96L0.47 45.87L0.47 45.8L0.48 45.72L0.48 45.65L0.49 45.58L0.49 45.52L0.49 45.46L0.48 45.4L0.48 45.36L0.47 45.31L0.46 45.26L0.45 45.21L0.44 45.16L0.43 45.11L0.42 45.05L0.4 44.99L0.39 44.94L0.38 44.88L0.36 44.81L0.35 44.75L0.33 44.69L0.32 44.62L0.3 44.56L0.29 44.49L0.27 44.42L0.25 44.36L0.24 44.29L0.22 44.22L0.21 44.15L0.19 44.08L0.18 44.01L0.16 43.94L0.15 43.87L0.13 43.8L0.12 43.73L0.1 43.66L0.09 43.59L0.08 43.52L0.07 43.46L0.06 43.39L0.05 43.32L0.04 43.26L0.03 43.19L0.03 43.13L0.02 43.07L0.02 43L0.01 42.94L0.01 42.89L0.01 42.83L0.01 42.77L0.01 42.71L0.02 42.65L0.02 42.59L0.03 42.53L0.04 42.46L0.05 42.39L0.06 42.32L0.07 42.25L0.08 42.18L0.09 42.11L0.11 42.04L0.12 41.96L0.14 41.89L0.17 41.74L0.18 41.66L0.2 41.58L0.21 41.5L0.22 41.42L0.24 41.34L0.25 41.26L0.26 41.18L0.28 41.1L0.29 41.02L0.3 40.94L0.31 40.86L0.32 40.78L0.32 40.69L0.33 40.61L0.33 40.53L0.33 40.45L0.33 40.37L0.33 40.29L0.33 40.21L0.33 40.14L0.32 40.06L0.31 39.98L0.3 39.9L0.28 39.83L0.27 39.75L0.26 39.66L0.25 39.57L0.25 39.46L0.25 39.35L0.25 39.23L0.26 39.11L0.27 38.98L0.28 38.84L0.29 38.71L0.31 38.56L0.32 38.41L0.34 38.26L0.36 38.11L0.38 37.95L0.4 37.79L0.43 37.63L0.45 37.47L0.47 37.31L0.5 37.15L0.52 36.99L0.55 36.82L0.57 36.67L0.59 36.51L0.62 36.35L0.64 36.2L0.66 36.05L0.68 35.9L0.7 35.76L0.72 35.63L0.73 35.49L0.74 35.37L0.75 35.25L0.76 35.13L0.77 35.02L0.77 34.93L0.77 34.83L0.77 34.75L0.76 34.68L0.75 34.61L0.74 34.55L0.73 34.49L0.71 34.42L0.7 34.35L0.68 34.29L0.66 34.22L0.64 34.15L0.62 34.07L0.6 34L0.57 33.93L0.55 33.85L0.53 33.78L0.5 33.7L0.48 33.62L0.45 33.54L0.43 33.47L0.4 33.39L0.38 33.31L0.35 33.23L0.32 33.15L0.3 33.07L0.28 32.99L0.25 32.91L0.23 32.83L0.21 32.75L0.18 32.67L0.16 32.59L0.14 32.52L0.12 32.44L0.1 32.36L0.09 32.29L0.07 32.22L0.06 32.14L0.05 32.07L0.04 32L0.03 31.93L0.02 31.86L0.01 31.79L0.01 31.73L0.01 31.67L0.01 31.6L0.01 31.53L0.02 31.46L0.02 31.38L0.03 31.3L0.03 31.22L0.04 31.13L0.05 31.04L0.06 30.95L0.07 30.85L0.09 30.75L0.1 30.65L0.11 30.55L0.13 30.45L0.14 30.35L0.16 30.24L0.17 30.14L0.19 30.03L0.21 29.93L0.22 29.82L0.24 29.71L0.26 29.61L0.28 29.5L0.29 29.4L0.31 29.3L0.33 29.2L0.35 29.1L0.36 29L0.38 28.91L0.4 28.82L0.41 28.73L0.43 28.64L0.45 28.56L0.46 28.48L0.47 28.4L0.49 28.33L0.51 28.2L0.52 28.14L0.53 28.08L0.54 28.03L0.55 27.97L0.55 27.9L0.55 27.83L0.55 27.76L0.54 27.68L0.54 27.6L0.53 27.51L0.52 27.42L0.5 27.32L0.49 27.23L0.48 27.13L0.46 27.03L0.44 26.92L0.42 26.82L0.4 26.71L0.38 26.6L0.36 26.5L0.34 26.39L0.32 26.28L0.3 26.17L0.27 26.06L0.25 25.96L0.23 25.85L0.21 25.75L0.19 25.65L0.17 25.55L0.15 25.45L0.13 25.36L0.11 25.26L0.09 25.18L0.08 25.09L0.06 25.01L0.05 24.93L0.04 24.86L0.03 24.8L0.02 24.73L0.01 24.68L0.01 24.63L0.01 24.58L0.01 24.54L0.02 24.49L0.02 24.43L0.03 24.36L0.05 24.29L0.06 24.22L0.08 24.13L0.1 24.04L0.12 23.95L0.14 23.86L0.17 23.75L0.19 23.65L0.22 23.54L0.25 23.43L0.28 23.32L0.31 23.21L0.34 23.09L0.37 22.98L0.43 22.74L0.46 22.63L0.49 22.51L0.52 22.4L0.55 22.28L0.58 22.17L0.61 22.06L0.64 21.95L0.66 21.85L0.69 21.75L0.71 21.65L0.73 21.56L0.75 21.47L0.76 21.39L0.78 21.31L0.79 21.24L0.8 21.17L0.81 21.11L0.81 21.06L0.81 21.01L0.81 20.97L0.8 20.94L0.8 20.91L0.79 20.88L0.77 20.84L0.76 20.81L0.74 20.78L0.73 20.74L0.71 20.71L0.68 20.67L0.66 20.64L0.64 20.61L0.61 20.57L0.59 20.53L0.56 20.5L0.53 20.46L0.5 20.42L0.48 20.39L0.45 20.35L0.42 20.31L0.39 20.27L0.36 20.22L0.33 20.18L0.3 20.14L0.28 20.09L0.25 20.04L0.22 20L0.2 19.95L0.17 19.9L0.15 19.85L0.13 19.79L0.11 19.74L0.09 19.68L0.07 19.63L0.06 19.57L0.04 19.5L0.03 19.44L0.02 19.38L0.02 19.31L0.01 19.24L0.01 19.17L0.01 15.86L0.05 15.85L0.08 15.84L0.12 15.83L0.16 15.81L0.22 15.8L0.28 15.78L0.34 15.76L0.41 15.74L0.49 15.72L0.57 15.69L0.66 15.66L0.75 15.64L0.84 15.61L0.94 15.58L1.04 15.55L1.14 15.52L1.25 15.48L1.35 15.45L1.46 15.42L1.57 15.38L1.68 15.35L1.79 15.31L1.9 15.28L2.01 15.24L2.12 15.2L2.23 15.17L2.34 15.13L2.44 15.1L2.54 15.07L2.64 15.03L2.74 15L2.83 14.97L2.92 14.94L3 14.91L3.08 14.88L3.15 14.85L3.22 14.82L3.28 14.8L3.34 14.77L3.41 14.75L3.49 14.73L3.57 14.71L3.65 14.69L3.74 14.67L3.83 14.65L3.93 14.63L4.04 14.62L4.14 14.6L4.25 14.59L4.36 14.57L4.47 14.56L4.59 14.55L4.71 14.53L4.82 14.52L4.94 14.51L5.06 14.5L5.18 14.49L5.3 14.48L5.42 14.46L5.53 14.45L5.65 14.44L5.76 14.43L5.87 14.42L5.98 14.41L6.09 14.4L6.19 14.39L6.29 14.38L6.38 14.37L6.48 14.36L6.56 14.34L6.64 14.33L6.72 14.32L6.79 14.3L6.85 14.29L6.91 14.28L6.95 14.26L7 14.24L7.03 14.23L7.06 14.21L7.1 14.18L7.14 14.16L7.18 14.12L7.23 14.09L7.28 14.05L7.34 14L7.39 13.96L7.45 13.91L7.51 13.85L7.58 13.8L7.64 13.74L7.71 13.68L7.78 13.62L7.85 13.56L7.92 13.5L7.99 13.43L8.07 13.37L8.14 13.3L8.21 13.24L8.36 13.1L8.43 13.04L8.51 12.97L8.58 12.91L8.65 12.85L8.72 12.78L8.78 12.72L8.85 12.67L8.91 12.61L8.98 12.56L9.04 12.5L9.09 12.46L9.15 12.41L9.2 12.37L9.25 12.33L9.29 12.29L9.33 12.26L9.37 12.24L9.41 12.21L9.44 12.19L9.48 12.17L9.53 12.15L9.58 12.13L9.64 12.11L9.7 12.09L9.77 12.07L9.85 12.04L9.92 12.02L10 12L10.09 11.97L10.17 11.95L10.26 11.93L10.36 11.9L10.45 11.88L10.55 11.86L10.64 11.83L10.74 11.81L10.84 11.78L10.94 11.76L11.03 11.73L11.13 11.71L11.23 11.68L11.33 11.66L11.42 11.63L11.51 11.61L11.6 11.58L11.69 11.56L11.77 11.53L11.85 11.51L11.93 11.48L12 11.46L12.07 11.43L12.14 11.41L12.2 11.38L12.25 11.36L12.3 11.33L12.34 11.31L12.38 11.28L12.4 11.26L12.43 11.23L12.46 11.2L12.5 11.17L12.54 11.14L12.58 11.1L12.63 11.07L12.68 11.03L12.73 10.99L12.79 10.95L12.85 10.91L12.91 10.86L12.97 10.82L13.04 10.78L13.11 10.73L13.18 10.68L13.25 10.64L13.32 10.59L13.39 10.54L13.46 10.5L13.53 10.45L13.61 10.4L13.68 10.35L13.75 10.31L13.82 10.26L13.89 10.22L13.96 10.17L14.03 10.13L14.1 10.09L14.16 10.05L14.23 10.01L14.29 9.97L14.34 9.93L14.4 9.9L14.45 9.86L14.5 9.83L14.55 9.81L14.59 9.78L14.66 9.73L14.69 9.71L14.73 9.7L14.76 9.68L14.8 9.65L14.85 9.63L14.9 9.61L14.96 9.58L15.02 9.56L15.09 9.53L15.16 9.5L15.23 9.47L15.31 9.44L15.39 9.41L15.48 9.37L15.57 9.34L15.66 9.3L15.75 9.27L15.84 9.23L15.94 9.2L16.04 9.16L16.14 9.12L16.25 9.09L16.35 9.05L16.46 9.01L16.57 8.97L16.67 8.93L16.78 8.89L16.89 8.86L17 8.82L17.11 8.78L17.22 8.74L17.32 8.7L17.43 8.66L17.54 8.63L17.64 8.59L17.75 8.55L17.85 8.52L17.95 8.48L18.05 8.45L18.14 8.41L18.23 8.38L18.33 8.35L18.42 8.32L18.52 8.29L18.61 8.26L18.71 8.24L18.8 8.21L18.9 8.19L19 8.16L19.09 8.14L19.19 8.12L19.29 8.1L19.38 8.08L19.48 8.06L19.57 8.05L19.67 8.03L19.76 8.01L19.85 8L19.94 7.98L20.02 7.97L20.11 7.95L20.19 7.94L20.27 7.92L20.35 7.91L20.43 7.89L20.5 7.88L20.57 7.87L20.64 7.85L20.7 7.84L20.76 7.82L20.82 7.81L20.88 7.79L20.93 7.77L20.97 7.76L21.01 7.74L21.05 7.72L21.08 7.7L21.11 7.68L21.13 7.66L21.15 7.64L21.17 7.62L21.18 7.59L21.19 7.57L21.21 7.54L21.22 7.51L21.24 7.47L21.27 7.44L21.29 7.4L21.32 7.36L21.34 7.32L21.37 7.28L21.4 7.23L21.43 7.19L21.47 7.14L21.5 7.1L21.54 7.05L21.57 7.01L21.61 6.96L21.65 6.91L21.69 6.87L21.73 6.82L21.77 6.77L21.81 6.73L21.85 6.69L21.89 6.64L21.93 6.6L21.97 6.56L22.01 6.52L22.06 6.48L22.1 6.45L22.14 6.42L22.18 6.38L22.22 6.36L22.26 6.33L22.3 6.31L22.34 6.28L22.38 6.27L22.42 6.25L22.46 6.24L22.49 6.23L22.53 6.23L22.56 6.23L22.61 6.22L22.66 6.21L22.72 6.2L22.79 6.19L22.87 6.18L22.94 6.16L23.03 6.15L23.12 6.13L23.21 6.11L23.31 6.08L23.42 6.06L23.52 6.04L23.63 6.01L23.75 5.98L23.86 5.96L23.98 5.93L24.1 5.9L24.22 5.87L24.35 5.83L24.47 5.8L24.6 5.77L24.72 5.74L24.84 5.7L24.97 5.67L25.09 5.64L25.21 5.6L25.33 5.57L25.45 5.53L25.56 5.5L25.67 5.47L25.78 5.43L25.88 5.4L25.98 5.37L26.08 5.34L26.17 5.3L26.26 5.27L26.34 5.24L26.41 5.22L26.48 5.19L26.55 5.16L26.61 5.13L26.67 5.1L26.73 5.07L26.78 5.04L26.83 5L26.89 4.97L26.94 4.93L26.98 4.9L27.03 4.86L27.07 4.82L27.12 4.79L27.16 4.75L27.2 4.71L27.24 4.67L27.28 4.64L27.31 4.6L27.35 4.56L27.38 4.52L27.42 4.48L27.45 4.45L27.49 4.41L27.52 4.37L27.55 4.34L27.59 4.3L27.62 4.27L27.65 4.24L27.68 4.2L27.71 4.17L27.75 4.14L27.78 4.11L27.81 4.09L27.85 4.06L27.88 4.03L27.92 4.01L27.95 3.99L27.99 3.97L28.03 3.95L28.07 3.94L28.11 3.93L28.15 3.91L28.21 3.89L28.27 3.87L28.35 3.85L28.43 3.82L28.52 3.79L28.62 3.75L28.72 3.72L28.83 3.68L28.94 3.64L29.06 3.59L29.19 3.55L29.31 3.5L29.44 3.46L29.58 3.41L29.71 3.36L29.85 3.31L29.98 3.26L30.12 3.21L30.26 3.16L30.39 3.12L30.53 3.07L30.66 3.02L30.79 2.97L30.91 2.93L31.03 2.88L31.15 2.84L31.26 2.8L31.37 2.76L31.47 2.72L31.56 2.69L31.65 2.66L31.73 2.63L31.79 2.6L31.85 2.58L31.95 2.55L32 2.53L32.02 2.54L32.05 2.56ZM31.56 5.53L31.49 5.55L31.43 5.58L31.36 5.6L31.3 5.62L31.23 5.65L31.17 5.67L31.1 5.69L31.03 5.72L30.97 5.74L30.9 5.77L30.83 5.79L30.77 5.81L30.7 5.84L30.64 5.86L30.57 5.89L30.51 5.91L30.44 5.93L30.38 5.96L30.31 5.98L30.25 6L30.19 6.02L30.13 6.05L30.06 6.07L30 6.09L29.94 6.11L29.88 6.13L29.83 6.15L29.77 6.17L29.71 6.19L29.66 6.21L29.61 6.23L29.55 6.25L29.5 6.27L29.45 6.28L29.4 6.3L29.36 6.32L29.33 6.35L29.3 6.38L29.27 6.41L29.24 6.44L29.21 6.47L29.18 6.51L29.14 6.54L29.11 6.57L29.07 6.61L29.04 6.64L29 6.68L28.96 6.72L28.92 6.75L28.88 6.79L28.83 6.83L28.79 6.87L28.74 6.9L28.7 6.94L28.65 6.98L28.6 7.02L28.55 7.05L28.5 7.09L28.45 7.13L28.39 7.17L28.34 7.2L28.28 7.24L28.23 7.28L28.17 7.31L28.11 7.35L28.04 7.39L27.98 7.42L27.92 7.46L27.85 7.49L27.78 7.52L27.71 7.56L27.64 7.59L27.57 7.62L27.5 7.65L27.44 7.68L27.37 7.7L27.3 7.73L27.22 7.76L27.14 7.79L27.06 7.82L26.97 7.85L26.88 7.88L26.79 7.91L26.69 7.94L26.59 7.97L26.49 8L26.39 8.03L26.28 8.06L26.18 8.1L26.07 8.13L25.95 8.16L25.84 8.19L25.73 8.23L25.61 8.26L25.5 8.29L25.38 8.32L25.26 8.35L25.15 8.38L25.03 8.41L24.91 8.44L24.8 8.47L24.68 8.5L24.57 8.53L24.45 8.56L24.34 8.59L24.23 8.61L24.12 8.64L24.01 8.66L23.9 8.69L23.8 8.71L23.69 8.73L23.59 8.75L23.59 8.75L23.58 8.77L23.57 8.79L23.56 8.8L23.55 8.82L23.54 8.82L23.49 8.93L23.43 9.03L23.37 9.12L23.31 9.22L23.24 9.3L23.17 9.39L23.1 9.46L23.03 9.54L22.96 9.61L22.88 9.68L22.8 9.74L22.72 9.81L22.64 9.86L22.56 9.92L22.48 9.97L22.39 10.02L22.31 10.07L22.22 10.11L22.13 10.15L22.04 10.19L21.95 10.23L21.86 10.26L21.77 10.29L21.68 10.32L21.59 10.35L21.5 10.38L21.41 10.4L21.32 10.42L21.23 10.44L21.14 10.47L21.06 10.48L20.97 10.5L20.88 10.52L20.79 10.54L20.71 10.55L20.63 10.57L20.54 10.58L20.43 10.6L20.35 10.62L20.32 10.62L20.28 10.63L20.24 10.63L20.21 10.64L20.17 10.65L20.13 10.65L20.09 10.66L20.06 10.67L20.02 10.68L19.98 10.68L19.94 10.69L19.91 10.7L19.87 10.7L19.83 10.71L19.8 10.72L19.76 10.73L19.72 10.73L19.69 10.74L19.65 10.75L19.61 10.76L19.58 10.77L19.54 10.78L19.51 10.78L19.47 10.79L19.44 10.8L19.41 10.81L19.37 10.82L19.34 10.83L19.31 10.84L19.28 10.85L19.24 10.86L19.21 10.87L19.18 10.88L19.15 10.89L19.12 10.9L19.11 10.9L19.04 10.92L18.99 10.94L18.92 10.97L18.78 11.02L18.69 11.05L18.47 11.13L18.4 11.15L18.33 11.17L18.26 11.2L18.19 11.22L18.12 11.25L18.04 11.28L17.96 11.3L17.89 11.33L17.81 11.36L17.73 11.39L17.65 11.41L17.57 11.44L17.49 11.47L17.41 11.5L17.33 11.53L17.25 11.56L17.18 11.59L17.1 11.61L17.02 11.64L16.95 11.67L16.87 11.7L16.8 11.72L16.73 11.75L16.66 11.78L16.59 11.8L16.52 11.83L16.46 11.85L16.4 11.87L16.34 11.9L16.29 11.92L16.23 11.94L16.19 11.96L16.14 11.98L16.1 11.99L16.06 12.01L16.03 12.03L16 12.04L15.9 12.11L15.81 12.16L15.72 12.22L15.63 12.28L15.54 12.33L15.46 12.38L15.39 12.43L15.31 12.47L15.24 12.52L15.17 12.56L15.11 12.61L15.05 12.65L14.99 12.68L14.93 12.72L14.88 12.76L14.82 12.79L14.77 12.82L14.73 12.85L14.68 12.88L14.64 12.91L14.6 12.94L14.57 12.96L14.53 12.98L14.5 13.01L14.47 13.03L14.44 13.05L14.41 13.07L14.39 13.08L14.36 13.1L14.34 13.12L14.32 13.13L14.3 13.14L14.29 13.16L14.27 13.17L14.26 13.18L14.25 13.19L14.23 13.2L14.22 13.2L14.17 13.25L14.11 13.3L14.05 13.35L14 13.4L13.94 13.44L13.88 13.49L13.82 13.53L13.75 13.57L13.69 13.61L13.63 13.64L13.56 13.68L13.49 13.71L13.43 13.75L13.36 13.78L13.29 13.81L13.22 13.84L13.15 13.87L13.08 13.9L13 13.93L12.93 13.96L12.85 13.99L12.77 14.01L12.7 14.04L12.62 14.06L12.54 14.09L12.45 14.11L12.37 14.14L12.29 14.16L12.2 14.19L12.11 14.21L12.03 14.23L11.94 14.26L11.85 14.28L11.75 14.3L11.66 14.33L11.56 14.35L11.47 14.37L11.37 14.4L11.36 14.4L11.29 14.42L11.22 14.43L11.16 14.45L11.1 14.47L11.05 14.48L11.01 14.49L10.96 14.5L10.93 14.51L10.89 14.52L10.86 14.53L10.82 14.54L10.79 14.55L10.78 14.55L10.76 14.55L10.73 14.56L10.7 14.59L10.68 14.6L10.67 14.62L10.65 14.63L10.63 14.65L10.6 14.68L10.58 14.69L10.57 14.71L10.53 14.74L10.49 14.77L10.46 14.8L10.42 14.83L10.37 14.88L10.33 14.92L10.28 14.96L10.26 14.98L10.2 15.03L10.15 15.08L10.07 15.15L10.01 15.21L9.94 15.26L9.88 15.32L9.82 15.37L9.76 15.43L9.71 15.48L9.65 15.53L9.59 15.58L9.54 15.62L9.49 15.67L9.44 15.71L9.39 15.76L9.34 15.8L9.29 15.84L9.24 15.88L9.2 15.92L9.15 15.96L9.11 16L9.06 16.03L9.02 16.07L8.98 16.1L8.94 16.13L8.9 16.17L8.86 16.2L8.82 16.23L8.78 16.26L8.74 16.28L8.71 16.31L8.67 16.34L8.63 16.36L8.6 16.39L8.56 16.41L8.52 16.44L8.49 16.46L8.45 16.48L8.42 16.5L8.38 16.52L8.35 16.54L8.29 16.57L8.24 16.6L8.18 16.63L8.13 16.66L8.07 16.68L8.02 16.71L7.96 16.73L7.9 16.75L7.85 16.77L7.79 16.79L7.73 16.81L7.67 16.83L7.61 16.85L7.55 16.86L7.48 16.88L7.42 16.89L7.36 16.91L7.29 16.92L7.23 16.93L7.16 16.95L7.09 16.96L7.02 16.97L6.95 16.98L6.88 16.99L6.8 17L6.73 17.01L6.65 17.02L6.57 17.03L6.5 17.04L6.41 17.05L6.33 17.06L6.25 17.06L6.16 17.07L6.07 17.08L5.98 17.09L5.89 17.1L5.8 17.11L5.71 17.12L5.67 17.12L5.6 17.13L5.52 17.13L5.48 17.14L5.44 17.14L5.4 17.14L5.36 17.15L5.31 17.15L5.27 17.16L5.23 17.16L5.18 17.17L5.14 17.17L5.09 17.17L5.05 17.18L5 17.18L4.96 17.19L4.91 17.19L4.87 17.2L4.82 17.2L4.78 17.21L4.74 17.21L4.7 17.22L4.65 17.22L4.61 17.23L4.57 17.23L4.54 17.24L4.5 17.24L4.46 17.25L4.43 17.25L4.39 17.26L4.36 17.26L4.33 17.27L4.3 17.27L4.27 17.28L4.25 17.28L4.23 17.29L4.19 17.3L4.16 17.31L4.13 17.33L4.1 17.34L4.06 17.35L4.03 17.37L4 17.38L3.96 17.39L3.92 17.41L3.89 17.42L3.85 17.43L3.81 17.45L3.77 17.46L3.73 17.47L3.69 17.49L3.65 17.5L3.61 17.52L3.57 17.53L3.53 17.55L3.48 17.56L3.44 17.57L3.4 17.59L3.36 17.6L3.31 17.62L3.27 17.63L3.22 17.65L3.18 17.66L3.13 17.68L3.09 17.69L3.04 17.71L3 17.72L2.95 17.74L2.91 17.75L2.86 17.77L2.81 17.78L2.77 17.8L2.72 17.81L2.67 17.83L2.67 18.87L2.69 18.9L2.71 18.93L2.74 18.96L2.76 18.99L2.78 19.02L2.8 19.05L2.83 19.08L2.85 19.12L2.87 19.15L2.9 19.19L2.92 19.23L2.95 19.26L2.97 19.3L2.99 19.34L3.02 19.39L3.04 19.43L3.07 19.47L3.09 19.52L3.12 19.56L3.14 19.61L3.16 19.66L3.19 19.71L3.21 19.76L3.23 19.81L3.25 19.86L3.27 19.92L3.29 19.97L3.31 20.03L3.33 20.08L3.35 20.14L3.37 20.2L3.38 20.26L3.4 20.32L3.41 20.38L3.42 20.45L3.44 20.51L3.45 20.58L3.46 20.64L3.46 20.7L3.47 20.76L3.47 20.81L3.48 20.87L3.48 20.93L3.48 20.99L3.48 21.04L3.48 21.1L3.48 21.16L3.47 21.22L3.47 21.28L3.46 21.34L3.46 21.4L3.45 21.47L3.44 21.53L3.43 21.6L3.42 21.66L3.41 21.73L3.4 21.8L3.39 21.87L3.37 21.95L3.36 22.02L3.34 22.1L3.32 22.18L3.3 22.26L3.28 22.34L3.26 22.43L3.24 22.51L3.22 22.6L3.2 22.7L3.17 22.79L3.15 22.89L3.12 22.99L3.1 23.09L3.07 23.2L3.04 23.31L3.01 23.42L2.98 23.54L2.97 23.56L2.96 23.59L2.96 23.62L2.94 23.68L2.92 23.73L2.91 23.79L2.9 23.82L2.89 23.85L2.88 23.92L2.87 23.95L2.86 23.98L2.85 24.01L2.84 24.07L2.83 24.1L2.82 24.13L2.81 24.16L2.81 24.19L2.79 24.25L2.78 24.28L2.78 24.31L2.77 24.34L2.76 24.37L2.75 24.39L2.75 24.42L2.74 24.45L2.73 24.48L2.73 24.5L2.72 24.53L2.72 24.55L2.71 24.58L2.71 24.6L2.7 24.62L2.7 24.64L2.71 24.65L2.71 24.67L2.71 24.7L2.72 24.73L2.72 24.75L2.73 24.77L2.73 24.8L2.74 24.83L2.75 24.87L2.76 24.91L2.77 24.96L2.77 25L2.79 25.05L2.81 25.16L2.82 25.23L2.83 25.28L2.86 25.4L2.88 25.51L2.9 25.62L2.93 25.73L2.95 25.83L2.97 25.94L2.99 26.04L3.01 26.14L3.03 26.24L3.04 26.34L3.06 26.43L3.08 26.53L3.09 26.62L3.11 26.71L3.12 26.8L3.13 26.89L3.15 26.98L3.16 27.06L3.17 27.15L3.18 27.23L3.19 27.31L3.19 27.39L3.2 27.47L3.2 27.55L3.21 27.63L3.21 27.7L3.21 27.78L3.21 27.85L3.21 27.93L3.21 28L3.21 28.07L3.21 28.15L3.2 28.22L3.19 28.29L3.19 28.36L3.18 28.43L3.17 28.5L3.16 28.56L3.15 28.57L3.15 28.61L3.13 28.69L3.12 28.73L3.12 28.77L3.11 28.79L3.09 28.94L3.06 29.08L3.04 29.21L3.01 29.35L2.99 29.47L2.97 29.59L2.95 29.71L2.93 29.83L2.91 29.93L2.89 30.04L2.87 30.14L2.86 30.24L2.84 30.33L2.83 30.42L2.81 30.51L2.8 30.59L2.79 30.67L2.78 30.74L2.77 30.82L2.76 30.88L2.75 30.95L2.74 31.01L2.73 31.07L2.72 31.13L2.72 31.18L2.71 31.23L2.71 31.28L2.7 31.32L2.7 31.36L2.69 31.4L2.69 31.44L2.68 31.47L2.68 31.51L2.68 31.54L2.68 31.56L2.68 31.59L2.68 31.61L2.67 31.63L2.68 31.65L2.68 31.67L2.68 31.69L2.69 31.71L2.69 31.73L2.7 31.76L2.7 31.78L2.71 31.8L2.72 31.83L2.72 31.86L2.73 31.88L2.74 31.91L2.75 31.94L2.75 31.97L2.76 32L2.77 32.03L2.78 32.06L2.79 32.09L2.8 32.12L2.81 32.15L2.82 32.18L2.83 32.21L2.84 32.24L2.85 32.28L2.85 32.31L2.86 32.34L2.87 32.37L2.88 32.4L2.89 32.43L2.9 32.46L2.91 32.49L2.92 32.52L2.93 32.55L2.94 32.58L2.95 32.61L2.96 32.63L2.97 32.66L2.98 32.68L3.01 32.8L3.04 32.87L3.05 32.91L3.06 32.94L3.07 32.98L3.08 33.02L3.09 33.06L3.11 33.09L3.12 33.13L3.13 33.17L3.14 33.21L3.15 33.24L3.16 33.28L3.18 33.32L3.19 33.36L3.2 33.4L3.21 33.43L3.22 33.47L3.23 33.51L3.24 33.55L3.25 33.58L3.26 33.62L3.27 33.66L3.28 33.7L3.29 33.74L3.3 33.77L3.31 33.81L3.32 33.85L3.33 33.89L3.34 33.92L3.34 33.96L3.35 34L3.36 34.04L3.37 34.07L3.37 34.11L3.39 34.17L3.4 34.24L3.4 34.3L3.41 34.36L3.42 34.43L3.42 34.49L3.43 34.56L3.43 34.62L3.44 34.69L3.44 34.76L3.44 34.83L3.44 34.9L3.44 34.97L3.44 35.04L3.43 35.12L3.43 35.19L3.43 35.27L3.42 35.35L3.42 35.43L3.41 35.51L3.4 35.59L3.39 35.67L3.38 35.76L3.37 35.85L3.36 35.94L3.35 36.03L3.34 36.13L3.33 36.22L3.31 36.32L3.3 36.43L3.29 36.53L3.27 36.64L3.25 36.74L3.24 36.86L3.22 36.97L3.2 37.09L3.19 37.21L3.17 37.33L3.16 37.38L3.15 37.43L3.14 37.48L3.14 37.53L3.13 37.59L3.12 37.64L3.11 37.7L3.1 37.76L3.09 37.82L3.08 37.88L3.07 37.94L3.07 38L3.06 38.06L3.05 38.13L3.04 38.19L3.03 38.25L3.02 38.32L3.01 38.38L3 38.44L3 38.5L2.99 38.56L2.98 38.63L2.97 38.68L2.97 38.74L2.96 38.8L2.95 38.86L2.95 38.91L2.94 38.97L2.94 39.02L2.93 39.07L2.93 39.12L2.92 39.17L2.92 39.21L2.92 39.25L2.92 39.29L2.91 39.33L2.91 39.37L2.91 39.4L2.93 39.49L2.94 39.57L2.95 39.66L2.96 39.75L2.97 39.83L2.98 39.92L2.99 40L2.99 40.09L3 40.17L3 40.25L3 40.34L3 40.42L3 40.5L3 40.59L2.99 40.67L2.99 40.75L2.99 40.83L2.98 40.91L2.97 40.99L2.97 41.06L2.96 41.14L2.95 41.22L2.94 41.29L2.93 41.37L2.92 41.44L2.91 41.51L2.9 41.59L2.89 41.66L2.88 41.73L2.86 41.8L2.85 41.87L2.84 41.94L2.83 42L2.82 42.07L2.8 42.13L2.79 42.2L2.78 42.26L2.77 42.32L2.77 42.33L2.76 42.36L2.75 42.41L2.74 42.45L2.73 42.5L2.73 42.53L2.72 42.58L2.72 42.59L2.71 42.61L2.71 42.62L2.7 42.65L2.7 42.68L2.7 42.7L2.69 42.71L2.69 42.74L2.69 42.76L2.68 42.79L2.68 42.81L2.68 42.83L2.67 42.85L2.68 42.87L2.68 42.89L2.68 42.91L2.68 42.93L2.69 42.96L2.69 42.98L2.69 43.01L2.7 43.03L2.7 43.06L2.71 43.09L2.71 43.12L2.72 43.15L2.73 43.18L2.73 43.22L2.74 43.25L2.75 43.28L2.75 43.32L2.76 43.35L2.77 43.38L2.77 43.42L2.78 43.45L2.79 43.48L2.8 43.52L2.8 43.55L2.81 43.59L2.82 43.62L2.83 43.65L2.84 43.69L2.84 43.72L2.85 43.75L2.86 43.78L2.87 43.81L2.87 43.84L2.89 43.9L2.89 43.93L2.91 43.98L2.91 44.01L2.92 44.06L2.93 44.09L2.94 44.14L2.95 44.19L2.97 44.24L2.97 44.27L2.98 44.29L2.98 44.32L2.99 44.34L3 44.37L3 44.39L3.01 44.42L3.01 44.44L3.02 44.47L3.02 44.49L3.03 44.52L3.03 44.54L3.04 44.57L3.04 44.59L3.05 44.62L3.05 44.64L3.06 44.67L3.06 44.69L3.07 44.72L3.07 44.74L3.08 44.76L3.08 44.79L3.09 44.81L3.09 44.83L3.1 44.86L3.1 44.88L3.1 44.91L3.11 44.93L3.11 44.97L3.12 44.98L3.12 45.01L3.12 45.03L3.13 45.05L3.13 45.08L3.13 45.1L3.14 45.13L3.14 45.16L3.14 45.19L3.14 45.22L3.15 45.25L3.15 45.29L3.15 45.32L3.15 45.36L3.15 45.4L3.15 45.44L3.15 45.49L3.15 45.53L3.15 45.58L3.15 45.63L3.15 45.68L3.15 45.74L3.14 45.79L3.14 45.85L3.14 45.91L3.13 45.97L3.13 46.04L3.12 46.11L3.11 46.18L3.1 46.25L3.1 46.32L3.09 46.4L3.07 46.48L3.06 46.56L3.05 46.65L3.04 46.74L3.05 46.74L3.08 46.77L3.11 46.79L3.12 46.79L3.14 46.81L3.16 46.82L3.19 46.84L3.2 46.85L3.21 46.86L3.22 46.87L3.24 46.89L3.26 46.9L3.28 46.92L3.3 46.93L3.31 46.94L3.32 46.95L3.33 46.95L3.34 46.96L3.35 46.97L3.36 46.98L3.37 46.98L3.38 46.99L3.38 47L3.39 47.01L3.4 47.01L3.44 47.03L3.47 47.04L3.51 47.06L3.55 47.08L3.59 47.09L3.64 47.11L3.68 47.13L3.73 47.15L3.78 47.17L3.82 47.19L3.87 47.2L3.92 47.22L3.98 47.24L4.03 47.26L4.08 47.28L4.13 47.3L4.19 47.32L4.24 47.34L4.29 47.36L4.35 47.38L4.4 47.4L4.45 47.42L4.5 47.44L4.56 47.46L4.61 47.48L4.66 47.5L4.71 47.52L4.76 47.53L4.8 47.55L4.85 47.57L4.89 47.58L4.94 47.6L4.98 47.61L5.02 47.63L5.06 47.64L5.09 47.66L5.12 47.67L5.16 47.68L5.19 47.69L5.24 47.71L5.31 47.73L5.35 47.75L5.42 47.77L5.45 47.78L5.49 47.8L5.52 47.81L5.54 47.82L5.56 47.82L5.57 47.82L5.62 47.82L5.64 47.82L5.69 47.82L5.73 47.82L5.77 47.82L5.78 47.82L5.82 47.82L5.84 47.82L5.88 47.82L5.93 47.82L5.95 47.82L5.99 47.82L6.02 47.82L6.13 47.82L6.19 47.82L6.27 47.82L6.32 47.82L6.37 47.82L6.41 47.82L6.45 47.82L6.48 47.82L6.52 47.82L6.69 47.82L6.86 47.82L7.02 47.83L7.18 47.84L7.33 47.86L7.48 47.88L7.62 47.9L7.76 47.93L7.89 47.95L8.02 47.98L8.14 48.02L8.26 48.05L8.38 48.09L8.49 48.13L8.6 48.18L8.7 48.22L8.8 48.27L8.89 48.32L8.98 48.37L9.07 48.43L9.15 48.48L9.23 48.54L9.31 48.59L9.38 48.65L9.45 48.71L9.52 48.78L9.58 48.84L9.64 48.9L9.7 48.97L9.75 49.03L9.8 49.1L9.85 49.16L9.89 49.23L9.94 49.3L9.98 49.36L10.01 49.43L10.05 49.5L10.08 49.56L10.1 49.58L10.13 49.6L10.14 49.6L10.17 49.62L10.18 49.63L10.22 49.65L10.27 49.69L10.3 49.71L10.41 49.78L10.44 49.8L10.5 49.84L10.57 49.88L10.61 49.91L10.66 49.94L10.7 49.97L10.72 49.98L10.74 49.99L10.76 50.01L10.79 50.02L10.81 50.04L10.83 50.05L10.85 50.06L10.87 50.08L10.89 50.09L10.92 50.11L10.94 50.12L10.96 50.14L10.98 50.15L11 50.17L11.02 50.18L11.04 50.2L11.07 50.21L11.09 50.23L11.11 50.24L11.13 50.26L11.15 50.27L11.17 50.29L11.19 50.3L11.22 50.32L11.24 50.33L11.26 50.35L11.28 50.36L11.31 50.37L11.34 50.38L11.37 50.39L11.4 50.39L11.43 50.4L11.46 50.41L11.5 50.42L11.53 50.43L11.57 50.44L11.6 50.45L11.64 50.46L11.68 50.47L11.72 50.48L11.76 50.49L11.8 50.5L11.84 50.52L11.88 50.53L11.92 50.54L11.96 50.55L12 50.56L12.04 50.57L12.09 50.58L12.13 50.59L12.17 50.6L12.21 50.61L12.25 50.62L12.29 50.63L12.33 50.64L12.37 50.65L12.41 50.65L12.45 50.66L12.49 50.67L12.6 50.7L12.67 50.71L12.78 50.74L12.88 50.77L12.99 50.79L13.1 50.82L13.2 50.84L13.3 50.87L13.4 50.89L13.5 50.92L13.6 50.94L13.69 50.97L13.79 50.99L13.88 51.02L13.97 51.04L14.06 51.07L14.15 51.1L14.24 51.12L14.32 51.15L14.41 51.18L14.49 51.21L14.57 51.24L14.65 51.27L14.73 51.31L14.81 51.34L14.88 51.38L14.96 51.41L15.03 51.45L15.1 51.49L15.18 51.53L15.25 51.57L15.31 51.61L15.38 51.66L15.45 51.7L15.51 51.75L15.58 51.8L15.64 51.85L15.7 51.9L15.76 51.96L15.84 52.03L15.86 52.05L15.88 52.07L15.91 52.09L15.93 52.12L15.96 52.14L15.98 52.16L16.01 52.19L16.04 52.21L16.07 52.24L16.11 52.26L16.14 52.29L16.17 52.31L16.21 52.34L16.24 52.37L16.28 52.39L16.32 52.42L16.35 52.45L16.39 52.48L16.43 52.5L16.47 52.53L16.5 52.56L16.54 52.59L16.58 52.61L16.62 52.64L16.65 52.66L16.69 52.69L16.73 52.71L16.77 52.74L16.8 52.76L16.84 52.78L16.87 52.81L16.91 52.83L16.94 52.85L16.97 52.87L17 52.89L17.03 52.9L17.06 52.92L17.18 52.93L17.3 52.93L17.42 52.95L17.55 52.96L17.68 52.97L17.81 52.99L17.95 53L18.08 53.02L18.22 53.04L18.36 53.06L18.5 53.08L18.64 53.1L18.78 53.13L18.92 53.15L19.06 53.17L19.2 53.2L19.33 53.22L19.47 53.24L19.6 53.27L19.72 53.29L19.85 53.31L19.97 53.34L20.09 53.36L20.2 53.38L20.3 53.4L20.41 53.42L20.5 53.44L20.59 53.46L20.68 53.48L20.75 53.49L20.82 53.51L20.88 53.52L20.94 53.53L20.98 53.54L21.02 53.55L21.05 53.56L21.07 53.56L21.16 53.58L21.25 53.61L21.33 53.63L21.42 53.66L21.51 53.7L21.6 53.73L21.69 53.77L21.78 53.81L21.86 53.85L21.95 53.89L22.04 53.94L22.13 53.99L22.22 54.04L22.32 54.1L22.41 54.16L22.5 54.22L22.6 54.28L22.69 54.35L22.79 54.42L22.88 54.49L22.98 54.56L23.08 54.64L23.18 54.72L23.29 54.8L23.39 54.89L23.49 54.98L23.6 55.07L23.71 55.16L23.82 55.26L23.93 55.36L24.05 55.46L24.17 55.57L24.28 55.68L24.41 55.79L24.53 55.91L24.65 56.02L24.78 56.15L24.91 56.27L24.92 56.28L24.93 56.28L24.93 56.29L24.95 56.3L24.97 56.3L24.99 56.31L25.01 56.32L25.03 56.33L25.05 56.33L25.07 56.34L25.09 56.35L25.11 56.36L25.13 56.36L25.16 56.37L25.18 56.38L25.2 56.39L25.22 56.4L25.25 56.41L25.27 56.41L25.32 56.43L25.34 56.44L25.39 56.46L25.44 56.47L25.46 56.48L25.51 56.5L25.58 56.52L25.71 56.57L25.78 56.59L25.83 56.61L25.88 56.63L25.94 56.64L25.99 56.66L26.04 56.68L26.09 56.7L26.15 56.72L26.2 56.73L26.25 56.75L26.3 56.77L26.35 56.79L26.4 56.81L26.46 56.83L26.51 56.84L26.56 56.86L26.61 56.88L26.66 56.9L26.71 56.92L26.76 56.94L26.81 56.96L26.85 56.98L26.9 57L26.95 57.01L27 57.03L27.05 57.05L27.09 57.07L27.14 57.09L27.19 57.11L27.23 57.13L27.28 57.15L27.32 57.18L27.37 57.2L27.41 57.22L27.46 57.24L27.5 57.26L27.54 57.28L27.59 57.3L27.63 57.33L27.64 57.33L27.65 57.33L27.66 57.33L27.69 57.33L27.7 57.33L27.72 57.34L27.75 57.34L27.76 57.34L27.78 57.34L27.8 57.34L27.82 57.35L27.84 57.35L27.86 57.35L27.88 57.35L27.9 57.35L27.92 57.35L27.94 57.35L27.97 57.36L27.99 57.36L28.01 57.36L28.04 57.36L28.06 57.36L28.09 57.36L28.12 57.36L28.15 57.36L28.18 57.37L28.2 57.37L28.24 57.37L28.27 57.37L28.3 57.37L28.33 57.37L28.36 57.37L28.4 57.37L28.43 57.37L28.47 57.37L28.5 57.37L28.54 57.37L28.57 57.37L28.6 57.37L28.63 57.37L28.65 57.37L28.68 57.37L28.71 57.37L28.74 57.37L28.77 57.37L28.79 57.37L28.82 57.37L28.84 57.37L28.87 57.37L28.89 57.36L28.92 57.36L28.94 57.36L28.96 57.36L28.98 57.36L29 57.36L29.04 57.36L29.06 57.36L29.07 57.36L29.11 57.36L29.15 57.35L29.16 57.35L29.17 57.35L29.21 57.35L29.99 57.3L30.67 57.68L32.45 58.67L32.59 58.64L32.74 58.61L32.89 58.58L33.03 58.55L33.18 58.53L33.32 58.5L33.47 58.47L33.61 58.44L33.75 58.41L33.89 58.38L34.03 58.35L34.17 58.32L34.31 58.29L34.44 58.27L34.58 58.24L34.71 58.21L34.84 58.18L34.97 58.16L35.09 58.13L35.21 58.1L35.33 58.08L35.45 58.05L35.56 58.03L35.67 58L35.78 57.98L35.88 57.96L35.98 57.93L36.08 57.91L36.17 57.89L36.26 57.87L36.34 57.85L36.42 57.83L36.49 57.81L36.56 57.79L36.62 57.78L36.68 57.76L36.73 57.75L36.78 57.73L36.82 57.71L36.86 57.7L36.89 57.68L36.93 57.66L36.97 57.65L37.01 57.63L37.05 57.61L37.09 57.6L37.13 57.58L37.17 57.57L37.21 57.55L37.25 57.54L37.29 57.52L37.33 57.51L37.37 57.5L37.41 57.48L37.45 57.47L37.5 57.45L37.54 57.44L37.58 57.43L37.63 57.41L37.67 57.4L37.71 57.39L37.76 57.37L37.81 57.36L37.85 57.35L37.9 57.33L37.94 57.32L37.99 57.31L38.04 57.3L38.09 57.28L38.14 57.27L38.18 57.26L38.23 57.24L38.28 57.23L38.38 57.2L38.44 57.19L38.49 57.17L38.55 57.16L38.62 57.14L38.66 57.13L38.7 57.12L38.72 57.11L38.77 57.1L38.81 57.09L38.86 57.08L38.88 57.07L38.93 57.06L38.95 57.05L38.97 57.04L38.99 57.04L39.02 57.03L39.04 57.03L39.06 57.02L39.08 57.01L39.1 57.01L39.12 57L39.14 56.99L39.16 56.99L39.18 56.98L39.2 56.98L39.22 56.97L39.24 56.96L39.35 56.87L39.47 56.79L39.59 56.7L39.71 56.63L39.83 56.55L39.96 56.48L40.08 56.42L40.21 56.35L40.34 56.3L40.47 56.24L40.6 56.19L40.73 56.14L40.86 56.1L40.99 56.06L41.12 56.02L41.25 55.98L41.37 55.95L41.5 55.92L41.62 55.89L41.74 55.87L41.86 55.85L41.98 55.83L42.09 55.81L42.2 55.79L42.31 55.78L42.41 55.77L42.51 55.76L42.6 55.75L42.69 55.74L42.77 55.73L42.85 55.73L42.92 55.72L42.99 55.72L43.05 55.72L43.11 55.72L43.15 55.71L43.19 55.71L43.23 55.71L43.25 55.71L43.27 55.7L43.29 55.69L43.32 55.68L43.35 55.67L43.37 55.66L43.4 55.64L43.43 55.63L43.46 55.62L43.49 55.6L43.52 55.59L43.55 55.58L43.58 55.56L43.61 55.55L43.64 55.53L43.67 55.52L43.7 55.5L43.74 55.49L43.77 55.47L43.8 55.45L43.83 55.44L43.86 55.42L43.89 55.41L43.93 55.39L43.96 55.37L43.99 55.36L44.02 55.34L44.05 55.33L44.08 55.31L44.11 55.3L44.13 55.28L44.16 55.27L44.19 55.25L44.21 55.24L44.24 55.23L44.31 55.19L44.36 55.16L44.42 55.13L44.48 55.1L44.53 55.07L44.59 55.04L44.65 55.01L44.7 54.99L44.76 54.96L44.81 54.93L44.86 54.9L44.92 54.88L44.97 54.85L45.02 54.83L45.08 54.8L45.13 54.78L45.18 54.76L45.24 54.74L45.29 54.72L45.34 54.7L45.4 54.68L45.45 54.66L45.5 54.64L45.56 54.62L45.61 54.61L45.67 54.59L45.72 54.58L45.78 54.56L45.83 54.55L45.89 54.54L45.94 54.53L46 54.52L46.06 54.51L46.12 54.51L46.18 54.5L46.24 54.5L46.3 54.5L46.36 54.49L46.42 54.49L46.45 54.49L46.48 54.48L46.51 54.48L46.54 54.47L46.57 54.47L46.61 54.46L46.64 54.46L46.68 54.45L46.72 54.44L46.76 54.43L46.8 54.43L46.84 54.42L46.88 54.41L46.92 54.4L46.96 54.39L47 54.38L47.04 54.37L47.09 54.36L47.13 54.35L47.17 54.34L47.21 54.33L47.26 54.32L47.3 54.31L47.34 54.3L47.38 54.29L47.42 54.28L47.47 54.27L47.51 54.26L47.55 54.25L47.58 54.24L47.62 54.23L47.66 54.22L47.7 54.21L47.73 54.2L47.76 54.19L47.8 54.18L47.83 54.16L47.86 54.16L47.93 54.1L48 54.03L48.07 53.97L48.15 53.91L48.23 53.84L48.31 53.78L48.39 53.71L48.47 53.65L48.55 53.58L48.64 53.51L48.72 53.44L48.81 53.37L48.89 53.31L48.98 53.24L49.07 53.17L49.15 53.11L49.23 53.05L49.32 52.98L49.4 52.92L49.47 52.86L49.55 52.8L49.63 52.74L49.7 52.69L49.77 52.64L49.83 52.59L49.9 52.54L49.96 52.49L50.01 52.45L50.07 52.41L50.11 52.38L50.16 52.35L50.2 52.32L50.23 52.29L50.26 52.27L50.28 52.26L50.3 52.24L50.31 52.23L50.36 52.2L50.4 52.17L50.44 52.14L50.49 52.12L50.53 52.09L50.57 52.07L50.62 52.04L50.66 52.02L50.71 52L50.75 51.98L50.8 51.96L50.84 51.93L50.89 51.92L50.94 51.9L50.99 51.88L51.04 51.86L51.09 51.84L51.14 51.83L51.19 51.81L51.25 51.79L51.3 51.78L51.36 51.76L51.42 51.74L51.48 51.73L51.54 51.71L51.6 51.7L51.66 51.68L51.73 51.67L51.8 51.65L51.87 51.64L51.94 51.62L52.01 51.6L52.09 51.59L52.17 51.57L52.25 51.55L52.33 51.54L52.42 51.52L52.51 51.5L52.57 51.49L52.65 51.47L52.69 51.46L52.73 51.46L52.77 51.45L52.81 51.44L52.85 51.43L52.9 51.42L52.94 51.41L52.98 51.4L53.03 51.39L53.08 51.38L53.12 51.37L53.17 51.36L53.22 51.35L53.26 51.34L53.31 51.33L53.36 51.32L53.4 51.31L53.45 51.3L53.5 51.29L53.54 51.28L53.59 51.27L53.63 51.26L53.67 51.25L53.72 51.24L53.76 51.23L53.8 51.22L53.84 51.21L53.88 51.2L53.91 51.19L53.95 51.18L53.98 51.17L54.01 51.16L54.04 51.15L54.07 51.14L54.08 51.13L54.1 51.12L54.11 51.11L54.12 51.1L54.13 51.09L54.15 51.08L54.16 51.07L54.19 51.05L54.2 51.04L54.23 51.02L54.24 51L54.26 50.99L54.27 50.98L54.29 50.97L54.32 50.94L54.33 50.93L54.35 50.92L54.38 50.89L54.39 50.88L54.41 50.87L54.44 50.84L54.47 50.82L54.48 50.81L54.51 50.79L54.55 50.75L54.57 50.73L54.6 50.71L54.66 50.66L54.72 50.61L54.78 50.56L54.84 50.51L54.9 50.46L54.95 50.41L55.01 50.36L55.07 50.31L55.14 50.26L55.2 50.21L55.26 50.17L55.32 50.12L55.38 50.08L55.44 50.04L55.5 49.99L55.57 49.95L55.63 49.91L55.7 49.87L55.76 49.83L55.83 49.8L55.89 49.76L55.96 49.73L56.03 49.7L56.1 49.67L56.17 49.64L56.24 49.61L56.31 49.59L56.39 49.56L56.46 49.54L56.54 49.52L56.61 49.51L56.69 49.49L56.77 49.48L56.86 49.47L56.94 49.46L57.02 49.45L57.11 49.45L57.2 49.45L57.21 49.45L57.24 49.45L57.25 49.45L57.26 49.45L57.29 49.44L57.32 49.44L57.35 49.43L57.39 49.43L57.42 49.42L57.46 49.41L57.5 49.41L57.54 49.4L57.58 49.39L57.62 49.38L57.66 49.37L57.7 49.36L57.74 49.35L57.79 49.34L57.83 49.33L57.88 49.32L57.92 49.31L57.97 49.3L58.02 49.29L58.06 49.28L58.11 49.27L58.16 49.26L58.2 49.25L58.25 49.24L58.3 49.23L58.34 49.21L58.39 49.2L58.43 49.19L58.48 49.18L58.52 49.17L58.57 49.16L58.61 49.15L58.65 49.13L58.69 49.12L58.73 49.11L58.77 49.1L58.81 49.09L58.85 49.08L58.87 49.06L58.88 49.04L58.9 49.01L58.92 48.99L58.94 48.97L58.96 48.94L58.97 48.92L58.99 48.89L59.01 48.87L59.03 48.84L59.05 48.81L59.07 48.79L59.09 48.76L59.11 48.73L59.14 48.7L59.16 48.67L59.18 48.64L59.2 48.61L59.22 48.58L59.25 48.55L59.27 48.52L59.29 48.49L59.31 48.45L59.34 48.42L59.36 48.39L59.38 48.36L59.41 48.32L59.43 48.29L59.45 48.25L59.48 48.22L59.5 48.18L59.53 48.15L59.55 48.11L59.57 48.08L59.6 48.04L59.62 48.01L59.65 47.97L59.67 47.93L59.68 47.9L59.67 47.85L59.63 47.79L59.58 47.72L59.51 47.64L59.42 47.55L59.32 47.45L59.2 47.35L59.06 47.23L58.92 47.11L58.76 46.99L58.6 46.85L58.42 46.71L58.24 46.57L58.05 46.42L57.86 46.27L57.67 46.11L57.47 45.95L57.27 45.79L57.07 45.63L56.87 45.47L56.67 45.31L56.48 45.14L56.29 44.98L56.11 44.82L55.93 44.66L55.76 44.5L55.61 44.34L55.46 44.19L55.33 44.04L55.21 43.9L55.1 43.76L55.01 43.63L54.93 43.5L54.88 43.38L54.84 43.27L54.82 43.16L54.83 43.06L54.83 43.03L54.84 42.99L54.85 42.92L54.85 42.85L54.86 42.76L54.87 42.65L54.88 42.54L54.89 42.41L54.9 42.28L54.91 42.13L54.93 41.98L54.94 41.82L54.95 41.65L54.96 41.48L54.98 41.3L54.99 41.12L55.01 40.94L55.02 40.76L55.05 40.39L55.06 40.2L55.08 40.02L55.09 39.84L55.1 39.67L55.12 39.5L55.13 39.33L55.14 39.17L55.15 39.02L55.17 38.88L55.18 38.75L55.19 38.62L55.2 38.51L55.2 38.41L55.21 38.32L55.22 38.25L55.23 38.19L55.23 38.15L55.24 38.12L55.23 38.1L55.22 38.07L55.2 38.04L55.19 38L55.16 37.96L55.14 37.92L55.11 37.87L55.09 37.82L55.06 37.77L55.02 37.72L54.99 37.66L54.95 37.6L54.91 37.54L54.87 37.48L54.83 37.41L54.79 37.35L54.75 37.28L54.71 37.22L54.66 37.15L54.58 37.02L54.54 36.95L54.49 36.89L54.45 36.82L54.41 36.76L54.37 36.7L54.34 36.64L54.3 36.58L54.27 36.52L54.24 36.47L54.21 36.42L54.18 36.37L54.15 36.33L54.13 36.29L54.11 36.25L54.09 36.22L54.08 36.19L54.07 36.17L54.05 36.11L54.04 36.04L54.02 35.97L54 35.9L53.98 35.82L53.96 35.73L53.94 35.64L53.92 35.55L53.9 35.45L53.89 35.35L53.87 35.25L53.85 35.15L53.83 35.04L53.81 34.93L53.8 34.82L53.78 34.71L53.76 34.6L53.75 34.48L53.73 34.37L53.72 34.26L53.7 34.15L53.68 34.03L53.67 33.93L53.66 33.82L53.64 33.71L53.63 33.61L53.62 33.51L53.61 33.41L53.6 33.32L53.58 33.23L53.57 33.14L53.57 33.06L53.56 32.98L53.55 32.91L53.54 32.84L53.54 32.78L53.53 32.73L53.53 32.68L53.52 32.63L53.51 32.58L53.49 32.52L53.47 32.45L53.45 32.38L53.42 32.3L53.39 32.22L53.36 32.13L53.32 32.04L53.28 31.94L53.24 31.84L53.2 31.73L53.16 31.62L53.12 31.51L53.07 31.4L53.03 31.28L52.98 31.15L52.93 31.03L52.89 30.9L52.84 30.77L52.8 30.63L52.76 30.5L52.72 30.36L52.68 30.22L52.64 30.08L52.61 29.93L52.58 29.79L52.55 29.64L52.53 29.5L52.51 29.35L52.49 29.2L52.48 29.05L52.47 28.91L52.47 28.76L52.47 28.61L52.47 28.46L52.49 28.31L52.51 28.17L52.52 28.12L52.54 28.07L52.57 28L52.61 27.92L52.66 27.83L52.71 27.74L52.77 27.63L52.84 27.52L52.92 27.4L53 27.28L53.09 27.15L53.18 27.01L53.27 26.87L53.37 26.73L53.47 26.59L53.57 26.44L53.67 26.29L53.78 26.14L53.88 25.99L53.99 25.83L54.09 25.68L54.2 25.54L54.3 25.39L54.4 25.25L54.5 25.11L54.59 24.97L54.68 24.84L54.76 24.72L54.84 24.6L54.92 24.49L54.98 24.38L55.04 24.29L55.1 24.2L55.14 24.12L55.18 24.05L55.21 24L55.23 23.95L55.24 23.92L55.24 23.9L55.27 23.88L55.32 23.85L55.39 23.81L55.47 23.77L55.57 23.71L55.68 23.65L55.81 23.58L55.95 23.5L56.11 23.42L56.27 23.33L56.45 23.22L56.63 23.12L56.82 23L57.02 22.88L57.22 22.75L57.42 22.62L57.63 22.47L57.85 22.33L58.06 22.17L58.27 22.01L58.49 21.84L58.7 21.67L58.9 21.49L59.11 21.3L59.3 21.11L59.49 20.91L59.68 20.71L59.85 20.5L60.02 20.29L60.17 20.07L60.31 19.84L60.44 19.61L60.56 19.38L60.66 19.14L60.75 18.9L60.81 18.65L60.86 18.4L60.87 18.34L60.87 18.32L60.88 18.3L60.89 18.24L60.89 18.19L60.9 18.13L60.92 18.05L60.92 18L60.93 17.94L60.95 17.86L60.98 17.68L60.73 17.6L60.49 17.52L60.27 17.44L60.05 17.37L59.85 17.3L59.66 17.24L59.47 17.17L59.3 17.11L59.14 17.06L58.99 17L58.84 16.95L58.71 16.9L58.58 16.85L58.46 16.81L58.35 16.77L58.24 16.73L58.15 16.69L58.06 16.66L57.97 16.62L57.89 16.59L57.82 16.56L57.75 16.53L57.69 16.51L57.64 16.48L57.58 16.46L57.54 16.44L57.49 16.42L57.45 16.4L57.42 16.38L57.38 16.36L57.35 16.34L57.32 16.33L57.3 16.31L57.27 16.3L57.25 16.28L57.23 16.27L57.21 16.25L57.19 16.24L57.17 16.23L57.16 16.22L57.14 16.21L57.1 16.19L57.08 16.17L57.06 16.15L57.02 16.13L57 16.12L56.97 16.1L56.93 16.06L56.89 16.04L56.84 16.01L56.78 15.97L56.76 15.95L56.7 15.91L56.58 15.83L56.48 15.76L56.38 15.69L56.29 15.62L56.19 15.56L56.1 15.5L56.01 15.44L55.92 15.38L55.84 15.32L55.75 15.26L55.67 15.2L55.59 15.15L55.51 15.1L55.44 15.05L55.36 15L55.29 14.95L55.22 14.9L55.15 14.85L55.08 14.81L55.02 14.77L54.96 14.73L54.9 14.69L54.84 14.65L54.78 14.61L54.72 14.57L54.67 14.54L54.62 14.51L54.57 14.47L54.52 14.44L54.48 14.42L54.43 14.39L54.39 14.36L54.35 14.34L54.32 14.32L54.28 14.29L54.25 14.27L54.21 14.26L54.18 14.24L54.16 14.22L54.13 14.22L54.1 14.21L54.07 14.2L54.04 14.2L54 14.19L53.97 14.18L53.93 14.18L53.89 14.17L53.85 14.16L53.81 14.15L53.77 14.15L53.72 14.14L53.68 14.13L53.63 14.12L53.59 14.12L53.54 14.11L53.49 14.1L53.44 14.09L53.4 14.09L53.35 14.08L53.3 14.07L53.25 14.06L53.2 14.06L53.15 14.05L53.1 14.04L53.05 14.04L53 14.03L52.95 14.02L52.91 14.01L52.86 14.01L52.81 14L52.77 13.99L52.68 13.98L52.63 13.97L52.51 13.96L52.41 13.94L52.32 13.93L52.23 13.92L52.14 13.9L52.05 13.89L51.97 13.88L51.89 13.87L51.81 13.86L51.73 13.84L51.65 13.83L51.58 13.82L51.51 13.81L51.44 13.8L51.37 13.79L51.31 13.78L51.24 13.77L51.18 13.75L51.12 13.74L51.06 13.73L51 13.72L50.94 13.71L50.89 13.7L50.83 13.68L50.78 13.67L50.73 13.66L50.68 13.65L50.63 13.64L50.58 13.62L50.53 13.61L50.48 13.6L50.44 13.58L50.39 13.57L50.34 13.55L50.3 13.54L50.26 13.52L50.21 13.51L50.17 13.49L50.13 13.47L50.1 13.46L50.08 13.45L50.05 13.44L50.02 13.43L49.99 13.41L49.95 13.4L49.92 13.38L49.88 13.36L49.83 13.34L49.79 13.31L49.74 13.29L49.69 13.26L49.64 13.23L49.58 13.2L49.52 13.16L49.45 13.12L49.38 13.07L49.31 13.03L49.23 12.98L49.15 12.92L49.06 12.86L48.97 12.8L48.87 12.73L48.77 12.66L48.66 12.58L48.55 12.5L48.43 12.41L48.31 12.32L48.18 12.22L48.04 12.11L47.9 12L47.75 11.89L47.59 11.76L47.43 11.63L47.26 11.5L47.08 11.36L46.9 11.21L46.71 11.05L46.66 11.03L46.61 11L46.55 10.98L46.49 10.95L46.43 10.93L46.36 10.9L46.29 10.87L46.21 10.85L46.13 10.82L46.05 10.79L45.97 10.76L45.88 10.73L45.79 10.7L45.71 10.67L45.62 10.64L45.52 10.61L45.43 10.58L45.34 10.55L45.24 10.52L45.15 10.49L45.06 10.46L44.96 10.43L44.87 10.4L44.78 10.38L44.69 10.35L44.6 10.33L44.52 10.3L44.43 10.28L44.35 10.26L44.27 10.23L44.19 10.21L44.12 10.2L44.04 10.18L43.98 10.16L43.91 10.15L43.85 10.14L43.8 10.13L43.75 10.12L43.69 10.12L43.63 10.11L43.57 10.11L43.51 10.11L43.46 10.11L43.4 10.1L43.34 10.1L43.28 10.09L43.22 10.08L43.16 10.08L43.1 10.07L43.05 10.06L42.99 10.05L42.93 10.04L42.87 10.03L42.81 10.02L42.75 10.01L42.69 10L42.64 9.99L42.58 9.98L42.52 9.97L42.46 9.95L42.4 9.94L42.35 9.93L42.29 9.91L42.23 9.9L42.18 9.88L42.12 9.87L42.06 9.86L42.01 9.84L41.95 9.83L41.9 9.81L41.84 9.8L41.79 9.78L41.73 9.77L41.68 9.75L41.62 9.74L41.57 9.72L41.51 9.71L41.47 9.7L41.42 9.68L41.37 9.67L41.33 9.66L41.3 9.65L41.26 9.64L41.24 9.64L41.21 9.63L41.17 9.62L41.16 9.62L41.14 9.61L41.11 9.6L41.08 9.6L41.07 9.59L41.05 9.59L41.04 9.59L41.03 9.58L41.01 9.58L40.99 9.58L40.98 9.57L40.88 9.56L40.78 9.55L40.68 9.53L40.58 9.5L40.48 9.48L40.38 9.45L40.27 9.42L40.17 9.39L40.06 9.35L39.96 9.31L39.85 9.27L39.74 9.22L39.63 9.18L39.52 9.13L39.41 9.07L39.31 9.02L39.2 8.97L39.09 8.91L38.98 8.85L38.87 8.79L38.77 8.73L38.66 8.66L38.55 8.6L38.45 8.53L38.34 8.46L38.24 8.39L38.14 8.32L38.04 8.25L37.94 8.18L37.85 8.11L37.75 8.04L37.66 7.96L37.57 7.89L37.48 7.81L37.39 7.74L37.31 7.66L37.23 7.59L37.15 7.51L37.14 7.51L37.12 7.51L37.08 7.5L37.05 7.5L37.03 7.5L37 7.5L36.94 7.49L36.81 7.47L36.78 7.47L36.71 7.46L36.65 7.46L36.59 7.45L36.56 7.45L36.53 7.44L36.49 7.44L36.46 7.43L36.43 7.43L36.4 7.43L36.36 7.42L36.33 7.42L36.3 7.42L36.27 7.41L36.23 7.41L36.2 7.4L36.16 7.4L36.13 7.39L36.1 7.39L36.06 7.38L36.03 7.38L35.99 7.37L35.96 7.37L35.92 7.36L35.89 7.36L35.85 7.35L35.82 7.35L35.78 7.34L35.75 7.33L35.71 7.33L35.68 7.32L35.64 7.32L35.61 7.31L35.57 7.3L35.53 7.3L35.5 7.29L35.46 7.28L35.41 7.27L35.37 7.26L35.32 7.25L35.27 7.24L35.22 7.22L35.17 7.21L35.12 7.19L35.06 7.18L35 7.16L34.94 7.14L34.88 7.12L34.82 7.1L34.75 7.07L34.68 7.05L34.61 7.02L34.54 6.99L34.46 6.96L34.38 6.93L34.3 6.89L34.21 6.85L34.12 6.81L34.03 6.77L33.94 6.73L33.84 6.68L33.74 6.63L33.63 6.58L33.53 6.53L33.42 6.47L33.3 6.41L33.18 6.35L33.06 6.28L32.93 6.21L32.8 6.14L32.67 6.06L32.53 5.99L32.39 5.9L32.24 5.82L32.2 5.79L32.15 5.76L32.09 5.73L32.06 5.71L32.03 5.69L31.97 5.66L31.91 5.62L31.87 5.59L31.82 5.57L31.77 5.53L31.71 5.5L31.68 5.48L31.62 5.51L31.56 5.53Z" id="aFECiPch"></path><path d="M30.67 60.8C30.67 57.68 30.67 55.95 30.67 55.6C30.67 55.36 30.6 55.19 30.46 54.87C30.27 54.44 30.02 53.86 30.08 53.05C30.14 52.4 30.35 51.81 30.51 51.35C30.56 51.21 30.63 51.03 30.66 50.92C30.62 50.8 30.56 50.61 30.51 50.46C30.29 49.79 30.05 49.05 30.08 48.37C30.1 47.95 30.54 45.12 31.16 43.86C31.35 43.46 31.67 42.67 31.7 42.39C31.77 41.83 31.72 41.39 31.67 40.88C31.65 40.6 31.62 40.32 31.61 40C31.54 39.81 31.34 39.37 31.21 39.1C30.82 38.27 30.64 37.89 30.67 37.44C30.67 37.34 30.66 36.99 30.65 36.68C30.57 33.95 30.6 33.38 30.75 32.99C31.32 31.41 30.74 29.64 30.74 29.62C30.99 29.53 33.01 28.84 33.26 28.75C33.29 28.86 34.14 31.34 33.29 33.8C33.25 34.26 33.29 35.95 33.31 36.6C33.32 36.96 33.33 37.18 33.33 37.33C33.4 37.49 33.53 37.77 33.62 37.97C34.05 38.87 34.26 39.36 34.27 39.84C34.27 40.09 34.3 40.35 34.33 40.62C34.38 41.2 34.45 41.86 34.35 42.71C34.24 43.59 33.62 44.88 33.55 45.02C33.19 45.77 32.78 48.06 32.74 48.51C32.74 48.71 32.95 49.33 33.04 49.63C33.17 50.01 33.28 50.35 33.32 50.65C33.4 51.2 33.21 51.71 33.02 52.24C32.9 52.6 32.77 52.97 32.74 53.27C32.73 53.39 32.76 53.49 32.9 53.81C33.08 54.22 33.33 54.79 33.33 55.6C33.33 55.95 33.33 57.68 33.33 60.8L30.67 60.8Z" id="b8b39vaC8"></path><path d="M31.74 27.88C33.45 27.54 35.27 27.02 35.65 26.78C35.88 26.6 36.18 26.31 36.48 26.01C37.15 25.36 37.83 24.7 38.55 24.39C39.58 23.95 41.05 23.95 42.13 23.95C42.2 23.95 42.23 23.94 42.23 23.94C42.27 23.92 42.42 23.79 42.51 23.7C42.72 23.51 42.97 23.28 43.32 23.05C44.13 22.52 45.24 21.96 46.01 21.68C46.57 21.47 47.21 21.53 47.88 21.59C48.18 21.62 48.66 21.66 48.85 21.63C49.09 21.52 49.42 21.42 49.87 21.29C50.45 21.11 51.17 20.89 51.8 20.63C52.68 20.26 52.86 20.03 52.87 20.02C53.61 18.95 54.35 18.05 55.75 17.88C55.94 17.76 56.3 17.4 56.52 17.17C57.1 16.59 57.6 16.09 58.29 15.97C58.52 15.93 59.7 15.72 61.82 15.36L62.27 17.98C60.26 18.33 59.14 18.53 58.92 18.56C58.79 18.68 58.56 18.9 58.41 19.06C57.77 19.7 57.04 20.43 56.12 20.52C55.91 20.54 55.75 20.55 55.05 21.54C54.27 22.66 52.52 23.27 50.65 23.84C50.36 23.92 50 24.03 49.9 24.08C49.22 24.39 48.42 24.31 47.65 24.25C47.39 24.22 47.02 24.19 46.87 24.2C46.35 24.4 45.45 24.84 44.77 25.29C44.61 25.39 44.47 25.52 44.32 25.66C43.91 26.04 43.28 26.61 42.13 26.61C41.43 26.61 40.13 26.61 39.6 26.84C39.34 26.95 38.72 27.56 38.35 27.92C37.98 28.28 37.63 28.61 37.29 28.88C36.4 29.58 33.76 30.19 32.26 30.49C32.16 29.97 31.79 28.14 31.74 27.88Z" id="fTsJbLMR8"></path><path d="M27.68 29.56C27.14 29.47 26.36 29.14 25.68 28.72C24.69 28.09 24.14 27.39 24.07 26.63C23.97 26.54 23.8 26.42 23.66 26.35C23.1 26.48 22.41 26.45 21.87 26.39C20.78 26.27 20.03 25.97 19.59 25.48C19.2 25.32 18.1 25.15 17.61 25.08C17.14 25.01 16.76 24.95 16.48 24.87C15.67 24.66 14.84 23.78 14.17 22.9C13.15 22.96 11.48 22.99 10.47 22.56C9.42 22.12 8.6 21.08 8.14 20.38C7.22 20.27 5.58 20.06 4.64 19.84C3.16 19.5 1.17 17.88 0.79 17.56C0.96 17.36 2.32 15.72 2.5 15.52C3.23 16.13 4.61 17.1 5.25 17.25C6.4 17.52 9.06 17.8 9.09 17.8C9.13 17.81 9.37 17.83 9.79 17.88C9.99 18.25 10.1 18.46 10.13 18.51C10.42 19.06 11.06 19.92 11.5 20.11C11.98 20.31 13.53 20.31 14.67 20.18C14.73 20.17 14.99 20.14 15.48 20.09C15.75 20.49 15.9 20.72 15.93 20.76C16.36 21.41 16.97 22.12 17.24 22.31C17.41 22.35 17.73 22.4 18.02 22.44C19.76 22.71 20.91 22.93 21.51 23.62C21.84 23.74 22.64 23.81 22.98 23.77C23.71 23.45 24.53 23.76 25.11 24.1C25.56 24.37 26.58 25.08 26.71 26.17C27 26.45 27.8 26.87 28.13 26.94C28.8 27.05 31.95 27.81 32.31 27.89C32.27 28.06 32.06 28.93 31.69 30.48C29.31 29.92 27.97 29.62 27.68 29.56Z" id="b3ORHE8Qp"></path><path d="M13.8 10.28C15.97 11.18 26.79 15.69 46.28 23.8C46.28 43.83 46.28 54.97 46.28 57.19C46.34 57.17 46.39 57.16 46.42 57.16C46.43 57.16 46.43 57.16 46.44 57.16C46.45 57.16 46.46 57.16 46.48 57.16C46.82 57.16 48.17 56.9 48.94 56.6C48.94 54.29 48.94 42.77 48.94 22.02C29.85 14.07 19.25 9.66 17.13 8.77C16.07 9.14 14.97 9.54 14.69 9.71C14.54 9.81 14.19 10.03 13.8 10.28Z" id="a3lnDGt3lO"></path><path d="M5.34 26.83C5.34 27.57 5.94 28.17 6.67 28.17C7.41 28.17 8.01 27.57 8.01 26.83C8.01 26.1 7.41 25.5 6.67 25.5C5.94 25.5 5.34 26.1 5.34 26.83Z" id="b1V5asB99d"></path><path d="M10.67 37.5C10.67 38.23 11.27 38.83 12.01 38.83C12.74 38.83 13.34 38.23 13.34 37.5C13.34 36.76 12.74 36.17 12.01 36.17C11.27 36.17 10.67 36.76 10.67 37.5Z" id="a4Gu4TMDY"></path><path d="M21.34 42.83C21.34 43.57 21.93 44.16 22.67 44.16C23.41 44.16 24 43.57 24 42.83C24 42.09 23.41 41.5 22.67 41.5C21.93 41.5 21.34 42.09 21.34 42.83Z" id="anMLCO7sq"></path><path d="M16 48.16C16 48.9 16.6 49.49 17.34 49.49C18.07 49.49 18.67 48.9 18.67 48.16C18.67 47.42 18.07 46.83 17.34 46.83C16.6 46.83 16 47.42 16 48.16Z" id="diFaIu5zK"></path><path d="M24 48.16C24 48.9 24.6 49.49 25.33 49.49C26.07 49.49 26.67 48.9 26.67 48.16C26.67 47.42 26.07 46.83 25.33 46.83C24.6 46.83 24 47.42 24 48.16Z" id="ad4CYudSC"></path><path d="M5.34 42.83C5.34 43.57 5.94 44.16 6.67 44.16C7.41 44.16 8.01 43.57 8.01 42.83C8.01 42.09 7.41 41.5 6.67 41.5C5.94 41.5 5.34 42.09 5.34 42.83Z" id="d6AmNLmxY"></path><path d="M16 32.17C16 32.9 16.6 33.5 17.34 33.5C18.07 33.5 18.67 32.9 18.67 32.17C18.67 31.43 18.07 30.83 17.34 30.83C16.6 30.83 16 31.43 16 32.17Z" id="c6OorQ87sS"></path><path d="M50.66 38.83C50.66 39.57 51.26 40.17 51.99 40.17C52.73 40.17 53.33 39.57 53.33 38.83C53.33 38.1 52.73 37.5 51.99 37.5C51.26 37.5 50.66 38.1 50.66 38.83Z" id="bcOUUuBvp"></path><path d="M40 44.16C40 44.9 40.59 45.5 41.33 45.5C42.07 45.5 42.66 44.9 42.66 44.16C42.66 43.43 42.07 42.83 41.33 42.83C40.59 42.83 40 43.43 40 44.16Z" id="g5JfYk8vJ0"></path><path d="M40 33.5C40 32.76 39.4 32.17 38.66 32.17C37.93 32.17 37.33 32.76 37.33 33.5C37.33 34.24 37.93 34.83 38.66 34.83C39.4 34.83 40 34.24 40 33.5Z" id="g8DHusHP27"></path><path d="M40 12.17C40 11.44 39.4 10.84 38.66 10.84C37.93 10.84 37.33 11.44 37.33 12.17C37.33 12.91 37.93 13.51 38.66 13.51C39.4 13.51 40 12.91 40 12.17Z" id="altXH1poQ"></path><path d="M29.33 22.86C29.33 23.6 29.93 24.2 30.67 24.2C31.4 24.2 32 23.6 32 22.86C32 22.13 31.4 21.53 30.67 21.53C29.93 21.53 29.33 22.13 29.33 22.86Z" id="c4YhseM591"></path><path d="M29.33 12.17C29.33 12.91 29.93 13.51 30.67 13.51C31.4 13.51 32 12.91 32 12.17C32 11.44 31.4 10.84 30.67 10.84C29.93 10.84 29.33 11.44 29.33 12.17Z" id="b1cvBZSckx"></path><path d="M24 17.5C24 16.77 23.41 16.17 22.67 16.17C21.93 16.17 21.34 16.77 21.34 17.5C21.34 18.24 21.93 18.84 22.67 18.84C23.41 18.84 24 18.24 24 17.5Z" id="aApgjeBw"></path><path d="M13.34 17.5C13.34 18.24 13.94 18.84 14.67 18.84C15.41 18.84 16 18.24 16 17.5C16 16.77 15.41 16.17 14.67 16.17C13.94 16.17 13.34 16.77 13.34 17.5Z" id="b2UR0teBAo"></path><path d="M45.33 17.5C45.33 18.24 45.93 18.84 46.66 18.84C47.4 18.84 48 18.24 48 17.5C48 16.77 47.4 16.17 46.66 16.17C45.93 16.17 45.33 16.77 45.33 17.5Z" id="d1lr5krokG"></path><path d="M37.33 49.49C37.33 50.23 37.93 50.83 38.66 50.83C39.4 50.83 40 50.23 40 49.49C40 48.76 39.4 48.16 38.66 48.16C37.93 48.16 37.33 48.76 37.33 49.49Z" id="d1P4R1YC9i"></path></defs><g><g><g><use xlink:href="#aJjPeMz8N" opacity="1" fill="#fecd57" fill-opacity="1"></use><g><use xlink:href="#aJjPeMz8N" opacity="1" fill-opacity="0" stroke="#000000" stroke-width="1" stroke-opacity="0"></use></g></g><g><use xlink:href="#aFECiPch" opacity="1" fill="#f5ba45" fill-opacity="1"></use><g><use xlink:href="#aFECiPch" opacity="1" fill-opacity="0" stroke="#000000" stroke-width="1" stroke-opacity="0"></use></g></g><g><use xlink:href="#b8b39vaC8" opacity="1" fill="#f5ba45" fill-opacity="1"></use><g><use xlink:href="#b8b39vaC8" opacity="1" fill-opacity="0" stroke="#000000" stroke-width="1" stroke-opacity="0"></use></g></g><g><use xlink:href="#fTsJbLMR8" opacity="1" fill="#f5ba45" fill-opacity="1"></use><g><use xlink:href="#fTsJbLMR8" opacity="1" fill-opacity="0" stroke="#000000" stroke-width="1" stroke-opacity="0"></use></g></g><g><use xlink:href="#b3ORHE8Qp" opacity="1" fill="#f5ba45" fill-opacity="1"></use><g><use xlink:href="#b3ORHE8Qp" opacity="1" fill-opacity="0" stroke="#000000" stroke-width="1" stroke-opacity="0"></use></g></g><g><use xlink:href="#a3lnDGt3lO" opacity="1" fill="#424953" fill-opacity="1"></use><g><use xlink:href="#a3lnDGt3lO" opacity="1" fill-opacity="0" stroke="#000000" stroke-width="1" stroke-opacity="0"></use></g></g><g><use xlink:href="#b1V5asB99d" opacity="1" fill="#f5ba45" fill-opacity="1"></use><g><use xlink:href="#b1V5asB99d" opacity="1" fill-opacity="0" stroke="#000000" stroke-width="1" stroke-opacity="0"></use></g></g><g><use xlink:href="#a4Gu4TMDY" opacity="1" fill="#f5ba45" fill-opacity="1"></use><g><use xlink:href="#a4Gu4TMDY" opacity="1" fill-opacity="0" stroke="#000000" stroke-width="1" stroke-opacity="0"></use></g></g><g><use xlink:href="#anMLCO7sq" opacity="1" fill="#f5ba45" fill-opacity="1"></use><g><use xlink:href="#anMLCO7sq" opacity="1" fill-opacity="0" stroke="#000000" stroke-width="1" stroke-opacity="0"></use></g></g><g><use xlink:href="#diFaIu5zK" opacity="1" fill="#f5ba45" fill-opacity="1"></use><g><use xlink:href="#diFaIu5zK" opacity="1" fill-opacity="0" stroke="#000000" stroke-width="1" stroke-opacity="0"></use></g></g><g><use xlink:href="#ad4CYudSC" opacity="1" fill="#f5ba45" fill-opacity="1"></use><g><use xlink:href="#ad4CYudSC" opacity="1" fill-opacity="0" stroke="#000000" stroke-width="1" stroke-opacity="0"></use></g></g><g><use xlink:href="#d6AmNLmxY" opacity="1" fill="#f5ba45" fill-opacity="1"></use><g><use xlink:href="#d6AmNLmxY" opacity="1" fill-opacity="0" stroke="#000000" stroke-width="1" stroke-opacity="0"></use></g></g><g><use xlink:href="#c6OorQ87sS" opacity="1" fill="#f5ba45" fill-opacity="1"></use><g><use xlink:href="#c6OorQ87sS" opacity="1" fill-opacity="0" stroke="#000000" stroke-width="1" stroke-opacity="0"></use></g></g><g><use xlink:href="#bcOUUuBvp" opacity="1" fill="#f5ba45" fill-opacity="1"></use><g><use xlink:href="#bcOUUuBvp" opacity="1" fill-opacity="0" stroke="#000000" stroke-width="1" stroke-opacity="0"></use></g></g><g><use xlink:href="#g5JfYk8vJ0" opacity="1" fill="#f5ba45" fill-opacity="1"></use><g><use xlink:href="#g5JfYk8vJ0" opacity="1" fill-opacity="0" stroke="#000000" stroke-width="1" stroke-opacity="0"></use></g></g><g><use xlink:href="#g8DHusHP27" opacity="1" fill="#f5ba45" fill-opacity="1"></use><g><use xlink:href="#g8DHusHP27" opacity="1" fill-opacity="0" stroke="#000000" stroke-width="1" stroke-opacity="0"></use></g></g><g><use xlink:href="#altXH1poQ" opacity="1" fill="#f5ba45" fill-opacity="1"></use><g><use xlink:href="#altXH1poQ" opacity="1" fill-opacity="0" stroke="#000000" stroke-width="1" stroke-opacity="0"></use></g></g><g><use xlink:href="#c4YhseM591" opacity="1" fill="#f5ba45" fill-opacity="1"></use><g><use xlink:href="#c4YhseM591" opacity="1" fill-opacity="0" stroke="#000000" stroke-width="1" stroke-opacity="0"></use></g></g><g><use xlink:href="#b1cvBZSckx" opacity="1" fill="#f5ba45" fill-opacity="1"></use><g><use xlink:href="#b1cvBZSckx" opacity="1" fill-opacity="0" stroke="#000000" stroke-width="1" stroke-opacity="0"></use></g></g><g><use xlink:href="#aApgjeBw" opacity="1" fill="#f5ba45" fill-opacity="1"></use><g><use xlink:href="#aApgjeBw" opacity="1" fill-opacity="0" stroke="#000000" stroke-width="1" stroke-opacity="0"></use></g></g><g><use xlink:href="#b2UR0teBAo" opacity="1" fill="#f5ba45" fill-opacity="1"></use><g><use xlink:href="#b2UR0teBAo" opacity="1" fill-opacity="0" stroke="#000000" stroke-width="1" stroke-opacity="0"></use></g></g><g><use xlink:href="#d1lr5krokG" opacity="1" fill="#f5ba45" fill-opacity="1"></use><g><use xlink:href="#d1lr5krokG" opacity="1" fill-opacity="0" stroke="#000000" stroke-width="1" stroke-opacity="0"></use></g></g><g><use xlink:href="#d1P4R1YC9i" opacity="1" fill="#f5ba45" fill-opacity="1"></use><g><use xlink:href="#d1P4R1YC9i" opacity="1" fill-opacity="0" stroke="#000000" stroke-width="1" stroke-opacity="0"></use></g></g></g></g></svg>