<?xml version="1.0" standalone="no"?>
<!-- Generator: Adobe Illustrator 16.0.0, SVG Export Plug-In . SVG Version: 6.00 Build 0)  -->
<!DOCTYPE svg PUBLIC "-//W3C//DTD SVG 1.1//EN" "http://www.w3.org/Graphics/SVG/1.1/DTD/svg11.dtd">
<svg height="64" width="64" version="1.1" id="Layer_1" xmlns="http://www.w3.org/2000/svg" xmlns:xlink="http://www.w3.org/1999/xlink" x="0px" y="0px"
	   viewBox="0 0 512 512" enable-background="new 0 0 512 512" xml:space="preserve">
<g id="pitchfork_2_">
	
		<rect x="189.151" y="280.214" transform="matrix(0.7071 0.7071 -0.7071 0.7071 274.8566 -60.5076)" fill="#FECD57" width="42.634" height="42.634"/>
	<path fill="#FB6D51" d="M505.675,6.325C497.349-2,483.853-2,475.527,6.325l-265.059,265.06l30.147,30.146l265.06-265.059
		C514,28.146,514,14.65,505.675,6.325z"/>
	<g opacity="0.2">
		<path fill="#FFFFFF" d="M185.023,326.977c-2.078-2.077-2.078-5.451,0-7.529L486.837,17.626c2.077-2.078,5.451-2.078,7.545,0
			c2.076,2.085,2.076,5.459,0,7.537L192.567,326.977C190.475,329.07,187.101,329.07,185.023,326.977z"/>
	</g>
	<g>
		<path fill="#F5BA45" d="M40.551,418.012c-4.17,4.17-4.155,10.918,0,15.089c4.171,4.155,10.918,4.155,15.074,0l113.059-113.06
			l-15.073-15.089L40.551,418.012z"/>
		<path fill="#F5BA45" d="M206.704,358.061l-15.073-15.073L78.571,456.031c-4.155,4.17-4.155,10.918,0,15.089
			c4.171,4.155,10.919,4.155,15.074,0L206.704,358.061z"/>
	</g>
	<path fill="#FECD57" d="M244.396,365.59l-97.986-97.979c-8.326-8.324-21.821-8.324-30.147,0L3.204,380.68
		c-4.171,4.154-4.155,10.902,0,15.057c4.155,4.172,10.903,4.172,15.073,0l0,0l15.074-15.057l0,0l97.985-98.002l97.986,98.002l0,0
		l-97.986,97.969l-15.073,15.074l0,0l0,0c-4.171,4.17-4.171,10.918,0,15.074c4.155,4.154,10.903,4.17,15.073,0l113.06-113.061
		C252.721,387.427,252.721,373.932,244.396,365.59z"/>
</g>
</svg>
