<?xml version="1.0" encoding="UTF-8" standalone="no"?>
<svg
   xmlns:dc="http://purl.org/dc/elements/1.1/"
   xmlns:cc="http://creativecommons.org/ns#"
   xmlns:rdf="http://www.w3.org/1999/02/22-rdf-syntax-ns#"
   xmlns:svg="http://www.w3.org/2000/svg"
   xmlns="http://www.w3.org/2000/svg"
   xmlns:sodipodi="http://sodipodi.sourceforge.net/DTD/sodipodi-0.dtd"
   xmlns:inkscape="http://www.inkscape.org/namespaces/inkscape"
   width="64pt"
   height="63pt"
   viewBox="0 0 64 63"
   version="1.1"
   id="svg42"
   sodipodi:docname="pumpkin_active.svg"
   inkscape:version="0.92.3 (2405546, 2018-03-11)">
  <metadata
     id="metadata48">
    <rdf:RDF>
      <cc:Work
         rdf:about="">
        <dc:format>image/svg+xml</dc:format>
        <dc:type
           rdf:resource="http://purl.org/dc/dcmitype/StillImage" />
        <dc:title></dc:title>
      </cc:Work>
    </rdf:RDF>
  </metadata>
  <defs
     id="defs46" />
  <sodipodi:namedview
     pagecolor="#ffffff"
     bordercolor="#666666"
     borderopacity="1"
     objecttolerance="10"
     gridtolerance="10"
     guidetolerance="10"
     inkscape:pageopacity="0"
     inkscape:pageshadow="2"
     inkscape:window-width="1366"
     inkscape:window-height="705"
     id="namedview44"
     showgrid="false"
     inkscape:zoom="5.6190476"
     inkscape:cx="42.666667"
     inkscape:cy="42"
     inkscape:window-x="-8"
     inkscape:window-y="-8"
     inkscape:window-maximized="1"
     inkscape:current-layer="surface1" />
  <g
     id="surface1">
    <path
       style="fill:#d45400;fill-opacity:1;fill-rule:nonzero;stroke:#a84200;stroke-width:0.97125101;stroke-linecap:butt;stroke-linejoin:round;stroke-miterlimit:4;stroke-opacity:1"
       d="m 466.42771,309.222 c -13.09057,0.0151 -25.40673,5.75558 -36.09961,12.76172 -18.92846,-2.42578 -35.68261,11.31529 -44.49902,26.98493 -33.59766,24.67969 -42.60767,73.22545 -28.50439,111.01339 6.53784,17.64342 18.54126,33.4788 35.07202,42.74498 12.65869,15.91071 33.61255,24.60435 53.70263,21.54576 17.05201,10.48661 40.64185,6.8856 55.01319,-6.76507 7.49096,-1.02455 -3.14925,-39.45855 4.01408,-42.93902 5.37935,-1.98144 12.99536,-21.81164 24.44965,-19.93406 20.32576,3.33179 31.93805,2.17138 38.48725,-0.88346 32.1084,-21.18415 32.06977,-24.80707 22.55341,-61.11846 -5.2124,-21.18415 -18.37744,-40.80134 -37.06762,-52.34263 -9.33765,-16.6038 -29.57667,-30.26953 -48.87745,-23.41406 -6.04638,3.67633 -10.8269,-2.71206 -16.27758,-4.02288 -7.01441,-2.57645 -14.47559,-3.91741 -21.96656,-3.63114 z"
       transform="matrix(0.262295,0,0,0.259259,-91.912008,-74.723354)"
       id="path37"
       inkscape:connector-curvature="0"
       sodipodi:nodetypes="ccccccccscccccc" />
    <path
       style="fill:#542100;fill-opacity:1;fill-rule:nonzero;stroke:#a84200;stroke-width:0.97125101;stroke-linecap:butt;stroke-linejoin:round;stroke-miterlimit:4;stroke-opacity:1"
       d="m 475.98875,288.71586 c -1.48926,-0.0151 -11.18433,2.26004 -11.18433,2.26004 8.45899,3.78181 9.11426,11.22489 7.625,18.36663 -1.07226,-0.0753 -2.11474,-0.1356 -3.18701,-0.15067 -0.93823,-0.0151 -1.87646,-0.0151 -2.8147,0.0301 -13.09057,0.0151 -25.40673,5.74051 -36.09961,12.74665 -18.92846,-2.42578 -35.68261,11.33036 -44.49902,27 -33.59766,24.66462 -42.60767,73.22545 -28.4895,110.99833 6.52295,17.64341 18.52637,33.47879 35.05713,42.74497 12.65869,15.91072 33.59765,24.61942 53.68774,21.5759 17.052,10.47154 40.65674,6.85546 55.02808,-6.7952 3.67849,-0.49572 0.42924,-14.78364 2.19879,-29.61263 1.83401,-15.36913 8.68162,-31.31947 12.33493,-33.0985 12.27148,-4.50502 40.77126,4.39379 52.41726,-1.03031 32.12329,-21.19922 32.05488,-24.80711 22.55341,-61.13356 -5.2124,-21.16909 -18.37744,-40.78628 -37.06762,-52.34264 -9.33765,-16.60379 -29.57667,-30.26953 -48.87745,-23.39899 -6.04638,3.66127 -10.8269,-2.71206 -16.27758,-4.03795 -3.52954,-1.29576 -7.19312,-2.24498 -10.90137,-2.86272 1.90625,-6.7048 2.65088,-14.23829 -1.31055,-21.22936 -0.0298,-0.0151 -0.0893,-0.0301 -0.1936,-0.0301 z m -7.19312,24.37835 c 0.87867,0.0151 1.75733,0.0452 2.63599,0.0904 -0.28296,0.91908 -0.58081,1.8231 -0.87866,2.69699 -0.10425,0.30134 -0.23828,0.72321 -0.34253,1.08482 -5.92725,-4.09822 -15.02661,0.52734 -16.18823,6.19252 -0.99781,4.80636 5.42089,11.91797 10.55883,10.3058 3.09766,-0.96428 4.11035,-0.21093 5.49536,-3.52567 0.56592,2.04911 0.78931,4.41462 0.53614,7.15681 -0.49146,5.34877 -3.76782,8.84431 -5.49536,11.87277 -6.70166,-11.36049 -16.29248,-21.56083 -29.04053,-25.62891 8.6228,-6.22265 19.83691,-10.03459 30.78296,-10.2154 0.64038,-0.0151 1.31054,-0.0452 1.93603,-0.0301 z m 7.50586,0.61774 c 6.88037,1.06976 13.49268,3.48047 19.59864,6.94587 -8.68238,5.36384 -15.29468,13.24387 -20.34327,22.02791 1.95093,-8.28683 2.32325,-16.93527 -1.78711,-22.37445 0.8042,-1.98884 1.69776,-4.20368 2.53174,-6.59933 z m 39.34619,5.25837 c 12.61402,0.0904 23.42603,8.22657 30.75318,17.92969 -22.33887,-10.0798 -49.89014,-3.94754 -67.13574,13.13839 -1.93604,1.35603 -7.50586,8.97991 -4.58692,3.17913 7.10376,-16.31752 20.49219,-33.41852 39.71851,-34.21707 0.4021,-0.0151 0.84887,-0.0301 1.25097,-0.0301 z m -52.60058,1.80804 c 1.2063,-0.1356 2.75512,0.88895 4.6018,4.09821 l -0.0298,0.0301 c -1.63818,3.85714 -7.0293,3.49553 -7.38672,1.02455 -0.20849,-1.53683 0.81909,-4.9269 2.8147,-5.1529 z m -37.08252,4.91183 c 17.51367,0.28627 30.73828,14.99163 38.15478,29.77232 3.26148,5.49944 -1.57861,2.16964 -3.63379,-0.61774 -17.0371,-16.96541 -44.90112,-22.35938 -66.406,-10.90849 7.13354,-9.64285 17.97534,-17.77901 30.15747,-18.21596 0.58081,-0.0301 1.16162,-0.0452 1.72754,-0.0301 z m 95.89331,10.33594 c 6.71655,-0.13561 13.4331,0.99442 19.71777,3.2846 29.1001,10.65234 45.97339,41.56975 47.84986,71.1914 2.57641,31.05302 6.14458,27.09726 -21.36201,43.24904 -0.0384,-21.88744 1.95698,-6.51578 0.55707,-30.30652 -1.83178,-28.02455 -13.34375,-58.36942 -38.88452,-72.81863 -17.06689,-9.73326 -39.45044,-5.42411 -53.18139,8.06082 11.10986,-13.25893 27.71508,-22.54018 45.30322,-22.66071 z m -101.68652,5.78571 c 11.39282,0.12054 22.50268,4.24889 31.63183,10.96875 2.02539,1.58203 8.25049,6.23772 2.6211,3.40514 -21.65381,-8.52791 -46.91163,0.42187 -61.34253,17.91462 -27.5066,32.5145 -29.63623,82.97377 -7.68457,118.99888 -28.68311,-23.38393 -36.56128,-65.36049 -25.91309,-99.59263 7.68457,-26.11105 29.72559,-50.79074 58.40869,-51.66462 0.75952,-0.0301 1.51904,-0.0301 2.27857,-0.0301 z m 89.16186,7.47322 c 16.67969,0.12053 30.99146,11.55636 39.77808,25.08649 19.59863,30.94755 19.50927,49.0731 14.04446,77.83617 -5.3124,11.07661 -29.83755,-5.49169 -41.91193,2.05893 -3.93303,2.45949 -18.15011,18.61013 -19.7054,33.65296 -1.58068,15.28844 3.90086,29.96438 -0.42591,29.573 -1.33038,-6.0088 0.61027,-16.36825 1.6815,-26.46021 0.66966,-6.30876 -1.17052,-13.45391 2.33258,-16.46371 14.8332,-22.41703 26.37512,-31.10404 21.42244,-55.28252 -5.28686,-24.69475 -19.89648,-50.88114 -45.40747,-58.85156 5.85278,-6.19252 16.93286,-10.99888 26.56836,-11.11942 0.53613,-0.0151 1.08716,-0.0452 1.62329,-0.0301 z m -74.50757,7.68415 c 7.10376,-0.19587 14.0437,1.13002 20.44751,3.90234 -2.78491,0.85882 -5.45068,2.10938 -7.99731,3.5106 -25.10889,14.38895 -36.45703,44.46262 -38.34839,72.1105 -1.84668,30.52566 6.98462,64.32087 31.78076,83.93805 -14.17773,1.40123 -28.25122,-4.12835 -38.66113,-13.62053 -27.41724,-25.2673 -33.43384,-67.5 -21.96655,-101.86775 7.90795,-23.95647 27.99804,-47.06919 54.74511,-47.97321 z m 34.78906,5.68024 c 10.38013,0.13561 20.37305,4.76116 28.16187,11.60157 23.54517,21.71149 31.33903,49.43164 27.25846,80.18331 -1.35947,1.75914 -3.64003,-3.28396 -6.19334,-0.96516 -5.6928,5.16995 -12.74147,18.31439 -13.96043,22.23483 -5.97942,19.23113 -2.31085,39.75095 -21.17818,47.80036 -17.87109,7.71429 -38.78027,-0.76841 -50.33691,-15.56417 -22.97925,-28.8231 -26.0769,-70.52846 -13.12036,-104.41406 7.65478,-19.84319 24.40893,-39.92746 47.26904,-40.83148 0.69995,-0.0452 1.3999,-0.0452 2.09985,-0.0452 z"
       transform="matrix(0.262295,0,0,0.259259,-91.912008,-74.723354)"
       id="path39"
       inkscape:connector-curvature="0"
       sodipodi:nodetypes="cccccccccccscccccccccccccccccccccccccccccccccccccccccccccccccccccccccccccccsccccsscscccccccccccccccccssccccc" />
  </g>
</svg>
