<?xml version="1.0" encoding="UTF-8"?>
<svg xmlns="http://www.w3.org/2000/svg" xmlns:xlink="http://www.w3.org/1999/xlink" width="64pt" height="63pt" viewBox="0 0 64 63" version="1.1">
<g id="surface1">
<path style="fill-rule:nonzero;fill:rgb(83.137255%,33.333333%,0%);fill-opacity:1;stroke-width:0.971251;stroke-linecap:butt;stroke-linejoin:round;stroke:rgb(66.666667%,26.666667%,0%);stroke-opacity:1;stroke-miterlimit:4;" d="M 466.427714 309.221998 C 453.337137 309.237065 441.020975 314.977579 430.328104 321.983717 C 411.399637 319.557936 394.645487 333.299007 385.829081 348.96865 C 352.231425 373.648338 343.221415 422.194096 357.324686 459.982043 C 363.862528 477.625458 375.865946 493.460838 392.396708 502.727021 C 405.055399 518.637735 426.009257 527.331373 446.099344 524.272779 C 463.151346 534.759387 486.74119 531.158382 501.112528 517.507713 C 508.603495 516.483159 516.764628 517.929588 523.927958 514.449119 C 536.199442 509.929029 544.509501 498.990413 556.170389 493.551239 C 588.278788 472.367088 600.13328 428.944096 590.616923 392.632713 C 585.40452 371.448561 572.239481 351.831373 553.549296 340.290079 C 544.211649 323.686284 523.972635 310.020547 504.671854 316.876016 C 498.625468 320.552355 493.84495 314.163963 488.394266 312.853137 C 481.379862 310.276686 473.91868 308.935726 466.427714 309.221998 Z M 466.427714 309.221998 " transform="matrix(0.262295,0,0,0.259259,-91.912008,-74.723354)"/>
<path style="fill-rule:nonzero;fill:rgb(33.333333%,13.333333%,0%);fill-opacity:1;stroke-width:0.971251;stroke-linecap:butt;stroke-linejoin:round;stroke:rgb(66.666667%,26.666667%,0%);stroke-opacity:1;stroke-miterlimit:4;" d="M 475.988749 288.71586 C 474.499491 288.700793 464.804423 290.975904 464.804423 290.975904 C 473.263407 294.757713 473.91868 302.200793 472.429423 309.342534 C 471.357157 309.267199 470.314676 309.206931 469.242411 309.191864 C 468.304178 309.176797 467.365946 309.176797 466.427714 309.221998 C 453.337137 309.237065 441.020975 314.962512 430.328104 321.96865 C 411.399637 319.542869 394.645487 333.299007 385.829081 348.96865 C 352.231425 373.633271 343.221415 422.194096 357.339579 459.966976 C 363.862528 477.610391 375.865946 493.445771 392.396708 502.711954 C 405.055399 518.622668 425.994364 527.331373 446.084452 524.287846 C 463.136454 534.759387 486.74119 531.143315 501.112528 517.492646 C 508.603495 516.483159 516.749735 517.929588 523.927958 514.434052 C 536.199442 509.929029 544.524393 498.990413 556.170389 493.566306 C 588.29368 472.367088 600.118387 428.944096 590.616923 392.617646 C 585.40452 371.448561 572.239481 351.831373 553.549296 340.275012 C 544.211649 323.671217 523.972635 310.00548 504.671854 316.876016 C 498.625468 320.537288 493.84495 314.163963 488.394266 312.83807 C 484.864725 311.542311 481.201151 310.593092 477.492899 309.975346 C 479.399149 303.270547 480.143778 295.737065 476.182352 288.745994 C 476.152567 288.730927 476.092997 288.71586 475.988749 288.71586 Z M 468.795634 313.094208 C 469.674296 313.109275 470.552958 313.139409 471.43162 313.18461 C 471.148661 314.103695 470.850809 315.007713 470.552958 315.881596 C 470.44871 316.182936 470.314676 316.604811 470.210428 316.966418 C 464.283182 312.868204 455.183817 317.493762 454.022196 323.15894 C 453.024393 327.965302 459.443094 335.076909 464.581034 333.464744 C 467.67869 332.500458 468.691385 333.253806 470.076395 329.939074 C 470.642313 331.988181 470.865702 334.353695 470.612528 337.095882 C 470.121073 342.444654 466.844706 345.94019 465.117167 348.96865 C 458.415507 337.608159 448.824686 327.407824 436.076639 323.339744 C 444.699442 317.117088 455.913553 313.305146 466.859598 313.124342 C 467.499979 313.109275 468.170145 313.079141 468.795634 313.094208 Z M 476.301493 313.711954 C 483.181864 314.781708 489.794169 317.192422 495.900126 320.657824 C 487.217753 326.021663 480.605448 333.901686 475.556864 342.685726 C 477.507792 334.398896 477.880106 325.750458 473.769755 320.311284 C 474.573954 318.322445 475.467509 316.107601 476.301493 313.711954 Z M 515.647684 318.970324 C 528.261698 319.060726 539.07371 327.196887 546.400858 336.900012 C 524.061991 326.820213 496.510721 332.952467 479.265116 350.038404 C 477.329081 351.394431 471.759257 359.018315 474.678202 353.217534 C 481.781962 336.900012 495.170389 319.799007 514.396708 319.000458 C 514.798807 318.985391 515.245585 318.970324 515.647684 318.970324 Z M 463.047098 320.77836 C 464.253397 320.642757 465.802225 321.667311 467.648905 324.876574 C 467.648905 324.876574 467.61912 324.906708 467.61912 324.906708 C 465.980936 328.763851 460.589823 328.402244 460.232401 325.931262 C 460.023905 324.394431 461.051493 321.004364 463.047098 320.77836 Z M 425.964579 325.69019 C 443.478251 325.976463 456.70286 340.68182 464.119364 355.462512 C 467.380839 360.961954 462.540751 357.632154 460.485575 354.844766 C 443.448466 337.879364 415.584452 332.485391 394.079569 343.936284 C 401.213114 334.293427 412.054911 326.157266 424.23704 325.720324 C 424.81785 325.69019 425.398661 325.675123 425.964579 325.69019 Z M 521.857889 336.026128 C 528.574442 335.890525 535.290995 337.020547 541.575663 339.310726 C 570.67576 349.96307 587.549051 380.88048 589.425516 410.502132 C 592.001932 441.555146 578.777323 475.696887 551.270731 491.848672 C 564.971903 472.020547 570.020487 447.235391 568.620585 423.444654 C 566.788798 395.420101 555.276835 365.075235 529.736063 350.626016 C 512.669169 340.892757 490.285624 345.201909 476.554667 358.686842 C 487.66453 345.427913 504.269755 336.146663 521.857889 336.026128 Z M 420.171366 341.811842 C 431.564188 341.932378 442.674051 346.060726 451.803202 352.780592 C 453.828593 354.362623 460.05369 359.018315 454.424296 356.185726 C 432.770487 347.657824 407.512675 356.607601 393.081766 374.100346 C 365.575175 406.614855 363.445536 457.074119 385.397196 493.09923 C 356.714091 469.715302 348.835917 427.738739 359.48411 393.506596 C 367.16868 367.395547 389.209696 342.71586 417.892801 341.841976 C 418.652323 341.811842 419.411844 341.811842 420.171366 341.811842 Z M 509.333231 349.285056 C 526.012919 349.405592 540.324686 360.841418 549.111307 374.371552 C 568.70994 405.319096 569.752421 446.903918 553.996073 479.493762 C 545.194559 497.845324 527.085184 514.870994 505.431376 512.912288 C 527.680887 487.855927 533.116678 451.348672 526.549051 419.286172 C 521.262186 394.591418 506.652567 368.405034 481.141581 360.43461 C 486.994364 354.242088 498.074442 349.435726 507.70994 349.31519 C 508.246073 349.300123 508.797098 349.269989 509.333231 349.285056 Z M 434.825663 356.969208 C 441.929423 356.773338 448.869364 358.09923 455.273173 360.871552 C 452.48826 361.730369 449.822489 362.980927 447.275858 364.382154 C 422.166971 378.771105 410.818827 408.844766 408.927469 436.492646 C 407.08079 467.018315 415.912089 500.813516 440.708231 520.430704 C 426.530497 521.831931 412.45701 516.302355 402.047098 506.810168 C 374.629862 481.542869 368.61326 439.310168 380.080546 404.942422 C 387.988505 380.985949 408.078593 357.873226 434.825663 356.969208 Z M 469.614725 362.649454 C 479.994852 362.785056 489.987772 367.410614 497.776591 374.251016 C 521.321757 395.962512 528.09788 430.375458 524.017313 461.127132 C 520.383524 486.047891 508.141825 513.078025 483.703104 523.504364 C 465.83201 531.21865 444.922831 522.735949 433.36619 507.94019 C 410.386942 479.117088 407.289286 437.41173 420.245829 403.526128 C 427.900614 383.682936 444.654764 363.598672 467.514872 362.694654 C 468.214823 362.649454 468.914774 362.649454 469.614725 362.649454 Z M 469.614725 362.649454 " transform="matrix(0.262295,0,0,0.259259,-91.912008,-74.723354)"/>
</g>
</svg>
