<?xml version="1.0" encoding="UTF-8"?>
<svg xmlns="http://www.w3.org/2000/svg" xmlns:xlink="http://www.w3.org/1999/xlink" width="64pt" height="63pt" viewBox="0 0 64 63" version="1.1">
 <g>
  <title>Layer 1</title>
  <g id="surface1">
   <path id="svg_1" fill-rule="nonzero" fill="rgb(83.137255%,33.333333%,0%)" stroke-width="0.971251" stroke-linejoin="round" stroke="rgb(66.666667%,26.666667%,0%)" stroke-miterlimit="4" d="m30.429648,5.445232c-3.433591,0.003904 -6.664058,1.492186 -9.468747,3.308591c-4.96484,-0.628905 -9.35937,2.933591 -11.67187,6.996086c-8.812496,6.398432 -11.175779,18.984357 -7.476559,28.78122c1.714843,4.574215 4.86328,8.67968 9.199215,11.082021c3.320311,4.124997 8.816404,6.378899 14.085931,5.585932c4.472657,2.718748 10.660154,1.785154 14.429685,-1.753905c1.964844,-0.265624 4.105468,0.109376 5.984373,-0.792967c3.218748,-1.171874 5.398435,-4.00781 8.457028,-5.417963c8.421873,-5.492182 11.531246,-16.749983 9.035153,-26.164037c-1.367186,-5.492182 -4.820311,-10.578115 -9.722651,-13.570298c-2.449219,-4.304685 -7.757813,-7.847648 -12.820311,-6.070306c-1.585935,0.953122 -2.839842,-0.703126 -4.269528,-1.042968c-1.839845,-0.667968 -3.796875,-1.015624 -5.761719,-0.941406zm0,0"/>
   <path id="svg_2" fill-rule="nonzero" fill="rgb(33.333333%,13.333333%,0%)" stroke-width="0.971251" stroke-linejoin="round" stroke="rgb(66.666667%,26.666667%,0%)" stroke-miterlimit="4" d="m32.937461,0.128831c-0.390625,-0.003907 -2.933594,0.585936 -2.933594,0.585936c2.218751,0.980468 2.390625,2.910154 1.999999,4.761714c-0.281248,-0.01953 -0.554686,-0.035156 -0.835937,-0.039063c-0.246093,-0.003904 -0.492186,-0.003904 -0.738282,0.007814c-3.433591,0.003904 -6.664058,1.488279 -9.468747,3.304684c-4.96484,-0.628905 -9.35937,2.937498 -11.67187,6.999993c-8.812496,6.394525 -11.175779,18.984357 -7.472653,28.777316c1.710937,4.574213 4.859374,8.679678 9.19531,11.082018c3.320311,4.124997 8.812496,6.382806 14.082026,5.593746c4.472654,2.714841 10.66406,1.777342 14.43359,-1.761717c1.964844,-0.261719 4.101559,0.113281 5.984373,-0.79297c3.218748,-1.167967 5.402341,-4.003903 8.457028,-5.410149c8.425778,-5.496089 11.527341,-16.75389 9.035153,-26.171849c-1.367186,-5.488277 -4.820311,-10.57421 -9.722651,-13.570301c-2.449219,-4.304682 -7.757813,-7.847648 -12.820311,-6.066399c-1.585935,0.949217 -2.839842,-0.703126 -4.269528,-1.046875c-0.925781,-0.335937 -1.886719,-0.582031 -2.859375,-0.742186c0.5,-1.73828 0.695313,-3.691405 -0.343751,-5.503903c-0.007811,-0.003904 -0.023436,-0.007811 -0.05078,-0.007811zm-1.886719,6.320307c0.230471,0.003907 0.460939,0.011719 0.691407,0.023437c-0.074219,0.238282 -0.152344,0.472655 -0.230468,0.699219c-0.027344,0.078125 -0.0625,0.187499 -0.089844,0.281249c-1.554688,-1.0625 -3.941405,0.136718 -4.246092,1.605467c-0.261721,1.246092 1.421872,3.089841 2.769528,2.671871c0.812501,-0.249998 1.078127,-0.054686 1.441405,-0.914062c0.148438,0.53125 0.207032,1.144533 0.140627,1.855467c-0.128908,1.386717 -0.98828,2.292967 -1.441405,3.078122c-1.757812,-2.945309 -4.273436,-5.589839 -7.617186,-6.644526c2.261717,-1.613278 5.203122,-2.601558 8.074216,-2.648434c0.167968,-0.003904 0.343748,-0.011719 0.507811,-0.007811zm1.96875,0.160155c1.804687,0.277345 3.539063,0.902343 5.140625,1.800779c-2.277345,1.390624 -4.011718,3.433592 -5.335938,5.710934c0.511719,-2.148435 0.609377,-4.390621 -0.46875,-5.800778c0.210938,-0.515622 0.445314,-1.089842 0.664063,-1.710936zm10.320309,1.36328c3.308594,0.02344 6.144531,2.132812 8.066405,4.648433c-5.859374,-2.613279 -13.085934,-1.023435 -17.609369,3.406246c-0.507814,0.351563 -1.96875,2.328122 -1.203126,0.824218c1.863281,-4.230464 5.374999,-8.664052 10.417967,-8.871083c0.105469,-0.003907 0.222657,-0.007814 0.328123,-0.007814zm-13.796869,0.468751c0.316406,-0.035156 0.722657,0.230468 1.207032,1.062498c0,0 -0.007814,0.007814 -0.007814,0.007814c-0.429686,0.999998 -1.84375,0.906248 -1.9375,0.265624c-0.054686,-0.398437 0.214843,-1.277343 0.738282,-1.335936zm-9.72656,1.273436c4.593748,0.074218 8.062497,3.886715 10.007808,7.718742c0.85547,1.425779 -0.414062,0.562499 -0.953125,-0.160155c-4.468746,-4.398435 -11.777339,-5.79687 -17.417962,-2.828124c1.871092,-2.499996 4.714842,-4.609368 7.910154,-4.722652c0.152344,-0.007811 0.304687,-0.011719 0.453125,-0.007811zm25.152336,2.679685c1.761717,-0.035156 3.523435,0.257812 5.171872,0.851562c7.632811,2.761715 12.05859,10.777332 12.550779,18.457011c0.675779,8.050775 -2.79297,16.902328 -10.007811,21.089823c3.593748,-5.140619 4.917968,-11.566394 4.550782,-17.734358c-0.480469,-7.265617 -3.499999,-15.132795 -10.199218,-18.878885c-4.47656,-2.523435 -10.347653,-1.406249 -13.949213,2.08984c2.914061,-3.437497 7.269527,-5.843745 11.882808,-5.874993zm-26.671866,1.499997c2.98828,0.031251 5.90234,1.101563 8.296871,2.843747c0.53125,0.410156 2.164062,1.617185 0.687501,0.882813c-5.679686,-2.210937 -12.304683,0.109374 -16.089839,4.644526c-7.214841,8.429677 -7.773435,21.511697 -2.015624,30.851531c-7.523436,-6.062494 -9.589841,-16.945295 -6.796874,-25.820286c2.015624,-6.769525 7.796874,-13.167956 15.320307,-13.394518c0.199218,-0.007814 0.398437,-0.007814 0.597658,-0.007814zm23.38671,1.9375c4.374999,0.031248 8.128905,2.99609 10.433591,6.503898c5.140623,8.023431 5.41406,18.80467 1.281248,27.253879c-2.308592,4.757807 -7.058592,9.171865 -12.738275,8.664055c5.835935,-6.496087 7.261716,-15.960923 5.539059,-24.273414c-1.386717,-6.402336 -5.218747,-13.191393 -11.910152,-15.257797c1.535155,-1.605467 4.441405,-2.851559 6.968748,-2.88281c0.140624,-0.003907 0.285157,-0.011719 0.425781,-0.007811zm-19.542963,1.992185c1.863281,-0.050781 3.683592,0.292968 5.36328,1.011717c-0.730468,0.222657 -1.429686,0.546876 -2.097654,0.910155c-6.585936,3.730465 -9.562497,11.527334 -10.058591,18.695296c-0.484375,7.914052 1.832031,16.675764 8.335934,21.761695c-3.718748,0.363281 -7.410154,-1.070309 -10.140621,-3.531245c-7.191405,-6.550775 -8.769529,-17.499983 -5.761716,-26.410131c2.074216,-6.21093 7.343746,-12.203111 14.359369,-12.437486zm9.124999,1.472653c2.722654,0.035158 5.343747,1.234374 7.386715,3.007811c6.17578,5.628899 7.953123,14.550766 6.88281,22.523413c-0.953125,6.460931 -4.164062,13.468738 -10.574216,16.171858c-4.687498,1.999999 -10.171871,-0.199217 -13.20312,-4.035151c-6.027342,-7.472648 -6.83984,-18.285138 -3.441405,-27.070285c2.007811,-5.144526 6.40234,-10.351553 12.398433,-10.585929c0.183593,-0.011719 0.367187,-0.011719 0.550783,-0.011719zm0,0"/>
  </g>
  <path stroke="#ff7f00" id="svg_3" d="m40.062321,59.429065c0,0 1.782779,-8.54435 1.707648,-8.615787c0.07513,0.071437 2.897863,-4.764987 2.897863,-4.764987c0,0 3.268427,-3.224283 3.268427,-3.224283c0,0 3.268427,-0.967285 3.193297,-1.038722c0.07513,0.071437 3.937817,-0.089777 3.862687,-0.161214c0.07513,0.071437 4.680642,0.393866 4.605511,0.322428c0.075131,0.071437 2.600733,1.36115 2.525603,1.289713c0.075131,0.071437 -6.758854,7.97093 -6.833984,7.899493c0.075131,0.071437 -3.341862,3.779363 -3.341862,3.779363c0,0 -4.902641,3.546711 -4.977771,3.475274c0.07513,0.071437 -3.936121,0.877508 -3.936121,0.877508c0,0 -2.971298,0.161214 -2.971298,0.161214z" stroke-width="0.5" fill="#fff"/>
 </g>
</svg>