<?xml version="1.0" standalone="no"?><!-- Generator: Gravit.io --><svg xmlns="http://www.w3.org/2000/svg" xmlns:xlink="http://www.w3.org/1999/xlink" style="isolation:isolate" viewBox="0 0 64 64" width="64" height="64"><defs><clipPath id="_clipPath_oJnIdhyY27zEayMsXGbCd2IDWWq8DrjR"><rect width="64" height="64"/></clipPath></defs><g clip-path="url(#_clipPath_oJnIdhyY27zEayMsXGbCd2IDWWq8DrjR)"><g><path d=" M 39.832 11.885 C 37.613 8.617 33.498 6.428 28.795 6.428 C 21.719 6.428 15.974 11.382 15.974 17.485 C 15.974 17.862 15.996 18.235 16.05 18.6 C 10.839 19.607 7 23.105 7 27.26 C 7 32.213 12.457 36.234 19.179 36.234 C 20.098 36.234 20.994 36.159 21.845 35.996 C 23.389 39.137 27.357 41.362 32 41.362 C 37.272 41.362 41.675 38.493 42.647 34.677 C 43.547 34.858 44.49 34.952 45.462 34.952 C 51.83 34.952 57 30.931 57 25.978 C 57 21.79 53.305 18.269 48.307 17.299 C 47.025 14.216 43.728 12.001 39.832 11.885 Z " fill-rule="evenodd" fill="rgb(235,235,235)" vector-effect="non-scaling-stroke" stroke-width="1" stroke="rgb(185,185,185)" stroke-linejoin="miter" stroke-linecap="square" stroke-miterlimit="3"/><path d=" M 34.172 47.824 L 34.215 47.824 L 33.108 45.316 L 32 42.807 L 30.892 45.316 L 29.785 47.824 L 29.828 47.824 C 29.614 48.193 29.492 48.622 29.492 49.078 C 29.492 50.463 30.616 51.587 32 51.587 C 33.384 51.587 34.508 50.463 34.508 49.078 C 34.508 48.622 34.386 48.193 34.172 47.824 Z " fill-rule="evenodd" fill="rgb(150,232,232)"/><path d=" M 25.32 53.977 L 25.363 53.977 L 24.255 51.468 L 23.148 48.96 L 22.04 51.468 L 20.933 53.977 L 20.976 53.977 C 20.762 54.346 20.64 54.774 20.64 55.231 C 20.64 56.615 21.763 57.739 23.148 57.739 C 24.532 57.739 25.656 56.615 25.656 55.231 C 25.656 54.774 25.534 54.346 25.32 53.977 Z " fill-rule="evenodd" fill="rgb(150,232,232)"/><path d=" M 41.888 53.977 L 41.931 53.977 L 40.824 51.468 L 39.716 48.96 L 38.608 51.468 L 37.501 53.977 L 37.544 53.977 C 37.33 54.346 37.208 54.774 37.208 55.231 C 37.208 56.615 38.332 57.739 39.716 57.739 C 41.1 57.739 42.224 56.615 42.224 55.231 C 42.224 54.774 42.102 54.346 41.888 53.977 Z " fill-rule="evenodd" fill="rgb(150,232,232)"/><path d=" M 20.304 43.539 L 20.346 43.539 L 19.239 41.03 L 18.131 38.522 L 17.024 41.03 L 15.916 43.539 L 15.959 43.539 C 15.745 43.908 15.623 44.336 15.623 44.793 C 15.623 46.177 16.747 47.301 18.131 47.301 C 19.516 47.301 20.64 46.177 20.64 44.793 C 20.64 44.336 20.517 43.908 20.304 43.539 Z " fill-rule="evenodd" fill="rgb(150,232,232)"/><path d=" M 47.569 43.539 L 47.612 43.539 L 46.504 41.03 L 45.396 38.522 L 44.289 41.03 L 43.181 43.539 L 43.224 43.539 C 43.01 43.908 42.888 44.336 42.888 44.793 C 42.888 46.177 44.012 47.301 45.396 47.301 C 46.781 47.301 47.905 46.177 47.905 44.793 C 47.905 44.336 47.782 43.908 47.569 43.539 Z " fill-rule="evenodd" fill="rgb(150,232,232)"/></g></g></svg>