<?xml version="1.0" encoding="UTF-8" standalone="no"?>
<svg
   xmlns:dc="http://purl.org/dc/elements/1.1/"
   xmlns:cc="http://creativecommons.org/ns#"
   xmlns:rdf="http://www.w3.org/1999/02/22-rdf-syntax-ns#"
   xmlns:svg="http://www.w3.org/2000/svg"
   xmlns="http://www.w3.org/2000/svg"
   id="svg8"
   version="1.1"
   viewBox="0 0 79.374996 79.375"
   height="300"
   width="300">
  <defs
     id="defs2" />
  <metadata
     id="metadata5">
    <rdf:RDF>
      <cc:Work
         rdf:about="">
        <dc:format>image/svg+xml</dc:format>
        <dc:type
           rdf:resource="http://purl.org/dc/dcmitype/StillImage" />
        <dc:title></dc:title>
      </cc:Work>
    </rdf:RDF>
  </metadata>
  <g
     transform="translate(-68.265881,-144.61681)"
     id="layer1">
    <g
       transform="matrix(0.47236072,0,0,0.47236072,43.980592,117.59173)"
       id="g862">
      <path
         id="path832"
         d="m 143.13824,223.66048 c -0.1589,-0.25665 -0.37385,-1.10102 -0.47766,-1.87637 -0.17035,-1.27228 -0.32634,-1.4557 -1.59987,-1.88124 -3.16393,-1.05721 -23.38736,-4.99931 -25.64705,-4.99931 -0.51085,0 -0.62128,0.42631 -0.70825,2.73403 l -0.10303,2.73403 h -4.05695 -4.05694 l -0.17639,-2.29306 -0.17639,-2.29305 -1.72976,-0.10974 c -2.08163,-0.13205 -2.31445,0.14048 -2.32178,2.7178 l -0.005,1.90252 -3.583704,-0.24682 c -5.79401,-0.39906 -5.58759,-0.30192 -5.59393,-2.63217 -0.007,-2.66443 -0.22947,-2.93239 -2.32177,-2.79966 l -1.72976,0.10973 -0.1058,2.02847 c -0.095,1.822 -0.18481,2.02868 -0.88194,2.0305 -1.6494,0.004 -8.56214,-1.18042 -9.02708,-1.54709 -0.40303,-0.31784 -0.44843,-1.63728 -0.25626,-7.44631 0.94196,-28.47312 0.8079,-26.68617 2.32218,-30.9519 1.34435,-3.78704 0.77205,-10.2531 -2.16305,-24.43867 -2.20109,-10.63806 -3.15255,-16.10722 -4.69493,-26.9875 -2.49502,-17.60036 -4.65366,-36.868736 -5.49351,-49.036107 -0.45688,-6.61898 -0.3398,-17.77985 0.19205,-18.30833 0.81778,-0.81259 55.228384,-1.98352 68.438894,-1.47282 4.65666,0.18002 8.90322,0.49361 9.4368,0.69688 1.27138,0.48434 1.27222,0.46176 -0.45092,12.1176 -6.32349,42.773987 -6.99859,49.380657 -6.34961,62.138757 0.82422,16.20301 2.89473,32.20963 5.31242,41.06898 1.67638,6.1429 3.75514,8.26141 13.04158,13.29094 2.42535,1.31357 5.29271,2.92789 6.37191,3.58737 2.96738,1.81334 5.64823,2.19046 18.14615,2.55266 12.7697,0.37008 13.66305,0.54173 16.31904,3.13549 2.38778,2.33185 3.3956,4.55764 3.54973,7.83969 0.11274,2.40064 0.0363,2.77495 -0.82529,4.03903 -0.93477,1.37152 -0.94304,1.43357 -0.53121,3.98647 0.47681,2.95572 0.35849,3.24334 -1.78384,4.33627 -1.28035,0.65319 -6.05127,2.10212 -6.92167,2.10212 -0.24089,0 -0.57167,-0.51594 -0.73507,-1.14653 -0.28467,-1.09855 -0.36996,-1.14652 -2.03856,-1.14652 h -1.74146 l -0.1093,1.51606 c -0.12161,1.68686 -0.82404,2.1881 -3.06632,2.1881 -1.08403,0 -1.1992,-0.10157 -1.29995,-1.14652 -0.10856,-1.12591 -0.14227,-1.14653 -1.87443,-1.14653 h -1.76389 l -0.10789,1.29606 c -0.0593,0.71284 -0.29747,1.45225 -0.52917,1.64313 -0.2317,0.19087 -1.44876,0.40139 -2.70458,0.46782 l -2.28331,0.12077 -0.1896,-1.05834 c -0.1808,-1.0092 -0.27132,-1.05833 -1.95003,-1.05833 -1.73864,0 -1.76261,0.0151 -1.93681,1.21986 -0.19998,1.38302 -0.82819,1.6852 -3.62471,1.74359 -1.48751,0.031 -1.72362,-0.0679 -2.01974,-0.84678 -0.29504,-0.77604 -0.54404,-0.88195 -2.07342,-0.88195 -1.59363,0 -1.76724,0.0836 -2.08851,1.00517 -0.31717,0.90983 -0.54494,1.02525 -2.40118,1.21683 -2.28183,0.23551 -2.96189,-0.0821 -2.96189,-1.38325 0,-0.78148 -0.13248,-0.83875 -1.94027,-0.83875 -1.91203,0 -1.94028,0.0151 -1.94028,1.03751 0,0.57064 -0.11906,1.10641 -0.26459,1.19061 -0.14552,0.0842 -1.87526,0.26388 -3.84387,0.39927 -2.79589,0.1923 -3.64251,0.14404 -3.86818,-0.22047 z"
         style="fill:#f5da5b;stroke-width:0.35277778" />
      <path
         id="path830"
         d="m 143.13824,223.66048 c -0.1589,-0.25665 -0.37385,-1.10102 -0.47766,-1.87637 -0.17035,-1.27228 -0.32634,-1.4557 -1.59987,-1.88124 -3.16393,-1.05721 -23.38736,-4.99931 -25.64705,-4.99931 -0.51085,0 -0.62128,0.42631 -0.70825,2.73403 l -0.10303,2.73403 h -4.05695 -4.05694 l -0.17639,-2.29306 -0.17639,-2.29305 -1.72976,-0.10974 c -2.08163,-0.13205 -2.31445,0.14048 -2.32178,2.7178 l -0.005,1.90252 -3.583704,-0.24682 c -5.79401,-0.39906 -5.58759,-0.30192 -5.59393,-2.63217 -0.007,-2.66443 -0.22947,-2.93239 -2.32177,-2.79966 l -1.72976,0.10973 -0.1058,2.02847 c -0.095,1.822 -0.18481,2.02868 -0.88194,2.0305 -1.55237,0.004 -8.54897,-1.16998 -8.97823,-1.50655 -0.47117,-0.36943 -0.64653,-9.37396 -0.22373,-11.48794 l 0.21724,-1.08623 1.28206,1.02373 c 1.67957,1.34115 6.69962,2.99255 11.91629,3.92 3.26714,0.58085 5.95813,0.76634 12.296334,0.84759 10.4007,0.13333 17.48891,1.00988 35.27777,4.36254 11.13501,2.09862 13.66073,2.33844 24.51806,2.32806 8.33659,-0.008 10.4679,-0.12499 15.15,-0.83184 6.9176,-1.04434 14.13551,-2.85775 17.80102,-4.47229 1.57076,-0.69187 3.03127,-1.33533 3.24558,-1.42991 0.62654,-0.27649 1.37776,5.04311 0.80897,5.72848 -0.68938,0.83065 -2.81316,1.80404 -5.65338,2.5911 -3.34884,0.92801 -3.40964,0.92106 -3.75967,-0.42974 -0.28467,-1.09855 -0.36996,-1.14652 -2.03856,-1.14652 h -1.74146 l -0.1093,1.51606 c -0.12161,1.68686 -0.82404,2.1881 -3.06632,2.1881 -1.08403,0 -1.1992,-0.10157 -1.29995,-1.14652 -0.10856,-1.12591 -0.14227,-1.14653 -1.87443,-1.14653 h -1.76389 l -0.10789,1.29606 c -0.0593,0.71284 -0.29747,1.45225 -0.52917,1.64313 -0.2317,0.19087 -1.44876,0.40139 -2.70458,0.46782 l -2.28331,0.12077 -0.1896,-1.05834 c -0.1808,-1.0092 -0.27132,-1.05833 -1.95003,-1.05833 -1.73864,0 -1.76261,0.0151 -1.93681,1.21986 -0.19998,1.38302 -0.82819,1.6852 -3.62471,1.74359 -1.48751,0.031 -1.72362,-0.0679 -2.01974,-0.84678 -0.29504,-0.77604 -0.54404,-0.88195 -2.07342,-0.88195 -1.59363,0 -1.76724,0.0836 -2.08851,1.00517 -0.31717,0.90983 -0.54494,1.02525 -2.40118,1.21683 -2.28183,0.23551 -2.96189,-0.0821 -2.96189,-1.38325 0,-0.78148 -0.13248,-0.83875 -1.94027,-0.83875 -1.91203,0 -1.94028,0.0151 -1.94028,1.03751 0,0.57064 -0.11906,1.10641 -0.26459,1.19061 -0.14552,0.0842 -1.87526,0.26388 -3.84387,0.39927 -2.79589,0.1923 -3.64251,0.14404 -3.86818,-0.22047 z m 12.20997,-6.9934 c -5.06143,-0.41768 -8.11243,-0.86972 -16.75694,-2.48271 -16.95331,-3.16335 -22.63314,-3.85675 -34.57223,-4.22063 -8.492404,-0.25883 -10.446774,-0.425 -13.934724,-1.18484 -5.08423,-1.10757 -7.87574,-2.07662 -9.45752,-3.28311 l -1.2344,-0.94152 0.22232,-9.20105 c 0.23792,-9.84652 0.52526,-12.44632 1.75235,-15.85464 0.6258,-1.73822 0.77536,-2.89722 0.75749,-5.87002 -0.0294,-4.8792 -0.46029,-7.74203 -3.34557,-22.225 -5.49364,-27.57602 -10.77087,-74.476347 -9.88393,-87.841667 l 0.19899,-2.99861 2.11667,-0.22336 c 8.31734,-0.87766 69.560354,-1.5353 73.730554,-0.79172 1.69092,0.3015 1.76808,0.36548 1.86529,1.54674 0.0558,0.67772 -0.92797,8.13785 -2.1861,16.57806 -4.53781,30.442227 -5.56518,39.620947 -5.53398,49.441717 0.0609,19.18216 3.61569,45.32445 7.09266,52.1607 1.28283,2.52222 5.27892,5.73498 10.75657,8.64801 1.74625,0.92866 4.63821,2.54954 6.42656,3.60196 4.21763,2.48201 6.38747,2.88627 15.62205,2.91049 8.22276,0.0216 14.27429,0.47527 16.58752,1.2436 1.99228,0.66173 4.63272,3.27316 5.62735,5.5655 1.45055,3.34313 1.17764,6.61721 -0.69759,8.36894 -1.6578,1.54862 -8.40678,3.86142 -15.34367,5.2581 -8.4163,1.69455 -21.48863,2.48173 -29.80972,1.79506 z"
         style="fill:#96acb7;stroke-width:0.35277778" />
      <path
         id="path828"
         d="m 155.34821,216.66708 c -5.06143,-0.41768 -8.11243,-0.86972 -16.75694,-2.48271 -16.95331,-3.16335 -22.63314,-3.85675 -34.57223,-4.22063 -8.492404,-0.25883 -10.446774,-0.425 -13.934724,-1.18484 -5.08423,-1.10757 -7.87574,-2.07662 -9.45752,-3.28311 l -1.2344,-0.94152 0.22232,-9.20105 c 0.23792,-9.84652 0.52526,-12.44632 1.75235,-15.85464 0.6258,-1.73822 0.77536,-2.89722 0.75749,-5.87002 -0.0294,-4.8792 -0.46029,-7.74203 -3.34557,-22.225 -5.49364,-27.57602 -10.77087,-74.476347 -9.88393,-87.841667 l 0.19899,-2.99861 2.11667,-0.22336 c 8.31734,-0.87766 69.560354,-1.5353 73.730554,-0.79172 1.69092,0.3015 1.76808,0.36548 1.86529,1.54674 0.0558,0.67772 -0.92797,8.13785 -2.1861,16.57806 -4.53781,30.442227 -5.56518,39.620947 -5.53398,49.441717 0.0609,19.18216 3.61569,45.32445 7.09266,52.1607 1.28283,2.52222 5.27892,5.73498 10.75657,8.64801 1.74625,0.92866 4.63821,2.54954 6.42656,3.60196 4.21763,2.48201 6.38747,2.88627 15.62205,2.91049 8.22276,0.0216 14.27429,0.47527 16.58752,1.2436 1.99228,0.66173 4.63272,3.27316 5.62735,5.5655 1.45055,3.34313 1.17764,6.61721 -0.69759,8.36894 -1.6578,1.54862 -8.40678,3.86142 -15.34367,5.2581 -8.4163,1.69455 -21.48863,2.48173 -29.80972,1.79506 z"
         style="fill:#fccf00;stroke-width:0.35277778" />
    </g>
  </g>
</svg>
