<?xml version="1.0" standalone="no"?><!-- Generator: Gravit.io --><svg xmlns="http://www.w3.org/2000/svg" xmlns:xlink="http://www.w3.org/1999/xlink" style="isolation:isolate" viewBox="0 0 64 64" width="64" height="64"><defs><clipPath id="_clipPath_JXqz5Q8FfwdG8DelFw147KFsnLuMM2eI"><rect width="64" height="64"/></clipPath></defs><g clip-path="url(#_clipPath_JXqz5Q8FfwdG8DelFw147KFsnLuMM2eI)"><path d=" M 39.267 29.266 L 45.29 25.789 L 49.281 26.361 L 53.85 27.016 C 54.072 27.048 54.289 26.998 54.467 26.863 C 54.646 26.728 54.759 26.534 54.791 26.312 C 54.823 26.09 54.769 25.866 54.638 25.695 C 54.503 25.517 54.305 25.396 54.088 25.371 L 49.518 24.716 L 47.624 24.441 L 53.36 21.13 C 53.803 20.874 53.954 20.308 53.699 19.865 L 53.699 19.865 C 53.443 19.422 52.877 19.271 52.434 19.526 L 46.629 22.878 L 47.457 20.999 L 49.328 16.776 C 49.415 16.575 49.422 16.347 49.343 16.136 C 49.261 15.937 49.097 15.765 48.897 15.677 C 48.697 15.59 48.468 15.583 48.257 15.662 C 48.059 15.744 47.894 15.903 47.807 16.104 L 45.936 20.327 L 44.186 24.288 L 38.823 27.385 L 35.523 25.585 L 32.95 24.181 L 32.95 18.154 L 35.506 14.657 L 38.228 10.926 C 38.358 10.75 38.413 10.528 38.386 10.306 C 38.348 10.093 38.228 9.898 38.052 9.769 C 37.876 9.63 37.645 9.583 37.432 9.611 C 37.21 9.648 37.015 9.769 36.886 9.944 L 34.163 13.667 L 32.95 15.329 L 32.95 7.926 C 32.95 7.415 32.535 7 32.024 7 L 32.024 7 C 31.513 7 31.098 7.415 31.098 7.926 L 31.098 15.249 L 29.913 13.741 L 27.061 10.12 C 26.932 9.944 26.728 9.833 26.506 9.806 C 26.293 9.778 26.071 9.843 25.895 9.981 C 25.719 10.111 25.608 10.315 25.58 10.537 C 25.552 10.75 25.617 10.972 25.756 11.148 L 28.608 14.778 L 31.098 17.948 L 31.098 24.005 L 28.218 25.762 L 25.736 27.277 L 20.475 24.239 L 18.725 20.278 L 16.855 16.055 C 16.767 15.854 16.603 15.695 16.396 15.608 C 16.193 15.534 15.965 15.541 15.765 15.628 C 15.556 15.711 15.401 15.888 15.318 16.087 C 15.239 16.298 15.246 16.526 15.334 16.727 L 17.196 20.945 L 18.029 22.827 L 11.618 19.125 C 11.175 18.87 10.609 19.022 10.353 19.464 L 10.353 19.464 C 10.098 19.907 10.249 20.474 10.692 20.729 L 17.034 24.39 L 15.135 24.663 L 10.574 25.322 C 10.357 25.347 10.159 25.468 10.024 25.646 C 9.893 25.817 9.838 26.042 9.87 26.263 C 9.895 26.481 10.015 26.679 10.194 26.814 C 10.365 26.944 10.589 26.999 10.811 26.967 L 15.381 26.312 L 19.372 25.74 L 24.637 28.78 L 24.719 32.177 L 24.799 35.481 L 19.594 38.486 L 15.288 38.021 L 10.696 37.529 C 10.479 37.505 10.258 37.568 10.08 37.703 C 9.914 37.842 9.806 38.043 9.781 38.261 C 9.749 38.482 9.825 38.706 9.955 38.876 C 10.098 39.05 10.3 39.159 10.517 39.183 L 15.102 39.679 L 17.148 39.899 L 10.737 43.6 C 10.294 43.856 10.142 44.422 10.398 44.865 L 10.398 44.865 C 10.653 45.308 11.22 45.459 11.663 45.204 L 18.004 41.543 L 17.291 43.323 L 15.582 47.603 C 15.494 47.803 15.5 48.035 15.587 48.241 C 15.669 48.44 15.836 48.6 16.045 48.683 C 16.245 48.77 16.477 48.765 16.683 48.678 C 16.881 48.595 17.041 48.428 17.124 48.22 L 18.842 43.935 L 20.342 40.193 L 25.901 36.983 L 28.525 38.415 L 31.098 39.819 L 31.098 46.755 L 28.608 49.926 L 25.756 53.556 C 25.617 53.731 25.552 53.944 25.58 54.167 C 25.608 54.389 25.719 54.583 25.895 54.722 C 26.071 54.861 26.293 54.926 26.506 54.898 C 26.728 54.87 26.932 54.759 27.061 54.583 L 29.913 50.954 L 31.098 49.451 L 31.098 56.074 C 31.098 56.585 31.513 57 32.024 57 L 32.024 57 C 32.535 57 32.95 56.585 32.95 56.074 L 32.95 49.371 L 34.163 51.028 L 36.886 54.759 C 37.015 54.935 37.21 55.056 37.432 55.093 C 37.645 55.12 37.876 55.065 38.052 54.935 C 38.228 54.806 38.348 54.611 38.386 54.389 C 38.413 54.176 38.358 53.954 38.228 53.778 L 35.506 50.046 L 32.95 46.55 L 32.95 39.995 L 35.83 38.238 L 38.353 36.699 L 44.319 40.144 L 45.82 43.886 L 47.537 48.171 C 47.62 48.379 47.772 48.542 47.978 48.629 C 48.185 48.716 48.409 48.717 48.617 48.634 C 48.825 48.551 48.992 48.391 49.075 48.192 C 49.162 47.986 49.168 47.754 49.08 47.554 L 47.363 43.269 L 46.654 41.491 L 52.39 44.803 C 52.832 45.059 53.399 44.907 53.654 44.464 L 53.654 44.464 C 53.91 44.022 53.758 43.455 53.315 43.199 L 47.51 39.848 L 49.552 39.626 L 54.144 39.134 C 54.362 39.11 54.563 39.001 54.706 38.828 C 54.837 38.657 54.904 38.429 54.88 38.212 C 54.856 37.994 54.748 37.793 54.574 37.65 C 54.403 37.519 54.183 37.456 53.966 37.481 L 49.373 37.972 L 45.067 38.437 L 39.411 35.171 L 39.33 31.823 L 39.267 29.266 Z  M 27.708 29.508 L 29.866 28.262 L 32.024 27.016 L 34.183 28.262 L 36.341 29.508 L 36.341 32 L 36.341 34.492 L 34.183 35.738 L 32.024 36.984 L 29.866 35.738 L 27.708 34.492 L 27.708 32 L 27.708 29.508 Z " fill-rule="evenodd" fill="rgb(255,255,255)"/><mask id="_mask_1a2v2E48hWhZMYdIKogotwriZQo8Ym7D" x="-200%" y="-200%" width="400%" height="400%"><rect x="-200%" y="-200%" width="400%" height="400%" style="fill:white;"/><path d=" M 39.267 29.266 L 45.29 25.789 L 49.281 26.361 L 53.85 27.016 C 54.072 27.048 54.289 26.998 54.467 26.863 C 54.646 26.728 54.759 26.534 54.791 26.312 C 54.823 26.09 54.769 25.866 54.638 25.695 C 54.503 25.517 54.305 25.396 54.088 25.371 L 49.518 24.716 L 47.624 24.441 L 53.36 21.13 C 53.803 20.874 53.954 20.308 53.699 19.865 L 53.699 19.865 C 53.443 19.422 52.877 19.271 52.434 19.526 L 46.629 22.878 L 47.457 20.999 L 49.328 16.776 C 49.415 16.575 49.422 16.347 49.343 16.136 C 49.261 15.937 49.097 15.765 48.897 15.677 C 48.697 15.59 48.468 15.583 48.257 15.662 C 48.059 15.744 47.894 15.903 47.807 16.104 L 45.936 20.327 L 44.186 24.288 L 38.823 27.385 L 35.523 25.585 L 32.95 24.181 L 32.95 18.154 L 35.506 14.657 L 38.228 10.926 C 38.358 10.75 38.413 10.528 38.386 10.306 C 38.348 10.093 38.228 9.898 38.052 9.769 C 37.876 9.63 37.645 9.583 37.432 9.611 C 37.21 9.648 37.015 9.769 36.886 9.944 L 34.163 13.667 L 32.95 15.329 L 32.95 7.926 C 32.95 7.415 32.535 7 32.024 7 L 32.024 7 C 31.513 7 31.098 7.415 31.098 7.926 L 31.098 15.249 L 29.913 13.741 L 27.061 10.12 C 26.932 9.944 26.728 9.833 26.506 9.806 C 26.293 9.778 26.071 9.843 25.895 9.981 C 25.719 10.111 25.608 10.315 25.58 10.537 C 25.552 10.75 25.617 10.972 25.756 11.148 L 28.608 14.778 L 31.098 17.948 L 31.098 24.005 L 28.218 25.762 L 25.736 27.277 L 20.475 24.239 L 18.725 20.278 L 16.855 16.055 C 16.767 15.854 16.603 15.695 16.396 15.608 C 16.193 15.534 15.965 15.541 15.765 15.628 C 15.556 15.711 15.401 15.888 15.318 16.087 C 15.239 16.298 15.246 16.526 15.334 16.727 L 17.196 20.945 L 18.029 22.827 L 11.618 19.125 C 11.175 18.87 10.609 19.022 10.353 19.464 L 10.353 19.464 C 10.098 19.907 10.249 20.474 10.692 20.729 L 17.034 24.39 L 15.135 24.663 L 10.574 25.322 C 10.357 25.347 10.159 25.468 10.024 25.646 C 9.893 25.817 9.838 26.042 9.87 26.263 C 9.895 26.481 10.015 26.679 10.194 26.814 C 10.365 26.944 10.589 26.999 10.811 26.967 L 15.381 26.312 L 19.372 25.74 L 24.637 28.78 L 24.719 32.177 L 24.799 35.481 L 19.594 38.486 L 15.288 38.021 L 10.696 37.529 C 10.479 37.505 10.258 37.568 10.08 37.703 C 9.914 37.842 9.806 38.043 9.781 38.261 C 9.749 38.482 9.825 38.706 9.955 38.876 C 10.098 39.05 10.3 39.159 10.517 39.183 L 15.102 39.679 L 17.148 39.899 L 10.737 43.6 C 10.294 43.856 10.142 44.422 10.398 44.865 L 10.398 44.865 C 10.653 45.308 11.22 45.459 11.663 45.204 L 18.004 41.543 L 17.291 43.323 L 15.582 47.603 C 15.494 47.803 15.5 48.035 15.587 48.241 C 15.669 48.44 15.836 48.6 16.045 48.683 C 16.245 48.77 16.477 48.765 16.683 48.678 C 16.881 48.595 17.041 48.428 17.124 48.22 L 18.842 43.935 L 20.342 40.193 L 25.901 36.983 L 28.525 38.415 L 31.098 39.819 L 31.098 46.755 L 28.608 49.926 L 25.756 53.556 C 25.617 53.731 25.552 53.944 25.58 54.167 C 25.608 54.389 25.719 54.583 25.895 54.722 C 26.071 54.861 26.293 54.926 26.506 54.898 C 26.728 54.87 26.932 54.759 27.061 54.583 L 29.913 50.954 L 31.098 49.451 L 31.098 56.074 C 31.098 56.585 31.513 57 32.024 57 L 32.024 57 C 32.535 57 32.95 56.585 32.95 56.074 L 32.95 49.371 L 34.163 51.028 L 36.886 54.759 C 37.015 54.935 37.21 55.056 37.432 55.093 C 37.645 55.12 37.876 55.065 38.052 54.935 C 38.228 54.806 38.348 54.611 38.386 54.389 C 38.413 54.176 38.358 53.954 38.228 53.778 L 35.506 50.046 L 32.95 46.55 L 32.95 39.995 L 35.83 38.238 L 38.353 36.699 L 44.319 40.144 L 45.82 43.886 L 47.537 48.171 C 47.62 48.379 47.772 48.542 47.978 48.629 C 48.185 48.716 48.409 48.717 48.617 48.634 C 48.825 48.551 48.992 48.391 49.075 48.192 C 49.162 47.986 49.168 47.754 49.08 47.554 L 47.363 43.269 L 46.654 41.491 L 52.39 44.803 C 52.832 45.059 53.399 44.907 53.654 44.464 L 53.654 44.464 C 53.91 44.022 53.758 43.455 53.315 43.199 L 47.51 39.848 L 49.552 39.626 L 54.144 39.134 C 54.362 39.11 54.563 39.001 54.706 38.828 C 54.837 38.657 54.904 38.429 54.88 38.212 C 54.856 37.994 54.748 37.793 54.574 37.65 C 54.403 37.519 54.183 37.456 53.966 37.481 L 49.373 37.972 L 45.067 38.437 L 39.411 35.171 L 39.33 31.823 L 39.267 29.266 Z  M 27.708 29.508 L 29.866 28.262 L 32.024 27.016 L 34.183 28.262 L 36.341 29.508 L 36.341 32 L 36.341 34.492 L 34.183 35.738 L 32.024 36.984 L 29.866 35.738 L 27.708 34.492 L 27.708 32 L 27.708 29.508 Z " fill-rule="evenodd" fill="black" stroke="none"/></mask><path d=" M 39.267 29.266 L 45.29 25.789 L 49.281 26.361 L 53.85 27.016 C 54.072 27.048 54.289 26.998 54.467 26.863 C 54.646 26.728 54.759 26.534 54.791 26.312 C 54.823 26.09 54.769 25.866 54.638 25.695 C 54.503 25.517 54.305 25.396 54.088 25.371 L 49.518 24.716 L 47.624 24.441 L 53.36 21.13 C 53.803 20.874 53.954 20.308 53.699 19.865 L 53.699 19.865 C 53.443 19.422 52.877 19.271 52.434 19.526 L 46.629 22.878 L 47.457 20.999 L 49.328 16.776 C 49.415 16.575 49.422 16.347 49.343 16.136 C 49.261 15.937 49.097 15.765 48.897 15.677 C 48.697 15.59 48.468 15.583 48.257 15.662 C 48.059 15.744 47.894 15.903 47.807 16.104 L 45.936 20.327 L 44.186 24.288 L 38.823 27.385 L 35.523 25.585 L 32.95 24.181 L 32.95 18.154 L 35.506 14.657 L 38.228 10.926 C 38.358 10.75 38.413 10.528 38.386 10.306 C 38.348 10.093 38.228 9.898 38.052 9.769 C 37.876 9.63 37.645 9.583 37.432 9.611 C 37.21 9.648 37.015 9.769 36.886 9.944 L 34.163 13.667 L 32.95 15.329 L 32.95 7.926 C 32.95 7.415 32.535 7 32.024 7 L 32.024 7 C 31.513 7 31.098 7.415 31.098 7.926 L 31.098 15.249 L 29.913 13.741 L 27.061 10.12 C 26.932 9.944 26.728 9.833 26.506 9.806 C 26.293 9.778 26.071 9.843 25.895 9.981 C 25.719 10.111 25.608 10.315 25.58 10.537 C 25.552 10.75 25.617 10.972 25.756 11.148 L 28.608 14.778 L 31.098 17.948 L 31.098 24.005 L 28.218 25.762 L 25.736 27.277 L 20.475 24.239 L 18.725 20.278 L 16.855 16.055 C 16.767 15.854 16.603 15.695 16.396 15.608 C 16.193 15.534 15.965 15.541 15.765 15.628 C 15.556 15.711 15.401 15.888 15.318 16.087 C 15.239 16.298 15.246 16.526 15.334 16.727 L 17.196 20.945 L 18.029 22.827 L 11.618 19.125 C 11.175 18.87 10.609 19.022 10.353 19.464 L 10.353 19.464 C 10.098 19.907 10.249 20.474 10.692 20.729 L 17.034 24.39 L 15.135 24.663 L 10.574 25.322 C 10.357 25.347 10.159 25.468 10.024 25.646 C 9.893 25.817 9.838 26.042 9.87 26.263 C 9.895 26.481 10.015 26.679 10.194 26.814 C 10.365 26.944 10.589 26.999 10.811 26.967 L 15.381 26.312 L 19.372 25.74 L 24.637 28.78 L 24.719 32.177 L 24.799 35.481 L 19.594 38.486 L 15.288 38.021 L 10.696 37.529 C 10.479 37.505 10.258 37.568 10.08 37.703 C 9.914 37.842 9.806 38.043 9.781 38.261 C 9.749 38.482 9.825 38.706 9.955 38.876 C 10.098 39.05 10.3 39.159 10.517 39.183 L 15.102 39.679 L 17.148 39.899 L 10.737 43.6 C 10.294 43.856 10.142 44.422 10.398 44.865 L 10.398 44.865 C 10.653 45.308 11.22 45.459 11.663 45.204 L 18.004 41.543 L 17.291 43.323 L 15.582 47.603 C 15.494 47.803 15.5 48.035 15.587 48.241 C 15.669 48.44 15.836 48.6 16.045 48.683 C 16.245 48.77 16.477 48.765 16.683 48.678 C 16.881 48.595 17.041 48.428 17.124 48.22 L 18.842 43.935 L 20.342 40.193 L 25.901 36.983 L 28.525 38.415 L 31.098 39.819 L 31.098 46.755 L 28.608 49.926 L 25.756 53.556 C 25.617 53.731 25.552 53.944 25.58 54.167 C 25.608 54.389 25.719 54.583 25.895 54.722 C 26.071 54.861 26.293 54.926 26.506 54.898 C 26.728 54.87 26.932 54.759 27.061 54.583 L 29.913 50.954 L 31.098 49.451 L 31.098 56.074 C 31.098 56.585 31.513 57 32.024 57 L 32.024 57 C 32.535 57 32.95 56.585 32.95 56.074 L 32.95 49.371 L 34.163 51.028 L 36.886 54.759 C 37.015 54.935 37.21 55.056 37.432 55.093 C 37.645 55.12 37.876 55.065 38.052 54.935 C 38.228 54.806 38.348 54.611 38.386 54.389 C 38.413 54.176 38.358 53.954 38.228 53.778 L 35.506 50.046 L 32.95 46.55 L 32.95 39.995 L 35.83 38.238 L 38.353 36.699 L 44.319 40.144 L 45.82 43.886 L 47.537 48.171 C 47.62 48.379 47.772 48.542 47.978 48.629 C 48.185 48.716 48.409 48.717 48.617 48.634 C 48.825 48.551 48.992 48.391 49.075 48.192 C 49.162 47.986 49.168 47.754 49.08 47.554 L 47.363 43.269 L 46.654 41.491 L 52.39 44.803 C 52.832 45.059 53.399 44.907 53.654 44.464 L 53.654 44.464 C 53.91 44.022 53.758 43.455 53.315 43.199 L 47.51 39.848 L 49.552 39.626 L 54.144 39.134 C 54.362 39.11 54.563 39.001 54.706 38.828 C 54.837 38.657 54.904 38.429 54.88 38.212 C 54.856 37.994 54.748 37.793 54.574 37.65 C 54.403 37.519 54.183 37.456 53.966 37.481 L 49.373 37.972 L 45.067 38.437 L 39.411 35.171 L 39.33 31.823 L 39.267 29.266 Z  M 27.708 29.508 L 29.866 28.262 L 32.024 27.016 L 34.183 28.262 L 36.341 29.508 L 36.341 32 L 36.341 34.492 L 34.183 35.738 L 32.024 36.984 L 29.866 35.738 L 27.708 34.492 L 27.708 32 L 27.708 29.508 Z " fill-rule="evenodd" fill="none" mask="url(#_mask_1a2v2E48hWhZMYdIKogotwriZQo8Ym7D)" vector-effect="non-scaling-stroke" stroke-width="2" stroke="rgb(145,180,236)" stroke-linejoin="miter" stroke-linecap="square" stroke-miterlimit="3"/></g></svg>