<?xml version="1.0" standalone="no"?><!-- Generator: Gravit.io --><svg xmlns="http://www.w3.org/2000/svg" xmlns:xlink="http://www.w3.org/1999/xlink" style="isolation:isolate" viewBox="0 0 64 64" width="64" height="64"><defs><clipPath id="_clipPath_OyhCUVXAdnWnjLF0PFVgJa2vYjhJ9drp"><rect width="64" height="64"/></clipPath></defs><g clip-path="url(#_clipPath_OyhCUVXAdnWnjLF0PFVgJa2vYjhJ9drp)"><g><path d=" M 31.417 58.358 L 27.885 47.242 C 27.494 46.011 26.291 45.575 25.201 46.269 L 15.495 52.456 C 14.406 53.151 13.911 52.741 14.391 51.541 L 18.722 40.724 C 19.203 39.524 18.553 38.404 17.274 38.224 L 5.94 36.632 C 4.66 36.452 4.546 35.81 5.684 35.198 L 15.81 29.76 C 16.949 29.148 17.176 27.868 16.316 26.903 L 8.617 18.259 C 7.757 17.294 8.085 16.734 9.347 17.009 L 20.535 19.449 C 21.798 19.724 22.785 18.899 22.738 17.608 L 22.312 5.929 C 22.265 4.638 22.864 4.422 23.651 5.448 L 30.702 14.651 C 31.488 15.677 32.764 15.677 33.55 14.651 L 40.601 5.448 C 41.387 4.422 41.987 4.638 41.94 5.929 L 41.514 17.608 C 41.467 18.899 42.454 19.724 43.716 19.449 L 54.904 17.009 C 56.167 16.734 56.494 17.294 55.635 18.259 L 47.936 26.903 C 47.076 27.868 47.303 29.148 48.441 29.76 L 58.567 35.198 C 59.706 35.81 59.591 36.452 58.311 36.632 L 46.978 38.224 C 45.698 38.404 45.049 39.524 45.53 40.724 L 49.86 51.541 C 50.341 52.741 49.846 53.151 48.756 52.456 L 39.05 46.269 C 37.96 45.575 36.758 46.011 36.367 47.242 L 32.835 58.358 C 32.444 59.59 31.808 59.59 31.417 58.358 Z " fill="rgb(255,177,9)" vector-effect="non-scaling-stroke" stroke-width="1" stroke="rgb(249,158,23)" stroke-linejoin="miter" stroke-linecap="square" stroke-miterlimit="4"/><circle vector-effect="non-scaling-stroke" cx="32.16589344298233" cy="31.127051929207724" r="14.42374798548858" fill="rgb(244,244,145)" stroke-width="1" stroke="rgb(251,229,88)" stroke-linejoin="miter" stroke-linecap="square" stroke-miterlimit="3"/></g></g></svg>