<?xml version="1.0" standalone="no"?><!-- Generator: Gravit.io --><svg xmlns="http://www.w3.org/2000/svg" xmlns:xlink="http://www.w3.org/1999/xlink" style="isolation:isolate" viewBox="0 0 64 64" width="64" height="64"><defs><clipPath id="_clipPath_20D3aZ03270mm6mxSoQ4gbtARNm4NYXa"><rect width="64" height="64"/></clipPath></defs><g clip-path="url(#_clipPath_20D3aZ03270mm6mxSoQ4gbtARNm4NYXa)"><g><path d=" M 39.583 12.901 C 37.412 9.703 33.385 7.561 28.782 7.561 C 21.858 7.561 16.237 12.409 16.237 18.381 C 16.237 18.75 16.258 19.115 16.311 19.472 C 11.211 20.457 7.455 23.881 7.455 27.946 C 7.455 32.793 12.795 36.728 19.373 36.728 C 20.272 36.728 21.148 36.654 21.982 36.495 C 23.492 39.569 27.375 41.746 31.919 41.746 C 37.078 41.746 41.386 38.938 42.337 35.205 C 43.218 35.382 44.141 35.473 45.092 35.473 C 51.323 35.473 56.383 31.538 56.383 26.691 C 56.383 22.594 52.767 19.148 47.876 18.199 C 46.621 15.182 43.395 13.014 39.583 12.901 Z " fill-rule="evenodd" fill="rgb(235,235,235)" vector-effect="non-scaling-stroke" stroke-width="1" stroke="rgb(185,185,185)" stroke-linejoin="miter" stroke-linecap="square" stroke-miterlimit="3"/><g><path d=" M 51.625 30.71 C 51.625 30.548 51.693 30.394 51.812 30.281 C 51.931 30.16 52.092 30.103 52.262 30.103 C 52.432 30.103 52.594 30.16 52.713 30.281 C 52.832 30.394 52.9 30.548 52.9 30.71 C 52.9 31.649 52.509 32.564 51.803 33.228 C 51.098 33.9 50.146 34.281 49.151 34.281 C 48.157 34.281 47.205 33.9 46.499 33.228 C 45.794 32.564 45.403 31.649 45.403 30.71 C 45.403 30.548 45.471 30.394 45.59 30.281 C 45.709 30.16 45.87 30.103 46.04 30.103 C 46.21 30.103 46.372 30.16 46.491 30.281 C 46.61 30.394 46.678 30.548 46.678 30.71 C 46.678 31.334 46.941 31.933 47.4 32.37 C 47.868 32.815 48.497 33.066 49.151 33.066 C 49.806 33.066 50.435 32.815 50.902 32.37 C 51.361 31.933 51.625 31.334 51.625 30.71 Z " fill="rgb(91,130,193)"/><path d=" M 51.225 35.463 C 51.395 35.463 51.557 35.528 51.676 35.641 C 51.795 35.754 51.863 35.908 51.863 36.07 C 51.863 36.232 51.795 36.386 51.676 36.499 C 51.557 36.612 51.395 36.677 51.225 36.677 L 42.946 36.677 C 42.92 36.677 42.886 36.677 42.861 36.669 C 42.24 36.588 41.628 36.475 41.025 36.313 C 40.617 36.208 40.209 36.062 39.826 35.876 C 39.563 35.746 39.308 35.592 39.07 35.422 C 38.874 35.268 38.696 35.098 38.543 34.904 C 38.407 34.734 38.288 34.54 38.203 34.345 C 38.118 34.143 38.058 33.933 38.033 33.722 C 37.999 33.479 38.007 33.236 38.058 33.001 C 38.118 32.775 38.211 32.556 38.347 32.362 C 38.475 32.167 38.628 31.997 38.815 31.86 C 39.036 31.682 39.274 31.536 39.52 31.415 C 39.911 31.228 40.311 31.074 40.727 30.977 C 41.39 30.815 42.062 30.686 42.742 30.613 C 42.903 30.589 43.073 30.637 43.209 30.734 C 43.345 30.832 43.43 30.977 43.447 31.139 C 43.473 31.293 43.422 31.455 43.32 31.585 C 43.218 31.714 43.065 31.795 42.895 31.811 C 42.274 31.892 41.654 31.997 41.05 32.151 C 40.719 32.232 40.404 32.346 40.107 32.491 C 39.937 32.572 39.775 32.678 39.631 32.791 C 39.546 32.856 39.469 32.937 39.41 33.018 C 39.367 33.099 39.325 33.18 39.308 33.26 C 39.282 33.358 39.282 33.463 39.291 33.56 C 39.308 33.673 39.342 33.779 39.384 33.884 C 39.427 33.981 39.486 34.078 39.554 34.167 C 39.648 34.281 39.75 34.378 39.86 34.459 C 40.03 34.588 40.209 34.702 40.404 34.791 C 40.71 34.936 41.033 35.058 41.365 35.147 C 41.9 35.285 42.444 35.39 42.988 35.463 L 51.225 35.463 Z " fill="rgb(91,130,193)"/><path d=" M 46.678 30.249 L 46.669 30.856 L 45.394 30.848 L 45.403 30.241 C 45.42 28.702 46.108 27.245 47.307 26.225 C 48.531 25.221 50.095 24.678 51.71 24.711 C 53.376 24.711 54.974 25.342 56.155 26.468 C 57.337 27.593 58 29.115 58 30.71 C 58 32.297 57.328 33.819 56.147 34.936 C 54.965 36.054 53.367 36.685 51.701 36.677 L 51.064 36.677 L 51.064 35.463 L 51.701 35.463 C 53.027 35.463 54.311 34.969 55.246 34.078 C 56.189 33.18 56.725 31.973 56.725 30.702 C 56.725 29.439 56.198 28.216 55.254 27.318 C 54.311 26.427 53.027 25.917 51.693 25.925 C 50.401 25.901 49.134 26.33 48.148 27.131 C 47.222 27.933 46.686 29.058 46.678 30.249 Z " fill="rgb(91,130,193)"/></g><g><path d=" M 25.424 38.409 C 25.424 38.199 25.512 37.999 25.667 37.851 C 25.822 37.693 26.032 37.62 26.253 37.62 C 26.474 37.62 26.684 37.693 26.838 37.851 C 26.993 37.999 27.082 38.199 27.082 38.409 C 27.082 39.63 26.573 40.82 25.656 41.683 C 24.738 42.557 23.501 43.052 22.207 43.052 C 20.914 43.052 19.676 42.557 18.759 41.683 C 17.842 40.82 17.333 39.63 17.333 38.409 C 17.333 38.199 17.422 37.999 17.576 37.851 C 17.731 37.693 17.941 37.62 18.162 37.62 C 18.383 37.62 18.593 37.693 18.748 37.851 C 18.903 37.999 18.991 38.199 18.991 38.409 C 18.991 39.22 19.334 39.999 19.931 40.567 C 20.538 41.146 21.356 41.473 22.207 41.473 C 23.058 41.473 23.876 41.146 24.484 40.567 C 25.081 39.999 25.424 39.22 25.424 38.409 Z " fill="rgb(91,130,193)"/><path d=" M 24.904 44.589 C 25.125 44.589 25.335 44.673 25.49 44.82 C 25.645 44.968 25.733 45.168 25.733 45.378 C 25.733 45.589 25.645 45.789 25.49 45.936 C 25.335 46.084 25.125 46.168 24.904 46.168 L 14.139 46.168 C 14.106 46.168 14.062 46.168 14.028 46.157 C 13.222 46.052 12.426 45.905 11.641 45.694 C 11.111 45.557 10.58 45.368 10.083 45.126 C 9.74 44.957 9.408 44.757 9.099 44.536 C 8.845 44.336 8.613 44.115 8.414 43.862 C 8.237 43.641 8.082 43.389 7.972 43.136 C 7.861 42.873 7.784 42.599 7.751 42.325 C 7.706 42.01 7.717 41.694 7.784 41.389 C 7.861 41.094 7.983 40.809 8.159 40.557 C 8.325 40.304 8.524 40.083 8.767 39.904 C 9.055 39.673 9.364 39.483 9.685 39.325 C 10.193 39.083 10.713 38.883 11.254 38.757 C 12.116 38.546 12.989 38.378 13.874 38.283 C 14.084 38.251 14.305 38.314 14.482 38.441 C 14.658 38.567 14.769 38.757 14.791 38.967 C 14.824 39.167 14.758 39.378 14.625 39.546 C 14.493 39.715 14.294 39.82 14.073 39.841 C 13.266 39.946 12.459 40.083 11.674 40.283 C 11.243 40.388 10.834 40.536 10.447 40.725 C 10.226 40.831 10.016 40.967 9.828 41.115 C 9.718 41.199 9.618 41.304 9.541 41.41 C 9.486 41.515 9.431 41.62 9.408 41.725 C 9.375 41.852 9.375 41.989 9.386 42.115 C 9.408 42.262 9.453 42.399 9.508 42.536 C 9.563 42.662 9.641 42.789 9.729 42.904 C 9.851 43.052 9.983 43.178 10.127 43.283 C 10.348 43.452 10.58 43.599 10.834 43.715 C 11.232 43.905 11.652 44.063 12.083 44.178 C 12.779 44.357 13.487 44.494 14.194 44.589 L 24.904 44.589 Z " fill="rgb(91,130,193)"/><path d=" M 18.991 37.809 L 18.98 38.599 L 17.322 38.588 L 17.333 37.799 C 17.355 35.798 18.251 33.903 19.809 32.577 C 21.401 31.272 23.434 30.566 25.534 30.608 C 27.701 30.608 29.778 31.429 31.315 32.893 C 32.851 34.356 33.713 36.335 33.713 38.409 C 33.713 40.473 32.84 42.452 31.304 43.905 C 29.767 45.357 27.689 46.179 25.523 46.168 L 24.694 46.168 L 24.694 44.589 L 25.523 44.589 C 27.247 44.589 28.916 43.947 30.132 42.789 C 31.359 41.62 32.055 40.052 32.055 38.399 C 32.055 36.756 31.37 35.167 30.143 33.998 C 28.916 32.84 27.247 32.177 25.512 32.187 C 23.832 32.156 22.185 32.714 20.903 33.756 C 19.698 34.798 19.002 36.262 18.991 37.809 Z " fill="rgb(91,130,193)"/></g></g></g></svg>